<svg xmlns="http://www.w3.org/2000/svg" viewBox="0 0 1132.8 1030.7" width="1132.800048828125" height="1030.699951171875" class="injected-svg" data-src="//a.storyblok.com/f/64062/1133x1031/59c56b27eb/crimson-education-parents-got-talent-image-2.svg" xmlns:xlink="http://www.w3.org/1999/xlink"><g id="b8744045-f70a-4499-b269-b400c77b2443" data-name="Layer 2"><g id="fd77e2f0-80fc-4812-b344-cd435b06da2a" data-name="Layer 1"><path d="M225.2,109.3c4.5-.3,7.5,1.8,9.3,5.7a88.6,88.6,0,0,1,5.7,18.8,12,12,0,0,0,3.8,6.7c8.5,7.6,14.4,17.1,20,26.7,1.3,2.2,1.8,2,3.6.5,6.4-5.8,17.5-3,19.2,4.6.8,3.4-.4,6.4-2,9.2a76.9,76.9,0,0,0-5.6,11.1c-2.4,6.1-6.6,10.9-11.1,15.5s-8.8,9.5-12,15.1a13.3,13.3,0,0,1-4.1,4.4c-3.7,2.5-7.5,2.8-11.5.4a10.1,10.1,0,0,1-4.1-10.5c.7-2.5-.1-3.4-2.4-4.2a35.1,35.1,0,0,1-16.2-11.4,3.1,3.1,0,0,0-2.6-1.6c-2-.1-2.9-1.5-3-3.4s.1-2.6.1-3.9,0-2.5-.8-2.8c-3.6-1-1.1-2.7-.5-3.9,3.3-6.5,6.5-12.9,8.7-19.9s.8-14.9,0-22.2-2.8-14.5-4.8-21.6S218.4,108.3,225.2,109.3Z" fill="#fca286"></path><path d="M309.8,128.5H308c-1.7-1.7-3.8-3.1-3.8-6.4a30.4,30.4,0,0,0-3.1,3c-1.4,2.1-3.1,2.2-5,1.1v-1.8c1.3-.4,1.4-1.6,1.6-2.6,1.8-8,4.8-15.7,4.3-24-.2-3.1,2.1-4.6,5.2-4.4s4,.1,5.6-1.7a3.1,3.1,0,0,1,5.3,1.4c1.2,3.4,2.6,7,1.8,10.7a130,130,0,0,1-3.3,13.7C315.3,121.8,313.8,125.9,309.8,128.5Z" fill="#1b1e2c"></path><path d="M147,616c-3,6.9-5.7,13-8.3,19.2-6.3,15.1-14.7,29.2-23.2,43.1-5.7,9.3-50.2,178.7-60.6,175.1-2.7-1-5.6-.1-8.5-.8-15.4-3.5-26.7-11.9-33.2-26.5a5.4,5.4,0,0,1-.4-3.7c4.6-17.2,47-201.9,51.7-219s11.2-36.1,17-54c2.6-8.2,4.2-16.4,3.7-24.9-1.4-24.8,5.4-47.3,17.8-68.4,8.5-14.6,17.4-28.9,26.3-43.2a33.9,33.9,0,0,1,3.3-4.2c.7-.9,1.7-1.6,2.9-.9s.7,2,.1,2.9c-2.1,2.7-3.1,5.1,1,6.7,7.3,12.6,20.2,14.6,32.6,17.7a157.3,157.3,0,0,0,32.8,4.7c9,.3,17.6-1.5,26.4-3.1a121.2,121.2,0,0,0,24.3-7.2,78.9,78.9,0,0,1,9.4-3,8,8,0,0,1,5.3.3c1.4.7,2.5,1.3,2.9-1,.1-.8.9-1.1,1.7-1a2.1,2.1,0,0,1,1.8,2.1,28.1,28.1,0,0,1-.1,7.1c-2.9,25.3-8.7,49.9-15.4,74.3-9.2,33.1-19.7,65.7-34.3,96.9-3.1,6.7-5.4,13.9-7.9,20.9-1.9,5.4-5.3,8.7-9.3,11.9s-9.1,5.2-14.4,6.2c-17.7,3.4-37.2-4-44.2-24.8Z" fill="#fbaa1a"></path><path d="M320.6,262.8c.6,8.9-.2,19.1-.7,29.4-.6,11.9-1.6,23.7-2.7,35.6s-2.1,21-3.2,31.4c-1.4,12.6-3.2,25.1-5.1,37.5-1.6,9.6-3.2,19.2-5.6,28.7a4.8,4.8,0,0,1-3.2,3.9,55.9,55.9,0,0,0-8.6,3.8c-8.3,5.3-18.1,6.4-26.6,10.6-6.4,3.1-13.1,3-19.6,4-9,1.4-18.1,2.1-27.2,2.9a85.9,85.9,0,0,1-20.9-.7c-18.6-3-35.8-10.2-52-19.4a103.6,103.6,0,0,1-29.6-24.4c-2.6-3.1-3.4-6.9-3.9-10.5-.9-6.4-1.6-12.8.3-19.6,2.7-9.6,5.7-19,8.4-28.6a289.4,289.4,0,0,1,12.9-34.7c6.7-15.5,14.2-30.7,22.1-45.8,12.2-23.5,24.6-46.9,37-70.4a90.6,90.6,0,0,1,6-9.2c2.7-3.8,5.1-4.4,9.2-2.4,1.1.6,1.6.1,2.4-.4,3.1-1.7,5.8-.9,7.4,2.4a15.7,15.7,0,0,1,1.2,3c3.6,12.9,12.9,19,25.4,21.3s22.4-1.7,33.1-5.8a3.6,3.6,0,0,0,2.1-2.7c.7-2.1,1.2-4.2,1.9-6.3s1.8-3.7,4.3-3.8,4.3,1.2,5.4,3.5.1,2.5,1.3,2.2a15.4,15.4,0,0,0,5-2c.4-.2,0-1.1-.3-1.6s-.9-1.8-1.3-2.7a4.8,4.8,0,0,1,1.2-6.2,4.9,4.9,0,0,1,6-.9c4.6,2.3,6.7,6.8,8.7,11.1,4.3,9.3,6.3,19.2,7.5,29.3A266.1,266.1,0,0,1,320.6,262.8Z" fill="#1b1e2c"></path><path d="M225.4,164.9c13-.6,25.3-2.2,37.6-3.5s27-2.4,40.3-5.2c1.1-.2,2.5.1,1.9-2s.8-1.9,1.9-2.2a17.4,17.4,0,0,1,5-.8,104.9,104.9,0,0,0,21.7-1.9c8.4-1.6,15.2.7,20.2,7.6,3.5,4.9,6.8,9.9,8.7,15.6a14.6,14.6,0,0,1,1.1,6.5,4.3,4.3,0,0,0,.9,3.6c.9,1.1.7,2.3.5,3.7-2.1,11.6-7.1,22.2-11.7,32.9-7.4,17-12.5,34.5-13.9,53.2a493.5,493.5,0,0,0-1.5,54.4c.6,15,2.1,30,2.7,45,.9,20.3.5,40.6-5.2,60.5a40.7,40.7,0,0,1-4.8,10.9c-1.2,2.1-2.7,4-3.2,6.4a17.4,17.4,0,0,1-5.2,9.2,4.1,4.1,0,0,0-1.2,3.2,9.6,9.6,0,0,1-4.1,7.9c-7.6,5.9-15.6,11.4-23,17.7a10.3,10.3,0,0,1-7.7,2.7c-1.6-.1-2.4-.6-2.3-2.3.4-9.3.7-18.6,1-27.8.1-3.8.1-7.6.2-11.4.2-10.2.6-20.3.5-30.5-.2-7.4.5-15.1-1.9-22.2s-1.5-14.8-1.5-22.2a353,353,0,0,0-3.6-47.1c-2.3-15.6-.1-30.9,3.7-46.1,5-19.3,8.3-38.9,11.2-58.6,1.9-13.4,4-26.8,6-40.1a7.2,7.2,0,0,1,2-4.6c3.2-2.9,2.6-7,3.6-10.5.5-1.8-1.2-1.2-1.9-1.1l-16.9,2-31.7,3.9c-4.1.5-10.3-10.1-14.4-9.6-1.9.2-19.8-.3-20.1,2.1,9.6,8.5,39.3,30,37.2,35.5-3.6,9.2-28.4,11.6-27.6,21.2.3,3,.7,6,.8,8.9.3,6.2.5,12.4.7,18.6.4,14.6,25.7-.6,26.7,14,.3,4-15.1,68.3-15.3,80.5s-7.1,24.9-6.5,38.4c.3,7.2,1.1,14.3,1.7,21.4.9,13.2-1.4,26-5.2,38.6-4.3,14.7-7.9,29.6-11.1,44.6-1.1,5.2-4.3,9.5-5.7,14.5s-3.5,5.5-7.7,6.3c-8.7,1.6-17.3,3.4-26,4.9-13.1,2.4-25.1,8-36.9,13.7s-20.8,9.8-32.1,12.3c-18.5,4.1-35.6,1.3-51.6-9.3-12.3-8-25-15.5-39.3-19.6-7.6-2.2-14.3-7-21.1-10.9a2.6,2.6,0,0,1-1.2-1.1,1.7,1.7,0,0,1,.1-1.4c7.7-29.4,30.1-47.8,49.4-69.6s39.1-47.7,52.8-75.3c5.3-10.7,10.3-21.6,15.4-32.4,9-19.1,15.9-38.9,21.9-59.1,3-10.4,6.3-20.8,8.6-31.4.9-4.1,1.8-8.3,4.5-11.7,4-5,7.4-10.6,12.2-15,11.1-10.2,22.6-19.9,34.4-29.3,2.3-1.9,14-10.7,16.4-12.1,5.6-3.3,3,3,8.2-.8,1.1-.7,2.2-1.1,3.4-.2s.6,1.9.5,3S226.7,163.8,225.4,164.9Z" fill="#1b1e2c"></path><path d="M419.6,257l-3.4-2.8c-2.7-2.2-3.6-5.7-2.2-8.3s4.7-4.1,8.2-3.1c5.8,1.7,10,5.7,13.9,10,17.9,20,28,44,35.8,69.2,1.3,4.1,1,8.3.7,12.5-.1,2.5-4.6,7-7.2,7.2-6.2.5-12.6,1.5-18.7,1-4.5-.3-8.8-2.9-13.3-4.1-8.6-2.3-11.9-10-16.9-16a66.7,66.7,0,0,1-4.3-6.1c-3.6-5.2-6.5-10.6-7.3-17.1-.3-2.6-.7-5.4-2.9-7.3s-.4-1.9-.3-2.9c.4-3.2.7-6.5-.3-9.7a3.6,3.6,0,0,1,1.9-4.8,5.3,5.3,0,0,0,3-4.2c.6-3.8,2.2-6.8,6.6-7.4a2.2,2.2,0,0,0,1.6-1.5A8.7,8.7,0,0,1,419.6,257Z" fill="#1b1e2c"></path><path d="M256.9,69.4c7.6.3,15.3,1,22.6,3.4,2.6.8,4.8,2.4,7.3,3.5,12.3,5.5,16,17,20.1,28.2a139.1,139.1,0,0,1,7.8,40.9,106.9,106.9,0,0,1-3,32.9,43,43,0,0,1-12.3,21.2,16.2,16.2,0,0,1-14.6,4.4c-20-3.7-34.3-15.2-44.5-32.3a21.1,21.1,0,0,1-1.9-4.7,16.7,16.7,0,0,0-4.9-7.7c-8.2-7.1-12.8-16.5-16.5-26.3a90.5,90.5,0,0,1-4.2-13.4,32.2,32.2,0,0,1,1.3-16.3c5.2-15.9,15.2-27.3,31.6-32.4a25.9,25.9,0,0,1,5.5-1.3A36.2,36.2,0,0,1,256.9,69.4Z" fill="#fca286"></path><path d="M438.7,276.3c-2,2.6-3.8,4.8-5.6,6.9-3.1,3.8-6.8,6.3-11.9,6.6-2.9.2-5.7,1.6-8.8.6-.3-.1-.9.3-1.2.7-2.3,2.4-4.8,1.9-7.4.7a51.7,51.7,0,0,1-14.7-10.2c-10.5-10.2-22-19.3-33.3-28.7-8.2-6.8-15.6-14.5-23-22.1a7.8,7.8,0,0,0-5.7-2.9c-3.5-.1-5.8-3.8-5.1-7.7a59.6,59.6,0,0,1,4.5-14.9c5.2-12.1,7.5-24.9,10.3-37.6a40.1,40.1,0,0,1,3.6-11.1c2.8-5.3,8.4-6.3,12.6-2,6.4,6.6,11.6,14.3,17.1,21.6,7.1,9.4,14.2,19,22,27.9,1.9,2.3,4.6,3.8,6.6,6,8.1,8.3,15.6,17.1,23,26s15.4,17.5,21.6,27.4c2.7,4.3,4.3,8.7,3.5,13.8-.4,2.3-1.3,4.4-4,4.6s-2.8-2.3-3.6-4Z" fill="#1b1e2c"></path><path d="M465.6,285.9a5,5,0,0,1-.4,1.3l-.3.7c-.3,2,2.8,2.3,3.6,3.8s-.9,3.5-.3,5.2,1.6,1.8,2.1,2.8-.6,3.1-.2,4.7,3,3.1,3.5,5.3c.9,3.9-1.6,7.7-2.6,11.2a51.7,51.7,0,0,0-1.9,12.4c0,1.7-.7,3.6-2.5,4.1-3.4,1-8,.2-11.4.1s-9.1.1-13.3-.9-6.6-3.7-9.8-5.9-4.4-1.7-5.8-3.5-2.2-4.8-3.7-6.8-6.4-10.1-5-13.2a43.7,43.7,0,0,0,4.2-12.8,22.2,22.2,0,0,0-.3-6.8c-.4-1.8-1.5-3.6.4-5a4.2,4.2,0,0,1,4.4-.7,6.7,6.7,0,0,1,3.3,2.9c1,2.1,2.3,2,4.2,1.1,4.4-2,9-3.7,13.5-5.6a37.8,37.8,0,0,1,9.5-2.4c2.3-.4,4.9-.2,6.7,1.6A8.5,8.5,0,0,1,465.6,285.9Z" fill="#f49b80"></path><path d="M351.2,244.1a4.7,4.7,0,0,0-.9-.6c-3.7-.9-3.9-1.4-2.1-4.7l.3-.3-.4.2c-5.7.2-5.8,0-7.2-5.7a113.9,113.9,0,0,1-1.7-11.5c-.3-1.6-.3-3.5-2.9-3.1a1.7,1.7,0,0,1-1.9-1.6c-.2-1.2.5-1.8,1.3-2.7,3.3-3.3,8-3.3,11.8-5.2l2-.8-3.7-.8c14.2-2,26.7-7.5,39.7-11.7,21.4-6.9,43-13.4,64.1-21.3l10.6-4.1a17.1,17.1,0,0,0,11.1-12c2.4-8.3,5.3-16.3,8.1-24.4,5.3-15.8,9-32,12.5-48.3,1.3-5.7,4.2-10.9,5.4-16.7a3.5,3.5,0,0,1,4.4-3c2.3.5,3.8,2.3,3.4,4.6-1.4,7.2,2.6,13.5,2.7,20.4.1,2.3,2.6,3.7,2.8,6.2.4,4.9,1,9.7,1.7,14.5,1.7,10.1,3.5,21.6,1.3,31.2-2.9,12.7-3,21-8,32.6-2.1,5.1-17.4,9.5-20.4,14.1l-4.8,6.9a5.6,5.6,0,0,1-3.2,2.4c-19.4,6.3-38.4,13.7-57.3,21.4s-39,17.2-59.8,22.6c-1.6.4-3.3.4-4.7,1.4Z" fill="#fc8d6a"></path><path d="M202.3,111.1c-.3-6.5,2.8-12.7,7.1-17.7a112.4,112.4,0,0,1,22.8-20.2c11.5-7.8,24-10.5,37.4-7.6,10.4,2.3,20.7,4.9,31.2,7,16.9,3.4,26.9,20.7,23.4,37.8-1.4,6.8-4.7,12.4-9.1,17.5-.8,1-1.5,2.4-3.1,1.5s-.8-2.2-.4-3.4a93,93,0,0,0,4.7-18.5c.4-3.3.7-6.7-1-10.2-3,5.7-7.1,9.5-12.9,11.2-2.7.7-5.9-.6-8,.8s-3.7,4.3-6,6.1c-4.8,3.4-10.2,5-15.7,6.4-1.1.3-2.1.3-2.7,1.6-2.7,6.4-7.6,10.8-13,14.8-1.7,1.3-2.8,2.6-2.3,4.9s-.6,4-2.1,5.6a100.2,100.2,0,0,1-11.9,11.6c-5.8,4.8-5.5,6.4-13.4,7.1-2.7.2-6.9-.8-7-3.2-.3-5.3-8.1-26.4-10.5-32.9s-5.3-10.3-6.8-15.9A16.1,16.1,0,0,1,202.3,111.1Z" fill="#1b1e2c"></path><path d="M228.3,153c-.5-4.9.6-11.3,4.8-13.9s6-.1,8.3,1.8a34.4,34.4,0,0,1,10.2,14.9,14.1,14.1,0,0,1-.1,10.5c-6,13.8-21.3-3-23-11.6C228.4,154.1,228.4,153.6,228.3,153Z" fill="#fca387"></path><path d="M291,180.5c-3.5-.7-7-2-10.5-3-.9-.2-1.8-.9-1.6-1.9s1.3-1.5,2.3-1.4,4.2.6,6.3.6l5.6-.3a23,23,0,0,0,10.8-2.9l1-.4c1.1-.3,2.1.9,2.2,2.1s-2.6,5.9-4.8,6.7A19.1,19.1,0,0,1,291,180.5Z" fill="#f5fafd"></path><path d="M281.1,134.1a14.9,14.9,0,0,0-7.7,2.1c-1.6.8-3.5,1.5-4.8-.5s-.1-3.6,1.3-4.7c4.1-3.2,8.6-4.7,13.7-3.6,1.6.4,3.6.9,3.5,3.1s-2.3,2.9-4.2,3.6A5.4,5.4,0,0,1,281.1,134.1Z" fill="#1b1e2c"></path><path d="M302.4,127.2a7.1,7.1,0,0,1,3.9-5.8c2.2-1.1,4.4.2,6.3,1.5a3,3,0,0,1,1.1,3.8,2.6,2.6,0,0,1-3,1.9,6,6,0,0,0-4.1,1.2C304.3,131.3,302.4,130.1,302.4,127.2Z" fill="#1b1e2c"></path><path d="M286,145.6v.5c-.1,2.2.4,5-2.4,5.3s-3.1-2.8-3.7-4.8a8.4,8.4,0,0,1,.1-4.7,3.1,3.1,0,0,1,2.6-2.6c1.6-.1,2.4,1.1,2.9,2.4A9.3,9.3,0,0,1,286,145.6Z" fill="#1b1e2c"></path><path d="M312.2,141.2v.8c-.1,1.9-.5,3.8-2.8,3.9s-2.5-1.8-2.8-3.6a20.2,20.2,0,0,1,0-6.5c.2-1,.6-1.9,1.8-2.1a2.4,2.4,0,0,1,2.7,1.4C312.2,136.8,312.3,138.8,312.2,141.2Z" fill="#1b1e2c"></path><path d="M422.1,222.9c-.5-7.5-2-11.9-2.6-19.3-.1-.8-2-8.3-2.1-9.1-4.9-20.6-4.9-14.1-9.1-13.4s-16.2,2.1-17,2.5c-2.5,1.5.4,4.3-.6,7.1-21.1,7.9-48.5,12.3-71,13.3-3.2-.7-7.2.9-10.4.2-28.3-6.7-12.4-.6-84.8-24.1-5-1.7-32.6,8.6-40.5,17.4-4.5,5.2-6.4,61.2,0,81.5,4.6,14.2,6.7-7.7,21.1-11.5s49.4,5.3,63,1.6c27.3-7.5,42.2.6,70-4.9,14-2.8,28.2-5.3,42.3-7.6l20.7-3.2c7-1,13.9-2.9,18.1-9S422.5,230.3,422.1,222.9Z" fill="#1b1e2c"></path><path d="M416.3,230.8h-.4a1.1,1.1,0,0,1-.6-1.5c7.5-18.7-1.2-44-3.3-47.6-9.6.9-20,2.2-21.3,3s.4,2.9,2,5.2a1.4,1.4,0,0,1,.1,1.1,1.1,1.1,0,0,1-.8.7c-2.3.6-57.6,14.6-76.9,14.6h-.2c-19.5-.1-85.9-21.9-89.9-23.9s-32.1,9.2-34.9,11.1a1.1,1.1,0,0,1-1.4.2,1.1,1.1,0,0,1-.3-1.6c1.1-1.7,32.9-14.1,37.6-11.8s69.6,23.6,88.9,23.7h.2c17.2,0,65.6-11.9,74.8-14.2-1.2-2.1-2.6-5.5-.5-7s18-3,22.9-3.4a1.3,1.3,0,0,1,1.2.4c1.8,2,12.3,29.4,3.9,50.4A1.1,1.1,0,0,1,416.3,230.8Z" fill="#1b1e2c"></path><path d="M277.8,79.9a1.1,1.1,0,0,0-1.3,1A.9.9,0,0,0,277,82c1.1,1,8.4,9.9,6.1,17.9s-10.6,11.3-25.6,13.1a1,1,0,0,0-.9.6c-2.7,4.8-7.1,12.6-8.1,14a1.6,1.6,0,0,0-.4.7,1.3,1.3,0,0,0,.7,1.4h.5c.9,0,1.9-1.8,9-14.6,22.5-2.8,27.4-11.5,27.5-18.3C286,88.5,279,80.1,277.8,79.9Z" fill="#3f474e"></path><path d="M315,82.7a1.1,1.1,0,0,0-1.5-.6,1.3,1.3,0,0,0-.6,1.6s2.6,6,.2,11.3c-1.4,3.3-4.5,5.7-9.1,7.2a1.1,1.1,0,0,0-.7,1.4,1.2,1.2,0,0,0,1.1.8h.4c5.2-1.7,8.7-4.6,10.5-8.5C318,89.6,315.1,83,315,82.7Z" fill="#3f474e"></path><path d="M259.3,104.2a1.3,1.3,0,0,0-1.1-1.3A1.2,1.2,0,0,0,257,104a21.2,21.2,0,0,1-11.1,16,1.1,1.1,0,0,0-.5,1.5,1.1,1.1,0,0,0,1,.6h.6A23.6,23.6,0,0,0,259.3,104.2Z" fill="#3f474e"></path><path d="M220.2,119.2c-5.2-3.2-8.1-7.1-8.5-11.6-.9-9,8.6-17.7,8.7-17.8a1.2,1.2,0,0,0,.1-1.6,1.2,1.2,0,0,0-1.7-.1c-.4.4-10.4,9.5-9.4,19.7.5,5.3,3.7,9.8,9.6,13.4l.6.2a1.1,1.1,0,0,0,1-.6A1.3,1.3,0,0,0,220.2,119.2Z" fill="#3f474e"></path><path d="M225.8,117c-5.7-2.3-5.1-9.4-5.1-9.7a1.1,1.1,0,0,0-2.2-.2c-.3,3.1.6,9.7,6.4,12h.5a1.1,1.1,0,0,0,1-.7A1.1,1.1,0,0,0,225.8,117Z" fill="#3f474e"></path><path d="M302.7,142.5a1.2,1.2,0,1,0-2.3.5c.3,1.3,2.9,12.7,5,15.9a15.1,15.1,0,0,1-5.4.1,1,1,0,0,0-1.3,1,1.1,1.1,0,0,0,.9,1.3l3.4.2c1.9,0,3.8-.3,4.5-1.4a2.1,2.1,0,0,0-.2-2.5C305.7,155.2,303.4,145.9,302.7,142.5Z" fill="#f47750"></path><path d="M432.4,314.1c.5-.5,6.5-6.2,8.9-7.6s14.3-4.7,16-4.8a1,1,0,0,0,.9-.2,1.2,1.2,0,0,0,.3-1.6c-.5-.7-.8-1-8.8,1.3-1.8.5-7.7,2.2-9.5,3.3s-7.7,6.2-9.2,7.8l-1.9-2.7a24.6,24.6,0,0,1,1.1-7.6,15.5,15.5,0,0,0,.5-2.3l1.7-.8c4.7-2.1,17.1-7.6,22-8.5a1.1,1.1,0,0,0,.9-1.3,1.2,1.2,0,0,0-1.4-1c-5.1,1-17.2,6.4-22.4,8.7l-.5.2a94.5,94.5,0,0,0-.2-12.3,1.1,1.1,0,0,0-1.3-1,1.1,1.1,0,0,0-1,1.2c0,.2,1,11.3-.5,16.5s-1.2,8.6-1.2,8.7a1.4,1.4,0,0,0,.2.6c.1.1,6.2,8,7.4,14a1.2,1.2,0,0,0,1.1.9h.2a1.1,1.1,0,0,0,.9-1.3,30.6,30.6,0,0,0-4.3-10C432.3,314.2,432.4,314.2,432.4,314.1Z" fill="#f47750"></path><path d="M457.5,317.7a1.1,1.1,0,0,0,1.2-1,1.1,1.1,0,0,0-1.1-1.2c-16-1.1-21,2.3-21.3,2.4a1.1,1.1,0,0,0-.2,1.6,1.1,1.1,0,0,0,.9.5,1,1,0,0,0,.7-.2S442.5,316.7,457.5,317.7Z" fill="#f47750"></path><path d="M461.6,330.9a92.1,92.1,0,0,1-12.3-3.5c-5-2.1-7.9-1.9-8-1.9a1.1,1.1,0,0,0-1,1.3,1.1,1.1,0,0,0,1.2,1,14.1,14.1,0,0,1,4.3.7l-.2.2a1.2,1.2,0,0,0,.3,1.6h.2a2.2,2.2,0,0,1,.8,1.5c-.1.9-1.1,1.7-2.8,2.5a1.1,1.1,0,0,0-.6,1.5,1.2,1.2,0,0,0,1,.7h.5c3.6-1.6,4.3-3.6,4.1-4.9a3.9,3.9,0,0,0-.8-2.2h.1a100.1,100.1,0,0,0,12.7,3.7h.3a1.2,1.2,0,0,0,1.1-.9A1.3,1.3,0,0,0,461.6,330.9Z" fill="#f47750"></path><path d="M308.2,270l-65.5-2.2c-22.9-1-40.3.1-40.5.1a1.2,1.2,0,0,0-1.1,1.2,1.1,1.1,0,0,0,1.2,1.1c.2,0,17.5-1.1,40.3-.1l65.6,2.2a1,1,0,0,0,1.1-1.1C309.4,270.6,308.9,270.1,308.2,270Z" fill="#3f474e"></path><path d="M345.7,156.4a1.1,1.1,0,1,0-2.2.4c3.4,17.2-8.4,45.1-8.5,45.4a1.3,1.3,0,0,0,.6,1.5h.5a1.1,1.1,0,0,0,1-.7C337.6,201.9,349.3,174.3,345.7,156.4Z" fill="#3f474e"></path><path d="M228.2,276.6c-3.2-.4-55.7,12.4-66.2,14.9a1.2,1.2,0,0,0-.9,1.4,1.2,1.2,0,0,0,1.1.9h.3c24.9-6.1,62.8-15,65.4-15a1.1,1.1,0,1,0,.3-2.2Z" fill="#3f474e"></path><path d="M673.4,94.2a2.8,2.8,0,0,1,2.6,1.6,9.5,9.5,0,0,0,.6,1.8c.9,1.2,2.8.8,4.2.2l10-3.9c.9-.4,2.1-.8,2.9-.1a1.8,1.8,0,0,1,.4,2.1,5.1,5.1,0,0,1-1.4,1.8c-13.9,13-35.5,17.2-53.9,15.2-2.2-.2-4.5-.2-6.1-2s-2.7-1.4-.7-2.8c.1-.1,0-.6-.1-.8-7.9-7.7-5.1-19-.8-27.9a95.8,95.8,0,0,1,8.8-13.9c3-4.2,4.5-8.9,7-13.4,7-12.5,17-30.6,28-39.9,15.7-13.4,39.2-14.1,59.2-10a55.2,55.2,0,0,1,27.1,14.9c10.7,11,11.5,28.8,21.3,40.3,8.1,9.5,21.4,12.5,33.2,9.9a76.7,76.7,0,0,0,26.8-10.6,69.6,69.6,0,0,1,25.9-10.4c11.4-1.9,24.5,5.2,29.7,15.6,1.4,2.8,1.2,5.8,1,8.8s-2.2,2.2-4,2.1c-4-.2-8-1.3-12.1-1.4a25.4,25.4,0,0,0-11.3,2.2c-6,2.8-7.9,8.1-5.1,14.1,1.8,3.7,3.9,7.1,4.7,11.2,1.7,8.8-.8,15.8-7.5,21.4s-15.3,7.9-23.8,9.8c-6.3,1.4-13.4,2.7-19.9,2.5s-13.2-2.7-19.6-.4a23.8,23.8,0,0,1-4.5,1.5,12.6,12.6,0,0,1-5.4-1.3c-19.5-8.4-40-21.2-48.6-41.4-4.8-11.5-9.5-25.5-5.2-37.7.1-.4-.1-.9-.6-1.6-5.5-6.9-57.6-4.9-57.7-3.6-.6,6.3-3.1,11.8-5.5,17.5s.7,9,1.3,13.3a37.6,37.6,0,0,1-.9,15.3Z" fill="#fac2c4"></path><path d="M741.4,133c4.6-3.8,7.2-3.5,10.2,1.4,2.4-2.6,3.6-6,6.3-8.5-3-1.1-4.8-2.7-4.9-5.9,0-.8-1.4-1.6-2.1-2.4s.1-3.8-.9-4.9-3.5-.6-4.9-1.9-1.5-2.6-.4-3.8,4-3.9,7.4-3.6c10,1,20,1.8,29.9,3.5,5.3,1,10.8,1.5,15.3,5.3,1.3,1.2,2.6,2.3,2.3,4.2a4.4,4.4,0,0,1-3.3,3.8l-1.4.5c-1.7.7-4.7-1.4-5.1,1.9s-1.7,3.6-1.4,5.7-1.2,5.2-2.5,7.6a4.8,4.8,0,0,0-.4,4.4c1.1,3.2,1.2,6.8-1.5,9.3-7.3,6.6-13.6,14.3-21.3,20.5-3.4,2.6-6.8,5.4-11.4,5.2-1.1,0-2.3.2-2.9-.6s-4.8-.9-7-2.1-1.4.7-2,1.1a4.4,4.4,0,0,1-4.8.5,4.2,4.2,0,0,1-2.6-4.4,8.2,8.2,0,0,0-.6-4.1c-.5-1.1-1.6-2-2.9-1.4s-.4,1.7,0,2.5,1.3,3,.9,4.6a4.4,4.4,0,0,1-3.2,3.7,5.3,5.3,0,0,1-5.4-1.7,122,122,0,0,1-15.1-18.5,83.2,83.2,0,0,1-9.1-17.5c-.9-2.3-2.4-4.3-3.4-6.6-2.5-5.3-.5-8.4,5.3-8.3a5.7,5.7,0,0,0,5-2.4,26.2,26.2,0,0,1,9.2-6.9c2.9-1.4,5.5.7,7.1,3.4s2.4,3.8,5.7,3.1,4.3,2,5.3,4.4,1.5,3.5,4.4,2.8S739.4,128.4,741.4,133Z" fill="#ae3848"></path><path d="M733.5,326.1a82.1,82.1,0,0,1,1.8-17.1,14.4,14.4,0,0,1,1.7-4.5c1-1.8,2.8-2.6,4.5-1.2s1.9.5,2.6-.6c4.7-6.8,14.2-7.6,18.9-1,2.6,3.7,5.2,6.5,9.5,8,1.4.5,2.1.6,3.3-.3,3.8-3.2,8.4-4.1,12.5-1.4s7,1.7,10.7,1.5,8.4-1.9,12.7-1.5c1.3.1,1.6-.3,1.3-1.5a7.9,7.9,0,0,0-1.5-2.5,3.8,3.8,0,0,1,2.5-6.1c2.5-.3,4.1,1,5.2,2.9s1.7,3.7,2.6,5.6c4.1-2.9,6.5-1.9,7.5,2.9.4,1.8.7,3.7,1,5.6s.3,1.7,1.5,1.7c3.7.1,7.3,1.2,10.9,1.9,1.8.3,2.5.1,2.6-1.9a11.6,11.6,0,0,1,6.6-10,5.1,5.1,0,0,0,2.4-3.2,11.7,11.7,0,0,1,19-4.9c.8.6,1.2,1.6,2.2,1.8s.2-.9,0-1.4c-1.2-3.4-2.6-6.7-3.6-10.1s-.5-5.7,1.7-6.5,4,.2,5.6,3.6,3.4,7.6,5.2,11.4c8.2,17.5,17.4,34.5,25.4,52.2s11.2,38.1,9.8,58.4c-.4,5.3-.8,10.7-3.6,15.6a3.5,3.5,0,0,1-2.3,2.1c-16.9,4.5-34.6,9-52.2,9-.9-.8-2.1-1.3-2.8-2.4-3.3-5.2-6.8-10.1-9.8-15.4C843,406,838.5,394.6,834.3,383a3.9,3.9,0,0,0-2.5-3.2c1.2,3.7,1,7,1.2,10.3.9,13.7,1.9,27.3-.3,40.9-.3,1.8-.6,2.8-2.7,2.3-13.7-3.2-27.9-6.7-41.4-11.2a207.9,207.9,0,0,1-20.3-7.9c-6.1-2.7-11.9-4.9-15.1-11.2-10.5-21.6-16.7-45.5-19.3-69.3A64.5,64.5,0,0,1,733.5,326.1Z" fill="#464ac9"></path><path d="M579.7,121.3c9.6,1.2,18.6-2.3,27.8-4.2s17.2-4.3,26-5.6c4.6-.8,9.2-.7,13.2,2.8,11.2,9.8,21.1,20.6,25.6,35,1.4,4.5,3.1,6.7,7.9,7a6,6,0,0,1,5.8,5.5c.1,2.8-1.8,5-5.2,6.1s-5.5.7-8.3,1.1a125.6,125.6,0,0,1-35.7.6l-1.5-.2-26.6-.8a28,28,0,0,0-11,2.1A225.8,225.8,0,0,1,570,179a46.9,46.9,0,0,1-21.4,0,12.8,12.8,0,0,1-3.8-1.6c-3-1.9-6.9-1.2-8.5,1.9-.8,1.4-1.7,1.4-2.9,1s-4.3-1.3-5.6-3.6-3.1-2.3-5.2-2a3.7,3.7,0,0,1-3.3-1c-7.8-8-12.5-17.2-10.1-28.8.3-1.5-.4-2.2-1.5-2.9a3.8,3.8,0,0,1-1.9-3.5c.2-1.7,1.8-1.7,2.9-2,14.1-4,28.1-8.2,42.4-11.1C560.5,123.6,569.8,120.3,579.7,121.3Z" fill="#1b1e2c"></path><path d="M848,212.7a18.4,18.4,0,0,1-3.1,4.1c-2.3,2-4.5,1.8-6.4-.7s-1.8-4.8-1.7-7.4.1-2.7-2-3.2-4.4-4.1-4.3-7.1c0-9,.2-18,.7-26.9.3-4.9.2-9.8.2-14.7.1-7.8,0-15.6,0-23.4a6,6,0,0,0-1-3.9c-2.6-3.4-2.4-6.4.4-9.4,4.3-4.5,9.8-6.4,15.8-6.9a9.9,9.9,0,0,1,6.1,2.2c4.3,4.4,6.1,9,8.2,14.7,2.9,7.9,8.5,13.8,13.3,20.4,12.3,16.9,25.4,33.4,36,51.4a66.2,66.2,0,0,1,9.1,29.1c.2,2.7-.3,5.4-2.6,7.4s-2.4,1.7-3.5,1.2c-2.6-1.2-3.6.2-4.9,2.1s-4.8,5.7-6.7,9.1-6.2,4.3-10.4,3.1c-6.6-1.8-11.5-6.2-16.4-10.6a169.6,169.6,0,0,1-25.1-28.4C849.2,214.1,848.6,213.5,848,212.7Z" fill="#1b1e2c"></path><path d="M611.2,117.6,627,112a183.8,183.8,0,0,0,18.6-7.3c3-1.4,6.2-1.4,9.4-1.7s8.6-1.5,12.9-1.6,9.4,2.5,14.1,3.7c13,3.1,27.1-2.5,40.4-2.1l46.9,1.2c16.8.5,33.5,1.7,50.1,3.7,7,.9,35.2.9,35.3,12,0,3.6-2.1,6.4-5.6,7.8-1.6.6-1.5,1.6-1.4,2.8a274.5,274.5,0,0,1,2.9,51.2q-.1,8.7-.6,17.4c0,1.6.1,3.1,1.6,4.2a3.7,3.7,0,0,1,1.1,1.8c2.7,7,7.5,13,9.7,20.1,1.5,5.2,2.9,10.4,5.2,15.2,5.6,12,8.4,25,12.6,37.6,1.9,5.6,3.6,11.3,5,17.1a6.1,6.1,0,0,1-1.7,6.3c-8.4,7.8-16.9,15.1-28.3,18.8-18.4,6.1-37.2,8.5-56.4,8.3-7.7-.1-15.4.6-23.3-1.3-5.8-1.5-12.2-1.3-18.2-2.9a142.2,142.2,0,0,1-15.7-4.8c-10.2-3.9-15.6-12.2-19.7-21.7-2.9-6.5-2.7-13.3-3-20.1s.6-10.8-.5-16.1a34.7,34.7,0,0,0-5.7-13.4c-6.4-8.3-47.1-62.4-51.7-70.8-2.5-4.6-7.3-6.6-11-9.9-2-1.8-4.3-3.2-6.4-5s-42.2-29.1-42.9-30.4.4-2.4,1.6-3C606.5,127.1,610,118,611.2,117.6Zm134.2,50.5c11.7-.1,20.1-4.9,26.7-13.1a71.5,71.5,0,0,0,10.2-17.8c2.1-5.1,4.7-10.5,5.4-16.1a13.2,13.2,0,0,0-1.2-7.8,10.1,10.1,0,0,0-7.8-5.1c-7.3-1.3-18.8-2.6-26.3-1.6-3.8.4-3.4-1.6-7.2-1a4.7,4.7,0,0,0-4.4,4.1,4.2,4.2,0,0,0,2.6,4.9c1.3.5,1.4,1,.4,1.8s-4.5,4.5-4.7,8c0,.8-.9,1-1.5,1.3a8.4,8.4,0,0,0-4.2,4.5c-.7,1.6-1.4,2-2.8.7a5.4,5.4,0,0,0-4.6-1.7c-2.7.5-4.2-.9-5.6-2.9s-5.1-4-7.5-2.8-3.4.2-3.6-2.3a5.2,5.2,0,0,0-2.6-4.4c-3.6-1.9-5.4,1.2-7.8,2.7s-2.7,2.6-2.5,4.7a22.7,22.7,0,0,0,3.5,9.5,87.7,87.7,0,0,0,22.7,25.1C729.7,164,737.4,167.7,745.4,168.1Z" fill="#1b1e2c"></path><path d="M689.6,106.4a2.2,2.2,0,0,0,1.2-1.6c1.5-6.4,6-10.6,10.9-14.5,10.8-8.7,22.7-15.5,36.3-18.9l.5-.2c5-1,4.9-1,5.6,4,2.2,16.1,9,30.2,19.4,42.5,3.7,4.4,3.9,4.4,1.1,9.3-4.7,8.3-11.2,14.9-18.7,20.7-3.4,2.6-6.9.4-10.4.4s-4.2-1.7-6.1-3c-11.2-8.4-21.9-17.3-31-27.9-1.3-1.4-2.7-2.8-4.7-2.9s-1.8-1-2.3-1.9-.6-2.4-1.8-3Z" fill="#ae3848"></path><path d="M696.8,124.4c-.8,0-11.7,1.1-16.4-6.7a81.7,81.7,0,0,1-9.3-22.2c-3.5-14.7-2.8-28.9-1.2-43.9a56.2,56.2,0,0,1,11.2-29.1C691.5,9,708.7,6.8,722,12.9c19,8.7,26.8,33.6,24.8,49.1a70.7,70.7,0,0,1-4.3,15.7l1.6-.7c1.7-.9,3.4-1.3,5,0s1.6,3.2,1,5-.8,3.7-1.8,5.4c-4.8,8.1-10.1,15.8-18,21.2s-17.9,11.6-28.6,14C700,123,698.1,123,696.8,124.4Z" fill="#ae3848"></path><path d="M618.4,89.1a37.2,37.2,0,0,1,3.4-11.2c6.3-12.9,25.1-25.8,29.8-33.3,2.8-4.6,5.8-2.3,8.4-6.9s4.9-9.4,9-12.7,9.5-5.9,14.5-8.3c6.8-3.3,14-5.8,20-10.6,2.5-1.9,5.3-2.1,8.5-.8s5,1,6.6,3.4c.6.8,1.3.2,1.9,0a5.2,5.2,0,0,1,5.8,1.3c9.9,9.5,19.4,19.3,24.7,32.3a49.8,49.8,0,0,0,3.6,8.2c1.4,2.5.9,5.4.4,8.2a24.7,24.7,0,0,1-12.1,17.9c-3.9,2.4-9.2,1.6-12.9-2.1a15.9,15.9,0,0,1-5-12.7c.5-5.9-1.7-9.4-6.7-12.5a51.9,51.9,0,0,1-19.6-21.4c-1-1.9-2-1.3-3.3-.7a63.7,63.7,0,0,0-25.8,21.3,151.4,151.4,0,0,0-10,16.3c-1.5,2.8-3.3,5.4-5,8.1s-3.6,1.5-3.7-1a11.3,11.3,0,0,1,.9-3.5c1.2-3.3,1.5-7.5,0-10.8-7.7,6.2-14.8,11.8-20,20.7a9.4,9.4,0,0,0-1.4,7.3l.9,7.1a12.5,12.5,0,0,0,1.4,5c2.1,3.2,6.5,3.8,10.4,3.7,1.7,0,4,.5,4,2.2s-.9,1.8-1.8,2.4c-4.1,2.4-9.4,5.4-14.1,4.5s-8.6-5.9-11-10.1A18.2,18.2,0,0,1,618.4,89.1Z" fill="#fac2c4"></path><path d="M757.3,72.3c.1,3.8-2.6,5.9-3.8,8.7s-4.8,9-8.2,12.2-7.1.6-9.4-.8a7.8,7.8,0,0,1-2.8-8.4c2.1-6.4,5-12.2,10.8-16s8.6-1.9,12.6,2A2.9,2.9,0,0,1,757.3,72.3Z" fill="#ae3848"></path><path d="M862.7,229.8v-4.2c.2-.3.6-.6.7-.9,2.2-8,6.6-14.9,10.2-22.2a37,37,0,0,1,16.7-16.7,4.4,4.4,0,0,0,1.9-1.7c1.6-3.1,3.7-3.8,6.9-2,5.2,2.9,10.7,5.3,16.1,7.9s9.4,6.2,10.2,12.6a22.4,22.4,0,0,0,1,3.7,44.7,44.7,0,0,1,1.1,19.9c-1.1,6.1-4.8,10.8-8,15.9a26.1,26.1,0,0,1-16,11.3c-13,3.3-24.2-.6-32.7-11.3A84.3,84.3,0,0,1,862.7,229.8Z" fill="#1b1e2c"></path><path d="M898.6,226.2c-2.9-2.5-6.6-3.4-10.1-4.8l-8.5-3.7a11,11,0,0,1-6.5-8l-1.2-5.2c-.5-2.5.2-4.5,2.8-5.2s1.6-.7,1-2c-2-4.5-1.2-6,3.9-6.8-1.9-3.1-2.8-6.2,0-9.3,1-1-.3-1.3-.8-1.6s-2.7-2.2-2.1-4.1,2.2-2,3.8-2a15.3,15.3,0,0,0,3-.3c4.4-1,4.8-1.9,9.3-.5s11,1.7,14.5,2,4.5,1.1,5.4,3.5a91.3,91.3,0,0,0,4.3,8.9c2.6,4.7,3,9.8,3.3,15s-3.6,6.5-5.6,9.5-6.3,6.9-8.6,11c-1,1.7-3,2.2-4.3,3.6Z" fill="#ae3848"></path><path d="M522.6,89.5c1.1-2.4.6-4.1.6-5.7.1-3.9,0-7.8,1-11.6s1.8-4.7,4.7-4.5,3.6,2.4,3.8,4.7c.6,6.3,1,12.5,1.6,18.8,1.4,14.5,3.3,29,7.4,43.2.1.5-1.3-.3,1.1,1.4,0-5-.1-10.1,0-15.1s1.1-11.1,3.9-16.1a13,13,0,0,1,5.1-5.3c1.6-.8,3.2-1.1,4.7.2a3.6,3.6,0,0,1,1.1,4.6c-6.6,14.9-3.9,30.3-3.1,45.7.4,7,.4,13.9-1.2,20.8s-5.7,9.3-11.8,9.5-10.1,0-15.2.3-9.9-3.3-12.5-8.3a55.6,55.6,0,0,1-5.2-17.4c-1.5-9.8-4.5-19.1-6.8-28.7a48.7,48.7,0,0,1-.9-13.7c.1-2.6.8-5.1,4.3-4.9,1.8,0,.9-1.1.8-1.9a54.8,54.8,0,0,1-.9-12.8c.3-4.9,1.1-5.9,6-7.3,1.2-.4.8-1.4.8-2.2V71.8a22.3,22.3,0,0,1,.5-3.6c.4-2,1.5-3.6,3.7-3.5s3.3,1.6,3.6,3.4c.7,3.3.9,6.7,1.4,10.1S522,85.2,522.6,89.5Z" fill="#fc8d6a"></path><path d="M703.8,94.5c.5.2.8.6.9,1.5s-1.3,2.3-2.5,2.9a30.3,30.3,0,0,1-15.1,3.5c-1.5-.1-4.4-2.9-4.5-4.4s1.4-2.2,2.7-2.2c3-.1,6.2.1,9.3,0a21.2,21.2,0,0,0,5-.5C700.8,95.1,702.6,94.2,703.8,94.5Z" fill="#f5fafd"></path><path d="M681.7,49.6c3,.8,6.2,2.4,4.7,5s-2.3,1.2-3.8.9c-3.3-.7-6.5-1.6-9.9-1a2.1,2.1,0,0,1-2.6-1.3c-1.3-3,6.1-4.1,8.5-4A21.9,21.9,0,0,1,681.7,49.6Z" fill="#fac2c4"></path><path d="M708.8,50.3a27.1,27.1,0,0,1,12,2.3c1.4.6,2.7,1.5,2,3.1s-2.3,1.5-3.7,1c-4.1-1.2-7.9-.3-12,.1-2,.1-4.1.2-4.5-2.3s1.8-3.6,3.7-4Z" fill="#fac2c4"></path><path d="M713.2,64.9c-.3,1.7-.2,3.3-1,4.7a2.6,2.6,0,0,1-2.7,1.5,2.4,2.4,0,0,1-2.3-1.9,7.9,7.9,0,0,1,1.3-7.4,2.2,2.2,0,0,1,2.9-.8C713.2,61.8,713.1,63.5,713.2,64.9Z" fill="#1b1e2c"></path><path d="M681.9,63.3c-.2,1.3-.1,2.9-.9,4.3a2.4,2.4,0,0,1-2.3,1.5c-1.1-.1-1.6-.9-2-1.9a11.4,11.4,0,0,1,.1-4.5c.2-1.8.7-3.7,2.9-3.5S681.9,61.4,681.9,63.3Z" fill="#1b1e2c"></path><path d="M525.1,135.8a1.1,1.1,0,0,1-1.1-1.1,67.1,67.1,0,0,0-.7-6.8,224.5,224.5,0,0,1-2-28.2c0-17.5,2.6-28.1,2.7-28.5a1.1,1.1,0,0,1,1.4-.8,1.1,1.1,0,0,1,.8,1.4c0,.1-2.6,10.7-2.6,27.9a220.5,220.5,0,0,0,2,27.9,66,66,0,0,1,.6,7.1A1.1,1.1,0,0,1,525.1,135.8Z" fill="#cf4929"></path><path d="M705.1,8.9l-.4.3c-1.8,1.3-7.2,5.1-9.2,14.9a1.1,1.1,0,0,0,.9,1.3h.3a1.2,1.2,0,0,0,1.1-1c1.8-8.8,6.7-12.3,8.2-13.4l.6-.4a1.2,1.2,0,0,0-1.5-1.8Z" fill="#dd8e94"></path><path d="M719.7,20.7a1.1,1.1,0,0,0-1.6.2,1.2,1.2,0,0,0,.3,1.6c.1.1,13.3,9.4,14.1,22.6s0,19.6,0,19.7a1.2,1.2,0,0,0,1,1.3h.2a1.2,1.2,0,0,0,1.1-1c0-.3.9-6.2,0-20.1S720.3,21.1,719.7,20.7Z" fill="#dd8e94"></path><path d="M752.9,43.1a1.1,1.1,0,0,0-1.3,1c0,.1-1.6,13.9-10.6,20.8a1.1,1.1,0,0,0-.2,1.6,1.1,1.1,0,0,0,.9.5,1.1,1.1,0,0,0,.7-.3c9.8-7.5,11.4-21.8,11.5-22.4A1.1,1.1,0,0,0,752.9,43.1Z" fill="#dd8e94"></path><path d="M857,76.6a1.2,1.2,0,0,0-1.7.2c-.1.2-15.5,19.6-50.8,22.2s-41-48.7-41.1-49.2a1.1,1.1,0,0,0-2.2.2c0,.6,6.3,51.4,40.8,51.4h2.7c36.3-2.7,51.8-22.2,52.5-23.1A1.2,1.2,0,0,0,857,76.6Z" fill="#dd8e94"></path><path d="M804.9,93.1a44.1,44.1,0,0,0,10.3-1.2,1.2,1.2,0,1,0-.5-2.3c-23.5,5.5-31.3-9.1-31.6-9.7a1.2,1.2,0,0,0-2.1,1C781.1,81.1,787.5,93.1,804.9,93.1Z" fill="#dd8e94"></path><path d="M784.1,156.7a1.2,1.2,0,0,0-1.6.5c-16.4,29.2-43.4,23-44.2,22.8a1.1,1.1,0,0,0-1.4.6,1.1,1.1,0,0,0,.5,1.5,37,37,0,0,0,7.9.8c10,0,27.3-3.4,39.2-24.6A1.2,1.2,0,0,0,784.1,156.7Z" fill="#3f474e"></path><path d="M847.9,121.5a1.2,1.2,0,0,0-1.2,1.1c0,.6-1.7,55.8-4.3,73.5a1.3,1.3,0,0,0,1,1.3h.2a1.2,1.2,0,0,0,1.1-1c2.6-17.8,4.3-73.1,4.3-73.7A1.3,1.3,0,0,0,847.9,121.5Z" fill="#3f474e"></path><path d="M660.3,169.1l-7.1-9.8c-21.7-30.2-23.2-31.3-24.6-31a1.2,1.2,0,0,0-.9,1.4,1.2,1.2,0,0,0,.9.8c2.2,1.6,15,19.5,22.8,30.2,2.7,3.9,5.2,7.3,7,9.8,7.8,10.5,29,42.3,29.2,42.7a1.2,1.2,0,0,0,1,.5l.6-.2a1.1,1.1,0,0,0,.3-1.6C689.3,211.6,668,179.7,660.3,169.1Z" fill="#3f474e"></path><path d="M586.1,124.9a1.2,1.2,0,0,0-1.6.5,1.3,1.3,0,0,0,.6,1.6c6,2.9,22.2,11.1,25.2,14.3a1.2,1.2,0,0,0,.8.4.9.9,0,0,0,.8-.4,1.1,1.1,0,0,0,.1-1.6C608,135.6,587,125.3,586.1,124.9Z" fill="#3f474e"></path><path d="M598.2,128.5c2.7,1.4,9.8,5.3,11,6.5a1.3,1.3,0,0,0,.8.3,1.2,1.2,0,0,0,.9-.4,1.1,1.1,0,0,0-.1-1.6c-1.3-1.2-6.3-4-11.5-6.8l-1.4-.8-.6,1,1.1.3-2.2-.6C596,127.3,596.3,127.4,598.2,128.5Z" fill="#3f474e"></path><path d="M689.4,82.3c-1.8.3-5,0-5.7-.6h.1c1.9-2.9,5.8-14.2,6-14.7a1.1,1.1,0,0,0-.7-1.4,1.2,1.2,0,0,0-1.5.7c-1.1,3.2-4.2,12-5.7,14.1a2.3,2.3,0,0,0-.2,2.6c1,1.5,4,1.8,6,1.8h2a1.1,1.1,0,0,0,1-1.3A1.2,1.2,0,0,0,689.4,82.3Z" fill="#751443"></path><path d="M735.9,94.4a1.2,1.2,0,0,0-.9,1c-.4,1.2-6.5,12-18.5,20.4-10.2,7.1-15.4,7.2-18.6,7.2h-1.6a1.1,1.1,0,0,0-1,1.3,1,1,0,0,0,1.1,1H698a23,23,0,0,0,4.8-.4c2.2,2.2,14.5,15,19.3,18.7a1,1,0,0,0,.7.2,1.1,1.1,0,0,0,.9-.4,1.1,1.1,0,0,0-.2-1.6c-4.2-3.2-14.6-13.9-18.1-17.6a47.8,47.8,0,0,0,12.5-6.6c12.7-8.9,19.7-21.1,19.4-22.3A1.2,1.2,0,0,0,735.9,94.4Z" fill="#751443"></path><path d="M766.8,113a17.9,17.9,0,0,1-11.8-9.7,1.1,1.1,0,1,0-2.1.9,19.5,19.5,0,0,0,13.4,11h.2a1.2,1.2,0,0,0,1.2-.9A1.1,1.1,0,0,0,766.8,113Z" fill="#751443"></path><path d="M912.5,191.4a36,36,0,0,0-2.7-8c-2.7-6-12.6-6.7-18.2-6.5a.9.9,0,0,0-.3-1,1.1,1.1,0,0,0-1.6-.1,8.5,8.5,0,0,1-1.9,1.4h-.1l-.3.2a13.6,13.6,0,0,1-6.4,1.4,1.2,1.2,0,0,0-1.2,1,1.1,1.1,0,0,0,1,1.3h.8a14.8,14.8,0,0,0,7.1-1.8c2.6-.4,16.3-.9,19,5.1s2.4,6.7,2.5,7.4.8,1.5,1.3,1.5a1.2,1.2,0,0,0,1.2-1.2A1.9,1.9,0,0,0,912.5,191.4Z" fill="#751443"></path><path d="M900.1,192.7c-3.7-4.3-17.1-3-18.6-2.9a1.3,1.3,0,0,0-1.1,1.3,1.2,1.2,0,0,0,1.3,1c5.3-.5,14.5-.5,16.7,2.1a28.3,28.3,0,0,1,4.8,7.9,1.2,1.2,0,0,0,1.1.7h.4a1.1,1.1,0,0,0,.7-1.4A32.7,32.7,0,0,0,900.1,192.7Z" fill="#751443"></path><path d="M877.3,198.2a1.1,1.1,0,0,0-1.1,1.1,1.2,1.2,0,0,0,1.1,1.2c3.8.1,14.1,1.1,16.3,4.7s2.8,6.2,2.8,6.2a1.1,1.1,0,0,0,1.2,1.1,1.1,1.1,0,0,0,1.1-1.1c0-.4-.2-2.4-3.1-7.4S878.9,198.2,877.3,198.2Z" fill="#751443"></path><path d="M515.1,125.2a1.1,1.1,0,0,1-1.1-.9c-4.9-31.1-2.7-54.3-2.7-54.5a1.1,1.1,0,0,1,1.2-1,1.1,1.1,0,0,1,1.1,1.2c0,.2-2.2,23.1,2.6,53.9a1.1,1.1,0,0,1-.9,1.3Z" fill="#cf4929"></path><path d="M510.2,133.5a1.2,1.2,0,0,1-1.1-.9c-5.4-32-4.2-42.7-4.1-43.2a1.1,1.1,0,1,1,2.2.3c0,.1-1.1,11,4.1,42.5a1.1,1.1,0,0,1-.9,1.3Z" fill="#cf4929"></path><path d="M749.3,348.2v-1.9c1.2-.8,1-2.2,1.1-3.4a63.2,63.2,0,0,1,4.4-16.4,25.8,25.8,0,0,1,6.4-9.4c2.7-2.4,5-2.5,7.9-.5.7.5,1.2,1,2.2.4,3.5-2.2,7.4-1.5,11.1-.8,10.3,1.9,19.8,6.1,28.9,11.2l11.1,6.1h.7l-.3-.4c-3.3-5.7-6.1-11.5-7.2-18-.5-2.9,0-5.4,2.7-7s5.4-.5,7.5,2.1,5.6,7.9,4.9,13.2a42.8,42.8,0,0,0,0,6.2c0,6.1,3,10.3,8.3,13.2,14.9,8.2,28.5,18.4,42.7,27.7,3.5,2.3,4.4,5.8,3.1,9.8a5.4,5.4,0,0,0-.5,2.1c0,5.9-2.7,10.7-5.6,15.5-4.9,8-11.7,14.2-17.8,21.1a12,12,0,0,1-7.7,3.9c-2.9.3-5.3,1.6-7.9,2.9-13.2,6.4-27.2,7.8-41.5,5.3s-25.3-10.8-34.2-22.1a92.1,92.1,0,0,1-19.8-47.1C749.6,357.3,750.4,352.7,749.3,348.2Zm43.1-14.3a3.4,3.4,0,0,0,2.5,3.2,21.8,21.8,0,0,1,10.4,8.5c2,3.2,4.3,2.3,6.8,1.5s1.3-1.2.2-1.8C805.9,341.4,799.6,337.5,792.4,333.9Zm-20.2-7.1c-1.1-.7-1.4-2.2-2.8-1.4a1.7,1.7,0,0,0-.5,1.6C769.8,328.2,770.8,327.1,772.2,326.8Z" fill="#f47750"></path><path d="M828.4,595.1c1.8-4.3,3.9-8.4,8.7-10.4,1.2-.5,1.6-1.9,2.2-3,3.7-6.1,7.7-12,14-15.9.9-.5,1.6-1.7,2.7-.8s-.1,2-.7,3l-9,14.4c-.6,1-1.4,1.9.3,2.8,6.7,3.4,7.9,10.3,5.6,16.8-3.5,10.2-6.6,20.5-9.9,30.8-2.6,8.1-2.6,16.4-3.5,24.7a106.2,106.2,0,0,1-4.9,23.7c-1.6,4.7-4.7,8.1-9.8,8.9s-12.4-3-13.1-9.6-3.5-12.9-4-19.6a2.9,2.9,0,0,0-1-2.2c-4.7-4.1-5.3-9.7-5.7-15.3a10.3,10.3,0,0,0-2-6c-3.2-4.2-3.8-9.3-4.8-14.3s-2-10.4-2.6-15.6c-1-7.9-4.4-15.1-7.2-22.4-10.2-27.1-19.8-54.5-27.2-82.5-1.3-5-2.5-10.1-2.4-15.3s2-7.7,6.5-9.2c2.1-.7,1.4-1.8,1.1-3-3-11.7-6-23.3-8.9-34.9a41.9,41.9,0,0,1-1.7-11.7c.1-5.2,3-9.6,7.4-10.6s9.5.8,12.1,5.8,5.4,12.1,7.8,18.2c8.3,21.6,13.2,44.2,19.4,66.5q8.4,30.1,15.3,60.8c.5,2.1,1.3,3,3.5,3.3,5.6.8,9.6,5.2,10.5,10.8.6,4,.2,7.9,0,11.8-.2.9-.5,1.9.2,2.7A3.5,3.5,0,0,0,828.4,595.1Z" fill="#fbaa1a"></path><path d="M816.2,737.4V723.1c1.2-7.2.7-14.5,1.3-21.7,1.9-22.7,3.4-45.5,6.4-68.1,1.6-12.9,3-25.7,6.2-38.3.6-2.5,14.1-8,14.5-5.1.1,1.3,39.7,8.7,42.7,8.1s5.8.8,7.5,4.2,24.4,6.4,27.9,7.2S973,620.1,975.1,622s4.3,5.5,6,8.6c9.6,18.5,18.5,37.3,27.5,56.1,7.5,16,53.4,95.6,60.3,111.9,1,2.3,54.9,111.4,55.3,113.8s-7.4,14-10,14.5c-13,2.5-41.6,5-54.8,6.7a285,285,0,0,1-43.3,2.3c-2.9-.1-75.2-181.5-77.1-183.9s-5.6-5.3-7.8-8.4c-5.1-7-9.8-14.3-14.2-21.7l-1.9-3.1c-1,8.9-5.9,196.5-6.7,204.5-.4,4.1-1.4,17-5.8,17.1-7.6.3-77.8-7.6-85.3-9-21.2-4.2,24.4-182,4.6-190.9A18.6,18.6,0,0,1,816.2,737.4Z" fill="#1b1e2c"></path><path d="M903.5,685.9a1.1,1.1,0,0,1-1.1-1.1,1,1,0,0,1,1-1.2,377.1,377.1,0,0,0,64.9-10.9,1.1,1.1,0,1,1,.6,2.2,376.2,376.2,0,0,1-65.3,11Z" fill="#3f474e"></path><path d="M511.5,110.3A136.2,136.2,0,0,0,513,89.4c.1-8.3.6-16.5,1-24.8.1-3.4.6-6.8.9-10.2a24.5,24.5,0,0,1,.8-3.9,2.7,2.7,0,0,1,2.5-2,2.8,2.8,0,0,1,2.7,1.8,8.8,8.8,0,0,1,.8,4.5V81.2a18.8,18.8,0,0,0,.2,3.4c1.3-8.2,2.4-16.5,4.2-24.6,1.1-5.1,2.4-10.1,3.7-15.1A17.8,17.8,0,0,1,531,42c.8-1.5,1.9-2.8,3.9-2.3s2.7,2.1,2.4,4c-1.1,6.7-2.3,13.3-3.4,19.9a147.7,147.7,0,0,0-1.7,21.1l.7-2.5c2.3-8.6,4.8-17.2,7.6-25.6.6-1.8,1.6-3.4,3.8-3s2.9,2.1,2.8,4.2a10.6,10.6,0,0,1-.2,2.5c-.6,3.2-1.2,6.5-1.9,9.7-.4,1.6-.8,2.6,1.6,2.9s2.8,2.7,2.5,4.8c-.9,5.2-1.8,10.4-2.8,15.6a113.1,113.1,0,0,0-1.2,36.7c.6,4.8.9,9.7,1.2,14.6a8.5,8.5,0,0,0,2.2,5c9.2,12.2,19.1,23.9,29.5,35.2,13.3,14.3,25.7,29.2,35.6,46.1,1.4,2.5,2.3,5.1,3.4,7.6s.6,2.1-.4,2.9a1.8,1.8,0,0,1-2.5-.4c-1.1-1.2-1.7-.7-2.6.3-4.8,5.1-10.5,5.9-16.8,3.5-1.7-.7-3.4-1.4-5.4-1s-2.1-.5-3-1.2c-15-9.7-26.2-23.1-37.2-36.8-9.6-12-18.8-24.5-26.5-37.9-3.4-6-5.4-12.5-7.7-18.9-6.3-17.1-12.9-34.1-21.9-50.1a5.7,5.7,0,0,1,1.3-7.5c1.8-1.3,4.4-.9,6.6,1.5,3.8,3.9,6.1,8.8,8.3,13.7C509.7,107.8,510,109.2,511.5,110.3Z" fill="#f47750"></path><path d="M1102.7,600.9c-2.7-.6-14.2-2.3-17.7-1.5,2.8,3.7,11.5,14.5,14.8,17.3a9.6,9.6,0,0,1,3.7,6.3c.2,2.1-.3,3.1-3,2.5-13-2.8-23.1-10.8-33.3-18.5-6.2-4.8-12.4-9.8-16.6-16.6s-5.8-12.1-8.5-18.2c-9.4-21.2-18.5-42.4-27.1-63.9-1.4-3.6-1.3-3.7,2.4-4.5,8.5-1.9,17-3.8,25.7-3.9,1.1-.1,2,0,2.3-1.5s1.3-2.2,2.9-2.3a3.2,3.2,0,0,1,3.2,2.4c1.1,3.2,2.2,6.5,3.1,9.7,6.3,21.4,13.1,42.5,22.2,62.9a17.1,17.1,0,0,0,10.9,9.7c3.9,1.4,8,2.3,11.9,3.6,5.5,1.8,11.3,2.2,17.1,2.5s10.1,3.2,11.4,10.1a117.3,117.3,0,0,0,4.2,16.5,8,8,0,0,1-.1,5.5,4,4,0,0,1-6.5,1.3,5.7,5.7,0,0,0-4-1.8,3.9,3.9,0,0,1-2.5-1.2C1115.5,613.1,1106.4,601.8,1102.7,600.9Zm3.2,4.2-.2.2.2.2c0-.1.1-.1.1-.2S1105.9,605.2,1105.9,605.1Z" fill="#f47750"></path><path d="M745.4,392.4c-1.3-12.1.4-23.6,2.1-35a331.9,331.9,0,0,1,7.9-38.2c.9-3.3,3.1-5,5.7-6.6a2.7,2.7,0,0,1,3.7.3c1.2,1.2.9,2.6,0,3.9s-1.5,1.1-1,2.1,1.8.6,2.7.7a61.5,61.5,0,0,1,9.7,1.8c5.4,1.6,7.8,7.4,5.9,13.2a37.2,37.2,0,0,1-3.9,7.4c-1,1.6-1.3,2.9-.1,4.5s1.8,4-.1,5.9a2.2,2.2,0,0,0-.6,2c.1,7.7,1.4,15.1,5.6,21.7a28.2,28.2,0,0,0,16.3,12.6c8.6,2.7,17.3,3,26.1,2.2s17.9-6.1,25.4-12.2,14.5-11.1,23.3-14.1c4.6-1.5,5.2-1.1,7.8,3.2.4.6,1.1.9,1.6,1.4,7.4,6.5,14.6,13.3,19.6,21.9a42.9,42.9,0,0,1,5.4,16.4c.8,5.6,2.8,11,4.8,16.4,14.7,39.8,27,80.6,42.6,120.2,8.1,20.6,11.7,42.2,12.9,64.3.3,5.8.3,11.6,1.4,17.3.5,2.3-1.6,5.6-4,6.6-11.8,5.1-24.2,8.3-36.7,11.6-16.5,4.4-63.3,2.3-67.6,1.5a114.5,114.5,0,0,1-35.6-12.1,5,5,0,0,1-3.3-4.4c-.7-12.1-5.9-23-10.1-34.1-2.3-6.1-6.4-11.3-9.7-17-20.5-35.4-37.3-72.5-47.9-112.1a298.6,298.6,0,0,1-9.9-70.9Z" fill="#f5fafd"></path><path d="M761.1,316.5c1.9-2.1,4.5-3.2,5.5-6.3s4.4-2.6,6.6-.5,2.8,3.6,4,5.5.6,1.9,1.6,1.5,2.1-.8,2.2-1.9c.5-3.4,2.8-4.9,5.6-6.1,11.5-4.9,22.9-10.2,34.7-14.6,2.9-1.1,5.8-2.2,9-1.9s2-1.1,2.5-2.2c2.6-5.5,5.5-10.9,9.6-15.5,1.1-1.2,2.3-2.4,4.2-2.3a3.9,3.9,0,0,1,2.4.6,4.9,4.9,0,0,1,1.8,2.8c1.1,3.9,5.2,7.2,1.4,11.9l-7.6,9.8c-3.5,4.7-7.8,9.1-8.8,15.1a86.4,86.4,0,0,0,.9,33.6c.5,2.2.7,4.5,1.7,6.6,2.3,5.2-.3,9-3.4,12.6a29,29,0,0,1-12.1,7.9L809.5,378c-10.4,3.7-20.4-1.3-27.6-10.7-4.8-6.2-4.3-12.9-5.7-19.5-2.3-10.9-6.8-20.6-14.5-28.7l-.6-.2Z" fill="#f47750"></path><path d="M846.2,497c-8.2-16.2-13.9-33.4-13.8-51.9.2-34.3,11.2-51.3,10.2-85.6-.1-5.1-7.3-14.5-7.5-19.6-.2-2.7-3.7-16.3-1.6-17.3s3.3.2,4.4,1.6a189.3,189.3,0,0,0,17,17.7c9.5,8.9,20.5,15.7,31.8,22.1,4.5,2.6,9.5,4.7,13.8,7.5A27.6,27.6,0,0,1,912,384.9c6.6,17,12.9,34.3,18.6,51.6s9.6,35,19.8,50.2c11.2,16.9,21.5,34.5,32.6,51.5a380.8,380.8,0,0,0,48.5,58.9,214,214,0,0,1,33.6,44.9c2,3.6,4.3,7.9,3.4,12.1a13.4,13.4,0,0,1-4,6.5c-6.7,6.9-14.1,12.5-21.9,18-10.1,7-20.6,13.6-31.3,19.7l-6.8,3.9a98.4,98.4,0,0,1-17.9,7.9c-2.2.7-3.3.2-4.4-1.9-5.4-11.3-10.8-22.6-16.6-33.7-14.6-28-32.6-53.8-51.2-79.2l-36.3-49.7C866.9,530.4,855.1,514.3,846.2,497Z" fill="#fbaa1a"></path><path d="M712.1,407.2c0-2.1-.8-3.7-1.3-5.4-1-3.4-.3-4.3,3.5-4a54.6,54.6,0,0,0-3.4-11.3c-4.3-11.5-7.3-23.2-7.9-35.6-.4-8.6.8-17.1,1.6-25.7.5-5.3,2.4-10.3,3.2-15.5s7.1-10.1,13.7-8.6a110.4,110.4,0,0,0,15.2,3c6.5.8,13,1.5,19.4,2.4,3.4.5,6.7,1.5,10,2.3s3.5,2.3,4.5,4.3c2,4,2,8.3,1.4,12.5s6-2.7,3.9,1.6c-2.9,6-10,24.3-10.2,30.6-1.9,64.3,6.1,127.3,23.1,189.2,10.6,38.8,23.9,76.7,40.9,113.2a412.4,412.4,0,0,0,28.6,51.6c2.1,3.2,3.5,6.7,5.4,10.1.5,1,.6,1.4-.7,1.9-5.7,2.1-11.1,3.4-17.5,1.8A160.8,160.8,0,0,1,803.9,709c-4.1-2.4-5.5-6.3-7.3-10.1-10.6-21.6-20.4-43.6-28.1-66.5-18.5-55.2-33.6-111.3-43.6-168.8q-1.8-10.7-3.9-21.3c-2.2-10.9-7-20.8-12.4-30.4l-.7-1.3c-.8-1.5-1.9-3.1-.4-4.6S710.3,406.5,712.1,407.2Z" fill="#fbaa1a"></path><path d="M721.9,429c-9.3-7.4-16.4-16.9-24.4-25.5-12.4-13.3-24.7-26.5-36.8-40-18.4-20.2-36.5-40.7-54.1-61.5a379,379,0,0,1-35.3-48.4c-4.1-6.7-8.4-13.5-9.7-21.3-1-5.7-2.5-11.5-1.9-17.4.9-8.6,9.4-17.3,18-19.2,5.5-1.2,11.1-1.5,16.6-2a3.9,3.9,0,0,1,3.9,1.9,326.4,326.4,0,0,0,50.3,56,500.7,500.7,0,0,0,58.6,44c5.5,3.6,11.6,5.9,17.6,8.4s13.8,7.1,20.5,11c2.2,1.3,3.1,3.4,2.1,5.6s.1,8.8-6.4,7.6h-.6c-.4.6.2.9.5,1.1,3.7,2,5.4,4.8,3.6,9-.6,1.4.6,1.8,1.3,2.5,10.1,8.7,11.9,15.3,8,27.1-2.2,6.6-5.5,12.7-8.9,18.7a22.6,22.6,0,0,0-2.6,13.2,34.1,34.1,0,0,1-3.3,19.6c-2.8,5.6-8.5,7.9-14.3,5.5-1.2-.5-2.4-1.4-3.8-.6s1.6,2.4,1.8,3.8Z" fill="#fbaa1a"></path><path d="M992.8,508.7l-3.1-.8c-23.8-6.8-47.2-14.6-69.4-25.4-8.5-4.1-16.2-9.9-24.2-15a9.5,9.5,0,0,1-2-2.4,42.4,42.4,0,0,0-5.9-7.5A15.2,15.2,0,0,1,884,449c-1.4-10.1-3.6-20.1-2.4-30.5a101.2,101.2,0,0,1,12.7-39c3.3-5.7,4.8-6.1,10-2a352.6,352.6,0,0,0,34.8,23.4c28,16.8,56.1,33.7,84.2,50.4,4.3,2.6,7.9,6,11.8,9.1,1.6,1.3,2.3,2.9.6,5.1-8.4,11.1-16.9,22.2-27.2,31.7A136.7,136.7,0,0,1,996,507.5,3.9,3.9,0,0,1,992.8,508.7Z" fill="#fbaa1a"></path><path d="M999.9,499.7c1.6-3.8,3.6-6,6.8-6.9,1.2-.4,1.3-1.1,1.2-2.2s-.2-4.5,0-6.8a10.1,10.1,0,0,1,6.7-8.9c.9-.3,2-.3,2.2-1.7,1.9-9.5,2.6-10,11.6-10.9-.3-1.9-1.6-3.4-2.3-5.1.3-.1.7-.3.9-.2,5.4,3,10.9,5.5,14.1,11.7a535.2,535.2,0,0,1,24.8,54.5c2.4,6.3.9,11.8-4.4,16.1a37.5,37.5,0,0,1-3.6,2.4c-10.6,5.8-20.9,12-31.1,18.4-2.4,1.5-3.8,1.7-5.4-1.2-10.7-18.7-21.9-37.1-30.8-56.7-4-8.9-9.8-16.8-13.9-25.7a17.7,17.7,0,0,1-1.5-3.1c-.6-1.8-.6-3.7,1.2-5a4.2,4.2,0,0,1,5.2.1,16.4,16.4,0,0,1,4.1,4.6,186.3,186.3,0,0,1,12.2,22.4Z" fill="#fbaa1a"></path><path d="M1024.4,590.6c-3.7.5-4.9-2.4-5.7-4.7a119.1,119.1,0,0,0-8.8-20.8c-1.4-2.7-.9-5.6,1.4-8a71.6,71.6,0,0,1,17.2-12.7,148.5,148.5,0,0,1,39.3-15c2.1-.5,3.8.1,4.7,1.9,4.4,8.2,7.4,16.9,10.4,25.6a4.3,4.3,0,0,1-2.7,5.3c-18.4,7.1-35,17.7-52.1,27.4A6.3,6.3,0,0,1,1024.4,590.6Z" fill="#fbaa1a"></path><path d="M597.3,204.8a6.3,6.3,0,0,1-4.4-.9c-2.1-1.1-4.6-.5-7-.5s-2.8.2-4-1-.8-.9-1.6-.6-3.9-.1-5.5-2c-1.3,2.5-2.5,4.8-3.8,7s-2.4,4.9-5.6,5.4c-1.2.2-.7,1.2-.6,2,.9,6.1,1.1,12.3,2.9,18.1.8,2.5,0,7,4.6,7.8,1.1.3,2.8,1.6,2.1,3.3s-2.3,1.6-3.8,1.6a6.9,6.9,0,0,1-6.4-3.5c-5.1-7.9-9.8-16-14.6-24.1-1.9-3.4-2.6-6.3-1.2-10.2,3.1-9,6.7-17.7,13.9-24.5a48.2,48.2,0,0,1,22.1-11.9c3-.7,4.5,1.5,6.2,3.2,3.2,3.3,6.3,6.8,9.3,10.4,5,5.7,10,11.3,14.5,17.4a4.4,4.4,0,0,1,.6,5.1,27.3,27.3,0,0,1-10.8,12.5c-.8.4-1.7,1.1-2.6.4s-.2-1.6.3-2.5-.6-3.8-1.5-4.5c-2.9-2-2.9-4.5-2.4-7.3C598.4,204.6,598.1,204.4,597.3,204.8Z" fill="#fbaa1a"></path><path d="M748.3,332.7H743c-4.5-.2-6.9-3.4-6.4-8a15.2,15.2,0,0,0-.5-7.3c-1.8-4.8-.3-7.5,4.5-9.2s7.8-3.5,11.5-5.4c.8-.3,1.6-.8,1.3-1.8s-1.3-.8-2.1-.8c-4.2-.2-8.4-.1-12.6-1.1s-3.6-2.1-2.4-4.6,1.1-2,1.6-3c2.4-4.2,2.4-4.2-1.3-7.3a11.3,11.3,0,0,0-1.8-1.2c-3.4-2.6-3.8-5.2-1.1-8.5a59.6,59.6,0,0,1,6-6.3c7.1-6,12.8-12.9,15.7-21.9,1-3.1,2.7-6,4-9.1,4.7-11.4,14.5-17.1,24.9-22.1a44.5,44.5,0,0,1,28.1-3.2c11.5,2.1,21.3,7.3,30.2,14.6,1.4,1.2,2.5,2.5,4.6,2.2s1.6.9,2.2,1.6l7.4,9.9c3,4.1,3.9,8.8,3.9,13.8-.1,9.1-1.2,17.9-4.4,26.5a37.2,37.2,0,0,1-16.7,20.1,4.3,4.3,0,0,0-2.1,2.1c-5,10-11.1,19.1-20.3,25.8-2.7,2-5.4,1-6.1-2.2s-.9-7.5.7-11.2a74.9,74.9,0,0,0,2.5-7.6c.7-2-.9-1.6-1.7-1.5-7.3.5-14.2,2-18.7,8.5a8.3,8.3,0,0,1-1.1,1.5c-1,1.2-2.9,2.1-2.8,3.5s2.4,1.2,3.6,1.9,2,3-.2,4.3c-4.7,2.7-9.9,3.5-15.1,4.3A301.1,301.1,0,0,1,748.3,332.7Z" fill="#f47750"></path><path d="M865.3,258.8c-.1,3.5.1,7.2-1.1,10.5a11.4,11.4,0,0,0,1.1,10.2c1.6,2.7.4,4.4-1.7,5.4-5.8,2.8-10.2,7.1-14.7,11.7a52.6,52.6,0,0,0-11.1,16.6,19,19,0,0,0-1.5,9.1,3.3,3.3,0,0,1-1.4,3.3c-1.2.7-2-.5-2.9-1.1a25.1,25.1,0,0,1-6.8-6.6c-9-12.1-19.9-22.3-31.7-31.4a9.6,9.6,0,0,0-5-2.3c-3.8-.5-6-3.1-5.6-6.8.6-5.5,1.5-10.9,2.3-16.3.3-2.3.4-4.5-.7-6.6a11.2,11.2,0,0,1-1.2-3.5,29.5,29.5,0,0,0-11.6-17.8c-8.2-6.1-8-9.4.4-15s17.8-7.8,27.6-8.7l9.6-.5a52,52,0,0,1,30.9,7.6C855.9,226.1,865.4,239.7,865.3,258.8Z" fill="#3f474e"></path><path d="M760,223.6a5,5,0,0,1-.5-1.3c-.7-3.4,3.1-6.1,5.1-8.2a41.6,41.6,0,0,1,7.4-6.5,61.6,61.6,0,0,1,17.8-8.3c7.9-2.3,15.8-2.4,23.5.7a8.4,8.4,0,0,0,5.4.5,49.6,49.6,0,0,1,34.8,5.6c9.8,5.4,12.9,15.4,14.3,25.5.7,5.2.5,10.4,2.8,15.3,5,10.4,6.4,21,0,31.5-1,1.5-1.9,2.9-3.7,3.6s-5.7,2.2-8.4,3.6a4.6,4.6,0,0,1-4.1.4,47.2,47.2,0,0,1-17.9-10.9,86.3,86.3,0,0,1-15.6-21.5,12.5,12.5,0,0,0-5.4-5.5c-14-6.7-28.4-12.5-43.7-15.6a12.7,12.7,0,0,1-5.4-2.8C764.3,228.2,761.2,226.2,760,223.6Z" fill="#f5fafd"></path><path d="M802.7,270.1c5.7,0,8.5,4.4,6.6,10.7s-10.4,13-16.2,13.6a5.2,5.2,0,0,1-4.7-1.7c-.2-.1-.3-.4-.4-.5-4.7-2-2.6-5.2-1.5-8.2,2.1-5.5,5.5-10.1,11.1-12.7A9.9,9.9,0,0,1,802.7,270.1Z" fill="#f47750"></path><path d="M760.2,264.9a7.4,7.4,0,0,1,1.3-7.6,2.5,2.5,0,0,1,2.7-.8c1.7.8,1.6,3.2,1.2,4.9s-1.4,4.9-3.1,5.3S760.6,265.7,760.2,264.9Z" fill="#5d3434"></path><path d="M764.9,245.7c3.1-.1,9,3.2,9.8,5.1s.6,2.7-.7,3.7a3.5,3.5,0,0,1-4,.1,20.3,20.3,0,0,0-7.3-2c-1.8-.2-3.7-.6-4-2.4s1.2-2.9,2.9-3.6A24.4,24.4,0,0,1,764.9,245.7Z" fill="#3f474e"></path><path d="M769.6,225.2a1.2,1.2,0,0,1-.9-.5,1.1,1.1,0,0,1,.2-1.6c.3-.2,33.3-26,72.5-3.8a1.1,1.1,0,0,1,.4,1.5,1.1,1.1,0,0,1-1.5.5c-37.9-21.4-69.7,3.4-70,3.6A1.1,1.1,0,0,1,769.6,225.2Z" fill="#b6c5e5"></path><path d="M836.2,259.2a1.2,1.2,0,0,1-1-.7,59,59,0,0,0-35.9-30.3c-14.8-4.6-27.4-2.9-28.9-2.3a.9.9,0,0,1-1.3.2,1,1,0,0,1-.5-1.5c.7-1.6,7.1-1.8,9.7-1.8,9.8-.1,42.7,2.3,58.9,34.7a1,1,0,0,1-.5,1.5Z" fill="#b6c5e5"></path><path d="M849,273.9h-.1a1.2,1.2,0,0,1-1.1-1.2c1.3-15-9.7-31.5-11.8-33a1.2,1.2,0,0,1-.9-.8,1.2,1.2,0,0,1,.8-1.5,1.6,1.6,0,0,1,1.5.5c2.9,2.3,14,19.3,12.7,35A1,1,0,0,1,849,273.9Z" fill="#b6c5e5"></path><path d="M884.5,400.2c.6-11,17.4-22.8,17.6-22.9a1.1,1.1,0,0,0,.3-1.6,1.2,1.2,0,0,0-1.6-.3c-.7.6-17.9,12.6-18.6,24.7s1.4,71.2,11.2,92.7a1.1,1.1,0,0,0,1.1.7h.4a1.1,1.1,0,0,0,.6-1.5C885.8,470.7,883.8,411.7,884.5,400.2Z" fill="#f47750"></path><path d="M959.3,497.2c-.4-.1-41-13.9-50.7-16.7s-12.9-10.2-14.1-12.6a1.1,1.1,0,0,0-1.5-.4,1.1,1.1,0,0,0-.5,1.5c1.2,2.6,6.1,11,15.5,13.7s50.2,16.5,50.6,16.7h.4a1.4,1.4,0,0,0,1.1-.7A1.2,1.2,0,0,0,959.3,497.2Z" fill="#f47750"></path><path d="M1005.7,466.2a1.2,1.2,0,0,0-.6-1.5,1.2,1.2,0,0,0-1.5.5c-11.4,23.5-8.8,41.7-8.7,42.5a1.2,1.2,0,0,0,1.1.9h.2a1.2,1.2,0,0,0,1-1.3C997.1,507.1,994.6,489.1,1005.7,466.2Z" fill="#f47750"></path><path d="M1032.4,489.7c-16.7-1.7-32.4,8.6-33.1,9a1.1,1.1,0,0,0-.3,1.6,1.2,1.2,0,0,0,.9.5l.7-.2c.1-.1,15.7-10.3,31.6-8.6a1.1,1.1,0,0,0,1.2-1A1.2,1.2,0,0,0,1032.4,489.7Z" fill="#f47750"></path><path d="M707.7,315.4c-.1-4.7.9-7.6,2.8-8.6l.3-.2a1.1,1.1,0,0,0,.3-1.5,1.2,1.2,0,0,0-1.7-.3c-1,.5-4.2,2.2-4,10.6s3.8,68.3,6.4,81.4,4,32.1,4,32.3a1.3,1.3,0,0,0,1.2,1.1h.1a1.1,1.1,0,0,0,1-1.2c0-.2-1.6-19.5-4.1-32.6S707.9,324.6,707.7,315.4Z" fill="#f47750"></path><path d="M641,275.4a1.1,1.1,0,0,0-1.6.2,1.2,1.2,0,0,0,0,1.5c1.8,2.3,41.3,68,50.5,94.4a1.2,1.2,0,0,0,1.1.7h.4a1.2,1.2,0,0,0,.7-1.5C682.9,344.2,642.5,276.5,641,275.4Z" fill="#f47750"></path><path d="M660.9,334.8l-5.7-5.8a1.2,1.2,0,0,0-1.8,1.5l5.8,5.9,11.5,11.7a.9.9,0,0,0,.8.4,1.1,1.1,0,0,0,.8-.3,1.1,1.1,0,0,0,.1-1.6C670.3,344.3,665.1,339,660.9,334.8Z" fill="#f47750"></path><path d="M607.5,212.1c-16.5,7.6-27.6,27.8-27.6,28a1,1,0,0,0,.5,1.4h.5a1.3,1.3,0,0,0,1.1-.6c.1-.2,11-19.7,26.5-26.8a1.1,1.1,0,0,0,.5-1.5A1.1,1.1,0,0,0,607.5,212.1Z" fill="#f47750"></path><path d="M913.8,717.6a1.1,1.1,0,0,1-1.1-.6c0-.1-4.1-8.5-6.6-12.4-.9-1.5-3.1-3-5.5-4.7s-7.3-5.2-9.5-9.1c-3.8-6.4-20.1-40.7-20.7-42.2a1.1,1.1,0,0,1,.5-1.5,1.1,1.1,0,0,1,1.5.6c.2.3,17,35.6,20.7,42,2,3.4,5.6,6,8.9,8.3s4.8,3.5,6.1,5.4c2.5,3.9,6.5,12.2,6.7,12.6a1.1,1.1,0,0,1-.5,1.5Z" fill="#3f474e"></path><path d="M891.4,687.4a1.1,1.1,0,0,1-.8-.3,1.1,1.1,0,0,1-.1-1.6c2-2.2,6.9-8.6,6.4-11.9s-7.5-19.3-10.2-25a1.2,1.2,0,0,1,.6-1.5,1.1,1.1,0,0,1,1.5.6c.4.8,9.7,20.8,10.4,25.6s-6.2,12.8-7,13.7A.9.9,0,0,1,891.4,687.4Z" fill="#3f474e"></path><path d="M891.5,690.4l-.7-.2-16.2-14.1-15.7-13.7-.5-.3a1.3,1.3,0,0,1-.1-1.7c.9-.9.9-.9,6.7,4.2l11.1,9.7,16.1,14.1a1.1,1.1,0,0,1,.2,1.6A1,1,0,0,1,891.5,690.4Z" fill="#3f474e"></path><path d="M877.2,693.5a1.2,1.2,0,0,1-1.1-.7,1.2,1.2,0,0,1,.7-1.5h.3c5.6-2.2,9.4-2.6,11.4-1.1a1.1,1.1,0,1,1-1.4,1.8c-.6-.4-2.7-1.1-9.2,1.4l-.3.2Z" fill="#3f474e"></path><path d="M928.7,694.8a1.2,1.2,0,0,1-.3-2.3c1.1-.4,15.1-1,21.1-1.2a1,1,0,0,1,1.2,1,1,1,0,0,1-1.1,1.2c-7.3.4-19.4,1-20.5,1.2Z" fill="#3f474e"></path><path d="M245.2,647.8c1.2-.8,1-2.2,1.2-3.5.8-5.7,4.4-7.8,9.7-5.7s6.4,2.5,5.7-4.1c-1.4-13.7.7-27.2,2.9-40.6,3-18.4,8.1-36.3,13.5-54.1,1.5-5.1,2.5-10.5,5-15.3s7.9-6.9,12.4-5.7,7.4-1.4,8.8-4.5c4.8-11.2,10.1-22.1,17.2-32.1a53.5,53.5,0,0,1,5.8-6.8,17.1,17.1,0,0,1,11-4.7c2.2-.1,3-.5,3.3-2.9.5-4.5,2.6-8.4,7.1-10A11,11,0,0,1,360,460c2.5,2.3,3.8,5.4,5,8.4,3.3,8.2,4.9,16.8,6,25.5,1.7,13.2-2.1,25.7-5.1,38.2-3.9,15.9-10.2,31-14.9,46.6s-11.4,32.3-17,48.5c-3.7,10.9-6.2,22-9.2,33.1-3.5,12.6-5.2,25.5-7.2,38.3-.4,2.6-.2,5.5-3.3,6.8a1.8,1.8,0,0,0-.7.9c1.5,2.8-.1,6.5,2.8,8.8s2.7,4.8,3,7.5-1.5,3.6-4.2,3-7.2-2.9-10.3-5.3c-7.7-5.8-14.9-12.2-20.6-20.2-2-2.8-4.4-5.2-5.8-8.6s-3.3-3-5.2-4.3c-9-6.4-17.2-13.6-23.1-23.1a25.6,25.6,0,0,1-3.8-8.4c-.2-.8-.4-1.6-1.2-1.9Z" fill="#fac2c4"></path><path d="M288.2,644.2c.1-15.4.2-30.8.1-46.2,0-1.7.7-3.5,0-5.3.2-7.5.4-15.1.5-22.7.1-1.4,0-2.8,1-3.9a2,2,0,0,0,.3-2.5c-1.2-2.2-.3-4.3.9-6.2,2.4-3.8,5.9-6.4,9.7-8.6a70.4,70.4,0,0,1,31.9-9.1c2.8-.1,5.6,1.1,8.6,1.3s2.9,2.4,2.9,4.6c.1,5.1-.9,10.1-1.7,15.1-3,19.2-6,38.4-7,57.8-.6,12.4-.7,24.8-.3,37.1s2.3,26,4.3,38.9c.5,3.4.6,6.9.8,10.4a2.6,2.6,0,0,1-5.1,1.2c-.7-2.1-1.6-2.5-3.5-1.2a4.4,4.4,0,0,1-5.1-.6c-7.7-5.7-16.6-9.6-23.3-16.7-3-3.2-5.6-7-9.9-8.9-1.8-.8-2.3-2.9-2.7-4.8A184,184,0,0,1,288.2,644.2Z" fill="#f47750"></path><path d="M303.6,605.9c5.7.2,11.2,4.2,14.6,10.8,4.4,8.7,6.9,18.1,8.8,27.6.3,1.3.5,2.3,2,2.9s2.6,3,3,4.9l3.9,17.9a2.3,2.3,0,0,1,.1,1.4c-2.3,4.3-.4,8.5.6,12.5,5.4,20.9,11.9,41.4,21.5,60.8,7.7,15.5,15.7,30.9,27.1,44.3a30.6,30.6,0,0,0,4.2,4.6,7.3,7.3,0,0,1,2.7,8.4,2.1,2.1,0,0,0,.2,2.3c2.6,2.9,4,7,8.2,8.3,1.2.3.7,1,.4,1.6-1.8,3.7-4.9,6.2-7.9,8.8s-7.1,3.4-11.2,2.1c-.6-.3-1.3-.7-2-.2-3.3,2-5.6.2-7.9-2-11.9-11.5-23-23.6-32.2-37.6-7.1-11-14.6-21.7-20.7-33.3-4.3-8.3-8.2-16.8-12.4-25.2s-9-20.2-13.2-30.4-5.9-20.9-6.2-31.8a230.2,230.2,0,0,1,4.1-49.7C292.5,608.6,295.5,605.9,303.6,605.9Z" fill="#f47750"></path><path d="M303.6,298.8c-.9.6-1.8,1.6-2.9.8s-.1-2.2.4-3.2c4.8-9.3,34.1-33.5,42.7-35.5s12.8-5.5,18.2-10.5,15.1-11,23.4-15.4c23.8-12.6,47.6-25.2,69.9-40.4,7-4.8,8.8-10.5,12-15.4.7-1.1,28.3,6.6,29.8,7.6s1.6-7.5.9-6.2c11-10.2-2.7,13.2-6.5,17.2-11.3,12.3-24.4,22.7-38,32.4-17.5,12.4-33.7,26.4-49.7,40.8a247.5,247.5,0,0,1-27,20.7,8.9,8.9,0,0,1-4.5,1.5C367.3,293.7,311.2,293.9,303.6,298.8Z" fill="#f47750"></path><path d="M117.3,609.3c4.5-5.3,8.7-10.4,13.2-15.4s9.5-5.9,14.7-3.2,7.4,8.4,6.2,14.3c-.6,3-1.4,5.8-.4,8.8a5,5,0,0,1,.1,2.1c-.1,7.6-10.5,20.2-17.8,21.7a7.4,7.4,0,0,0-2.4,1.1,29.6,29.6,0,0,1-16.1,4.9c-8.5.2-17.2.8-25.4-2.3s-16.3-7.4-20-16.3c-2.4-5.7-2.3-11.3,1.4-16.5A11,11,0,0,1,89.7,610c.6,1.3.6,2.8,1.8,3.7s1.4,1.1,2.2.9.4-1.2.6-1.8c.8-3.6,1.8-7,5.3-8.9C106.6,599.9,112.4,601.6,117.3,609.3Z" fill="#fac2c4"></path><path d="M483.2,105V88.2a19.3,19.3,0,0,1,.1-2.4c.1-1.6.5-3.1,2.4-3.2s2.6,1.3,3,2.8a26.3,26.3,0,0,1,.6,3.9,412.1,412.1,0,0,1-.2,45.8c1.5-4.7,1.6-9.3,2.3-13.8s1.3-9.8,2-14.8c.3-1.7.7-3.8,3.1-3.7s2.8,2,3.1,3.8c1.7,9.4.6,18.8-.9,28.1-1.1,7.1-1.1,14.3-1.4,21.4a6.3,6.3,0,0,0,.3,2.7c.7,2,1.7,2.7,3.8,1.3a86.3,86.3,0,0,1,15.1-7.8c3.3-1.4,6.6-1,10-.2a3,3,0,0,1,2.2,2.9,2.6,2.6,0,0,1-2.1,2.9c-9.5,1.6-14.4,9-19.7,15.8-4,5.1-7.1,10.8-11,16s-9.9,12-14.8,18a4.3,4.3,0,0,1-3.7,1.6,23,23,0,0,1-13.3-4.8c-.3-.3-.7-.8-1.1-.9s-3,0-3.2-1.6-.9-5,.4-7.1c8.9-13.8,10.3-29.2,10.3-45a279.3,279.3,0,0,0-1.7-31.7c-.4-3.6.2-4.2,3.6-4.1,1.7,0,1.1-1.1,1.1-1.8.1-4.9,0-9.8,0-14.7-.1-1.9-.2-4.2,2.2-4.6s3.6,1.5,4.4,3.4a15,15,0,0,1,1.5,6.3C481.6,103.3,481.5,104,483.2,105Z" fill="#f47750"></path><path d="M424.1,824.4a12.5,12.5,0,0,0-8.2,1c-2.7,1.3-6.1.3-9-.7a8.8,8.8,0,0,0-7.1.6c-7.1,3.2-17.7,2.4-25.1-.1-1.6-1.6-4.3-2.9-5.7-7.7-.3-1.3-.2-2.4.7-3s2.5-2.7,3.2-4.5a6.2,6.2,0,0,1,2.8-3c9.1-5.8,18-12.2,27.8-17,3.8-1.8,7.3-4.5,10.9-6.7,7.3-4.5,10.4-4.2,16.2,2.1a213.3,213.3,0,0,0,19.6,18.4,4.1,4.1,0,0,1,1.8,3.9c-.3,1.6-1.8,2.1-3.3,2.5-4,1.4-7.1-1.2-10.4-2.6a50.7,50.7,0,0,1-10.6-6.6c-.7-.6-1.7-1.6-2.6-.6s.5,1.8,1.1,2.4a50.7,50.7,0,0,0,8.9,6.5,8.1,8.1,0,0,1,3.5,3.6c1,2.1.6,3.9-1.7,5s-6,2.3-8,5.2S425.9,824.6,424.1,824.4Z" fill="#f47750"></path><path d="M86.4,1030.7H76.7c-4.7-.4-4.8-.4-5.7-4.7-1.8-9.5-19-191.7-19.2-201.3-.2-17.1,2.8-33.7,6.1-50.3,5.7-28.9,17.5-55.2,32-80.6,4.9-8.5,9.6-17.2,14.6-25.7,2.9-4.9,6.7-9.2,9.3-14.2s4.3-11.6,5.4-17.6,4.2-7.3,8.5-9c13.9-5.3,28.1-3.5,42.1-.7a278.1,278.1,0,0,1,85.8,32.5c3.2,1.9,6.9,3.1,9.7,5.8a5.9,5.9,0,0,1,2.1,5.6c-2.1,11-2.5,22.1-2.7,33.3-.3,14.6,2.7,28.7,5.8,42.8,3.6,16.9,7.2,33.7,9.1,50.8.5,4.2,42.6,187.1,42.4,188.7s-1.8,4.1-4,5.5a224.8,224.8,0,0,1-38.4,19c-12.6,4.9-27.6,7.9-40.7,10.9a10.9,10.9,0,0,0-2.5,1c-5.5,2.7-10.8,1.5-14.7-3.4S173.6,837,170.6,831.7l-2.8-4.8c-1.2.2-1,1.1-1.2,1.7s-1.3,4-1.6,6c-1.5,9.8,7.4,186.1-.9,187.5-21.4,3.8-42.8,7.4-64.6,7.5C95.1,1029.7,90.7,1030.3,86.4,1030.7Z" fill="#464ac9"></path><path d="M211.2,508.9c9.8.1,17.6,3.3,25.1,7.7,13.6,7.9,22.8,19.6,29.8,33.5,1,2,.8,2.9-1.6,3.4-5,1.1-8.9,6.4-9.2,11.6-.4,7.4,1.2,14.5,2.7,21.6s2.5,11.6,3.7,17.5-.5,10.5-.7,15.8c0,2-.2,4.1-.2,6.2a40.6,40.6,0,0,1-1.3,10.9c-1.7,6.3.4,12.4,2.4,18.4a16,16,0,0,0,4.5,7.2c1.4,1.3,1,2.2-.1,3.3s-4.2,1.9-6.7,1.5a41.9,41.9,0,0,1-19-8.5c-10.2-8.1-22.4-12.6-34.4-17.2-16.2-6.1-32.7-10.9-49.8-13.4-8-1.2-16-1.6-24,.8-3.1.9-6.2,1.3-9.2,2.7-5.8,2.6-12-2.6-11.4-8.9a56.2,56.2,0,0,1,15.8-33.7c2.2-2.4,3.4-5.8,5-8.8,6.2-12.4,12.8-24.6,21.4-35.5,9.8-12.5,20.6-23.9,35.2-30.9A59.8,59.8,0,0,1,211.2,508.9Z" fill="#f5fafd"></path><path d="M252.6,347.4c3.2-3.8,5.5-4.1,9.5-1.5A125.1,125.1,0,0,1,277.2,358c3.3,2.8,3.3,2.9,6.5.1,5.4-4.6,8.1-5,14.3-1.5s12.4,6.3,18.7,9.3,6.9,6.5,5.7,10.9c-.6,2.2-2,3.1-4.2,2.4a84,84,0,0,1-23.6-10.7c-1.2-.7-2.2-1.5-3.4,0s.1,2.3,1,3.2c12,10.9,23,22.9,33.9,35s20.6,24.6,28.7,38.4a106.4,106.4,0,0,1,11.7,28.4c.7,2.9.3,6.2.2,9.2s-1.4,2.2-3.1,2.3c-10.4.1-20.1,2.5-28.3,9.4-12.9,10.9-22.6,24.2-30.6,38.7-11.5,20.8-20.3,42.7-28.1,65a129.9,129.9,0,0,0-7,34.4c-.4,6.4-1.1,12.8-1.2,19.3a6.1,6.1,0,0,0,2.9,5.5c3.4,2.4,6.8,4.9,10.3,7.2a3.9,3.9,0,0,1,1.9,3.7c-.1,6.8-.3,13.6.6,20.3.4,2.8-.2,6.7,4.7,6.3.4,0,.6.4.6.8.8,4,1.7,8,2.4,12,.1.3-.1.7-.2,1.3-3.3-1.7-5.6-4.3-8.2-6.5-5.2-4.2-9.8-9.1-14.6-13.7-11.2-10.7-21.6-22.2-32.4-33.2-3.8-3.9-7.3-8.2-11.1-12.1-8.4-8.9-18.6-15.6-28.1-23.1-7-5.5-14-10.9-22.6-13.9-13-4.5-26-3.8-39-.2s-23.9,8.5-36,12.4c-9.7,3.1-19.4,2.4-29.1.3-2.7-.6-1-8.4-.3-9.5,2.8-4.3,3.4-3.2,5.5-7.8,9.7-21.4,21.6-41.6,34.5-61.2,17-25.8,33.4-51.1,48.2-78.3s28.4-52.2,46.6-75.7a230.1,230.1,0,0,1,25.1-28c3.5-3.2,7-6.3,10.3-9.8,1.2-1.1,2.4-2.3,2.3-4s.8-4.2,3.3-4.5,4.5,1.3,5.6,3.6A12.5,12.5,0,0,1,252.6,347.4Zm-.2,2.5c-.7,1.4-1.9,2.7-1.3,4.1s1.5.3,2.1-.2S252.4,351.3,252.4,349.9Z" fill="#fac2c4"></path><path d="M382,502c-.7,18.7-5,37.1-4,55.9.6,12.3,2.6,24.5,4,36.8.7,6.3,5.5,20.4-.6,25.3-4.1,3.2-13.2.1-17.6-.5-10.7-1.5-21.3-2.7-32-2.4-14.1.3-28.4,3.2-40.5,10.5-2.3,1.3-4.5,2.8-7.1,3.1-5.7.6-7.3-5-7-9.4,1-16.4,2.6-32.9,2.6-49.4,3.4-17.1,6.9-34.1,9.1-51.5,1.8-14.2,6.7-27.6,12-40.8,6.7-17,15.3-33.1,24-49.2,3.3-6.1,10.4-6.5,14.4-.8,15.1,22,43.1,40.5,42.7,69.8Z" fill="#fac2c4"></path><path d="M250.4,356.2c-2-1.4-2.3-4.7-.8-7.7,4.2-8.3,9.7-15.8,15.3-23.1a404.7,404.7,0,0,1,27.8-32.1l20.5-22.2c8.5-9.3,18.5-16.9,28.4-24.6,4.1-3.2,7.9-6.7,13.2-7.9s10.6-.6,15.4,2.6a103.1,103.1,0,0,1,16.9,14.7c10.5,10.9,16.7,24.1,20.7,38.5,2.4,8.7.5,16.3-5.8,22.5-19,18.9-38.6,37-61.1,51.6-15.3,10-31,19.3-48.5,25.1a24.1,24.1,0,0,1-8.5,1.5c-4.4-.2-6.2-3.1-4.4-7.1s5.8-5.8,9.4-8.5c-3.7-1.3-6.8-3.2-11-3.2s-8.9-1.3-13.6-1.4C257.4,374.7,253,358.1,250.4,356.2Z" fill="#fac2c4"></path><path d="M311.1,362.2c-.4,2,2.5,3.1.7,4.3s-2.4-1.4-3.3-2.4c-9.8-10.9-16.4-23.5-21.1-37.3a70.4,70.4,0,0,1-3.7-30.8c1.1-9.4,6.6-17.2,13.8-23.1,13.2-10.9,28.6-17.2,45.9-17.3,13.4-.1,25.7,3.9,36,12.8,3.9,3.4,5.4,8.4,7.3,13a52.2,52.2,0,0,1,4.3,17.8c.2,4.3,2.6,7.8,5,11,4,5.3-.4,7.4-.4,14.1,0,1.4.4,11.8.5,16.5s.6,8.1.9,12.2-2.1,9.4-6.2,12.7-8,4.3-12.5,5.5c-8.5,2.1-21.2,4.8-29.5,7.4-3.3,1-2.6-.9-5.9-.1a1.1,1.1,0,0,1-1.5-1.1c.3-2.2-1.3-2.2-2.7-2.7-3-1-3.1-1.5-.3-4A129.1,129.1,0,0,1,311.1,362.2Z" fill="#f47750"></path><path d="M318.1,342.6c-.6,2.6.6,3,3,3.2a39,39,0,0,1,22.2,9c5.4,4.3,6,10.7,8,16.5.3,1-.3,1.9-.6,2.7-4.6,12.2-12.1,22.8-18.2,34.2-1,1.9-1.8,1.1-2.7,0a267.1,267.1,0,0,0-26.7-25.4c-5.1-4.3-10-8.8-15.2-13-1.6-1.3-1.8-2.4-1-4.3,1.6-3.5,2.7-7.2,4.3-10.7,3.8-8.2,3.8-16.6,1.8-25.2a135,135,0,0,1-3.5-20c-.4-3.3.7-5.6,3.2-6.3s4.4,1.1,5.5,4,2.2,8.1,3.9,11.8c2.8,6.3,3.6,12.9,4.8,19.5.2,1.7,1.3,1.5,2.3,1.3s3.7-.3,5.5-.6S318.9,339.6,318.1,342.6Z" fill="#f47750"></path><path d="M281.1,364.5c1.3-2.1,2.4-4.3,3.8-6.3s5-4.3,8.8-3.4a20.3,20.3,0,0,1,8.4,3.9c4.7,3.6,12.3,6.7,16.8,10.4,11.2,9.1,18.1,22.5,19.4,32.2s-3.1,4.7-3.3,14.2c0,6,1.1,11.9.1,17.9-.7,3.4-2.8,6.4-5.4,6.6s-5.8-1.4-6.8-5.6a11.3,11.3,0,0,1-.5-3.2l-.6-23.6c0-2.3-.4-3.7-3.3-3.6s-5.7-2.8-7.2-5.6-2.2-3.1-4.6-2.8-5.3-1.7-8.3-1.4c-1,.1-2.4-2.4-3.5-3.8a77.1,77.1,0,0,1-7.7-14.8c-.7-1.9-.9-3.8-3.3-4.5s-1.9-1.9-2.8-3Z" fill="#fac2c4"></path><path d="M341.8,245.7h.8a77.6,77.6,0,0,1,35.9,14.6c6.1,4.6,7.7,15.1,1.3,20.2s-8.1,10.8-7.3,18.3c.3,3.5,0,7.1.1,10.6,0,10.9-4.5,19.8-11.4,28-8.9,10.6-20.5,16.9-32.8,22.2-7.8,3.4-15.5,1.3-22.5-3s-14.4-8.3-19-13.7c-6.2-7.3-6.2-17.8-6.8-26.9-.8-11-1.4-21.5,2-32.2,5.9-18.7,12.9-31,31.8-34.7C323,247.5,332.4,244.7,341.8,245.7Z" fill="#aa1f24"></path><path d="M359,320.6c0-5.9,4.4-10.8,8.5-6.3a26.9,26.9,0,0,1,6.8,22,5.4,5.4,0,0,1-4.4,4.7c-7.3,1.6-9.2-6.9-9.4-12.3C360.5,327.8,359,325.6,359,320.6Z" fill="#f47750"></path><path d="M112.1,379.7a111.8,111.8,0,0,1,4.6-32.5c6.1-19.9,20.6-30.1,40.2-34.2,11.7-2.3,23-.2,34.4,2.2,8.2,1.7,16.4,3.4,24.7,3.9a63.4,63.4,0,0,0,22.9-2.2,22.8,22.8,0,0,0,11.6-8.2c5.4-7.2,8.9-15.5,12.5-23.7a153.7,153.7,0,0,1,10.9-21.4,61.3,61.3,0,0,1,14.9-16.4c8-6.1,20.4-5.7,28.2.8a13,13,0,0,1,4.7,12.9c-3.4,15.7-5.4,31.7-13,46.2-11,21.2-27.5,35.8-49.9,44-8.1,2.9-21.9,3.5-30.2,2.1-13-2.1-20.4-5-33.4-7.5s-27,.6-39.5,7.1C139,361.6,130,375.6,127.2,394c-.1.4-.1.8-.2,1.2-.7,2.4-.6,5.5-3.9,6a7.7,7.7,0,0,1-8.4-5A48.7,48.7,0,0,1,112.1,379.7Z" fill="#aa1f24"></path><path d="M344.9,464.9c7.2,1.6,11.2,8.8,13.3,14.6a1.2,1.2,0,0,0,1.5.7,1.2,1.2,0,0,0,.7-1.5c-3.4-9.1-8.5-14.6-15-16-1.4-.3-4.8-1.1-30.5,25.7-12.5,13-24.3,26.3-24.4,26.5a1.1,1.1,0,0,0,.1,1.6,1.1,1.1,0,0,0,.8.3,1.2,1.2,0,0,0,.8-.4C315.1,490.4,341.2,464.1,344.9,464.9Z" fill="#dd8e94"></path><path d="M290,540.3a47,47,0,0,0-1.8-19.8c-6.6-21.4-1.7-36.6-1.5-37.3a1.1,1.1,0,0,0-2.1-.7c-.3.7-5.4,16.6,1.4,38.7a46.1,46.1,0,0,1,1.7,18.9c-1.2,11.1-1.4,18.6-.6,22.2,1.7,7.4,2.1,56.1,0,67.1a1.1,1.1,0,0,0,.9,1.3h.2a1.3,1.3,0,0,0,1.2-.9c2.1-11.4,1.8-60.1-.1-68C288.6,558.5,288.8,551.1,290,540.3Z" fill="#dd8e94"></path><path d="M328.2,543.7a1.2,1.2,0,0,0-1.5-.7,1.1,1.1,0,0,0-.6,1.5l25,61.8a1,1,0,0,0,1,.7h.5a1.3,1.3,0,0,0,.6-1.5Z" fill="#dd8e94"></path><path d="M349.3,572.1a1.1,1.1,0,0,0-1.8,1.4l10.9,13.9a1.1,1.1,0,0,0,.9.4l.7-.2a1.2,1.2,0,0,0,.2-1.7Z" fill="#dd8e94"></path><path d="M268.4,515.4a1.1,1.1,0,0,0-1.3-.9,1.1,1.1,0,0,0-.9,1.3c.1.7,2.7,15.7,11.2,24.8a1.2,1.2,0,0,0,1.6,0,1.1,1.1,0,0,0,0-1.6C271,530.5,268.4,515.6,268.4,515.4Z" fill="#dd8e94"></path><path d="M292.2,382a1.2,1.2,0,0,0,.7,1.5c2.1.9,30.1,21.4,38.7,36.3a1.1,1.1,0,0,0,1,.6.7.7,0,0,0,.6-.2,1.1,1.1,0,0,0,.4-1.5c-9.1-15.8-38.3-36.8-39.9-37.4A1.2,1.2,0,0,0,292.2,382Z" fill="#dd8e94"></path><path d="M288,353.9c3.7.7,20.1,9.3,26.1,12.6h.5a1.1,1.1,0,0,0,.6-2.1c-.9-.5-22-11.9-26.8-12.8s-8.3,5.8-10.8,10.9a5.6,5.6,0,0,1-.4.8,1.3,1.3,0,0,0,.4,1.6,1.2,1.2,0,0,0,1.6-.4l.4-.9C283.9,355.1,286.5,353.6,288,353.9Z" fill="#dd8e94"></path><path d="M170.3,809.7a1.2,1.2,0,0,0,.9.5l.7-.2a1.2,1.2,0,0,0,.3-1.6,58.5,58.5,0,0,0-6.1-7.6A99.6,99.6,0,0,1,155.4,787c-9.2-13.7-5.4-68.8-5.4-69.4a1.1,1.1,0,0,0-1.1-1.2,1.1,1.1,0,0,0-1.2,1c-.2,2.3-3.9,56.6,5.8,70.9a114.3,114.3,0,0,0,10.9,14.1A52.4,52.4,0,0,1,170.3,809.7Z" fill="#2b34aa"></path><path d="M162.5,804l-4.1-5.4a1.1,1.1,0,0,0-1.5-.5,1.2,1.2,0,0,0-.5,1.6c.2.4,1.3,1.8,4.3,5.7,6.1,7.9,17.5,22.7,21.7,30.5a1.1,1.1,0,0,0,1,.6h.6a1.3,1.3,0,0,0,.4-1.6C180.1,826.9,168.6,812,162.5,804Z" fill="#2b34aa"></path><path d="M228.7,666.7c-20.9-12.3-46-17-63.4-18.8s-34.3-1.3-35.8.8a1,1,0,0,0,.3,1.6,1,1,0,0,0,1.4-.1c3.3-1.6,58.3-4,96.4,18.5l.6.2a1.2,1.2,0,0,0,.5-2.2Z" fill="#2b34aa"></path><path d="M162.2,673.3a1.2,1.2,0,0,0,1.1-.7l8.2-18.8a1.3,1.3,0,0,0-.6-1.5,1.1,1.1,0,0,0-1.5.6l-8.2,18.8a1.1,1.1,0,0,0,.6,1.5Z" fill="#2b34aa"></path><path d="M265.8,727.1c-4.9-15.1-7.2-42-7.2-42.2a1.2,1.2,0,0,0-2.3.1c0,.3,2.4,27.5,7.3,42.8s11.5,63.2,11.5,73a1.1,1.1,0,0,0,1.1,1.1,1.2,1.2,0,0,0,1.2-1.1C277.4,790.7,270.8,742.6,265.8,727.1Z" fill="#2b34aa"></path><path d="M320.1,259.9c-.1-.7-.6-1.2-1.2-1.1a1.1,1.1,0,0,0-1.1,1.2c0,.5,2.2,55.6-34.8,76.7S228.6,351,228.5,351a1.1,1.1,0,0,0-1.5.6,1.1,1.1,0,0,0,.6,1.5,26.4,26.4,0,0,0,9.2,1.3c8.9,0,24.4-2.7,47.3-15.7C322.3,316.9,320.1,260.4,320.1,259.9Z" fill="#751443"></path><path d="M298.9,274.6v-.2a1,1,0,0,0-.4-1.5,1.1,1.1,0,0,0-1.6.3.3.3,0,0,1-.1.2c-4,6.8-40.7,65.5-91,61.2a1.1,1.1,0,0,0-1.2,1.1,1.1,1.1,0,0,0,1,1.2,51.5,51.5,0,0,0,5.5.2C260,337.1,294.9,281.2,298.9,274.6Z" fill="#751443"></path><path d="M297.6,302.3a1.1,1.1,0,0,0-.4-1.5,1.1,1.1,0,0,0-1.6.4c-25.5,45.6-68.4,46.1-85.7,44.3-1-.1-1.2-.2-1.4-.1a1.2,1.2,0,0,0-1,1.3,1.3,1.3,0,0,0,1.3,1h.8a77.8,77.8,0,0,0,10.4.6C241.1,348.3,275.7,341.6,297.6,302.3Z" fill="#751443"></path><path d="M431.2,808.6a.7.7,0,0,1-.6-.2c-1.6-1-4.6-4.4-8-8.4s-6.7-7.9-8.2-8.8-6.9,1.9-7.6,2.8a1.2,1.2,0,0,1-2.1-1c.4-.9,3.3-3,5.8-3.8s3.7-.7,5.1.1,5.2,5,8.7,9.2,6.2,7.2,7.5,8a1.2,1.2,0,0,1,.4,1.6A1.2,1.2,0,0,1,431.2,808.6Z" fill="#cf4929"></path><path d="M430,821.4a1.2,1.2,0,0,1-.9-.5l-2.9-2.8c-5-4.7-14.2-13.5-19-18.7-2-2.2-4-3.2-5.9-2.9a4.8,4.8,0,0,0-3.2,2,1.2,1.2,0,0,1-.7.7,1.2,1.2,0,0,1-1.5-.7c-.4-1.3,1.9-3,2.6-3.4s5.7-2.3,10.4,2.8,13.9,13.8,18.9,18.6c3.1,3,3.1,3,3.2,3.2a1,1,0,0,1-.5,1.5Z" fill="#cf4929"></path><path d="M413.5,822.6a.9.9,0,0,1-.7-.3c-.2-.1-15.4-13.3-18-15s-5.4-.3-6.6.2a1.2,1.2,0,1,1-.8-2.2c.6-.2,5.7-1.9,8.7.1s17.5,14.6,18.1,15.1a1.3,1.3,0,0,1,.2,1.7A1.8,1.8,0,0,1,413.5,822.6Z" fill="#cf4929"></path><path d="M403,824.8l-.5-.2c-.3-.2-7.8-4.2-10.2-5.7-.4-.3-2.2-1-9.1,1.2h-.4a1.1,1.1,0,1,1-.6-2.2h.3c5.7-1.8,9.3-2.1,11-1s10,5.7,10.1,5.7a1.2,1.2,0,0,1,.4,1.6A1.3,1.3,0,0,1,403,824.8Z" fill="#cf4929"></path><path d="M386.1,824.8H386c-.7-.1-1.2-.6-1.1-1.2a1.1,1.1,0,0,1,1.2-1.1c.2,0,3.7,0,5.6-4.2a1.3,1.3,0,0,1,1.6-.6,1.3,1.3,0,0,1,.5,1.6A8.7,8.7,0,0,1,386.1,824.8Z" fill="#cf4929"></path><path d="M499.4,161.5a3.2,3.2,0,0,1-2.2-.7c-1.5-1.3-1.2-3.6-1.1-4.2,2.5-39.3,2.4-41.6,1.7-52.6v-.2c-.1-.7-.9-2.5-1.4-2.7s-.6.3-1.3,1.6-2.5,16.4-3.5,26.6c-.6,6.7-1.1,12.4-1.6,14.9a1.1,1.1,0,0,1-1.3,1,1.2,1.2,0,0,1-.9-1.4c.4-2.4,1-8.4,1.6-14.7,1.3-14.4,2.3-24.8,3.6-27.4s2.4-3.1,3.8-2.8,3.2,3.6,3.3,4.8h0c.7,11.2.8,13.5-1.7,53v.2c-.1.5-.2,1.6.3,2s1.4.3,2.8-.3,3.5-1.6,5.2-2.4c3.8-1.9,7.4-3.8,11-3.2a1.1,1.1,0,1,1-.4,2.2c-2.9-.4-6,1.2-9.6,3-1.7.9-3.5,1.8-5.4,2.6A8.8,8.8,0,0,1,499.4,161.5Z" fill="#cf4929"></path><path d="M488.9,145.2a1.2,1.2,0,0,1-1.1-1.2c1.5-49.5-1.2-59.2-1.7-60.4l-.4-.2s-1,.5-1.4,4.9-.3,12.1-.3,21.3c-.1,17.7-.3,30.5-1.2,33.5a1.2,1.2,0,0,1-1.5.7,1.1,1.1,0,0,1-.7-1.4c.9-2.9,1-19.5,1.1-32.8,0-9.2.1-18,.4-21.5s1.2-6.3,2.9-6.9a3.1,3.1,0,0,1,2.9.9c.1.1.1.2.2.2s3.7,7.3,2,61.8A1.3,1.3,0,0,1,488.9,145.2Z" fill="#cf4929"></path><path d="M481.7,145.2a1.2,1.2,0,0,1-1.2-1.2c1.3-40-.7-43.9-2.4-47.1l-.8-1.7a1.2,1.2,0,0,1,.7-1.5,1.2,1.2,0,0,1,1.5.7,10.1,10.1,0,0,0,.7,1.5c1.8,3.5,3.9,7.6,2.6,48.2A1.1,1.1,0,0,1,481.7,145.2Z" fill="#cf4929"></path><path d="M474.8,145.2a1.2,1.2,0,0,1-1.2-1.2c0-19.5-2.6-28.6-2.7-28.7a1.1,1.1,0,0,1,.8-1.4,1.1,1.1,0,0,1,1.4.7c.1.4,2.8,9.5,2.8,29.4A1.1,1.1,0,0,1,474.8,145.2Z" fill="#cf4929"></path><path d="M419.5,217.8a1.2,1.2,0,0,1-1.1-.7,1.1,1.1,0,0,1,.6-1.5c10-4.7,39.1-23.5,41.6-25.1,2.8-3.8,5.9-14.3,8.3-28.9a1.8,1.8,0,0,0,.1-.6,1.2,1.2,0,0,1,2.3.5,4.3,4.3,0,0,0-.1.5c-1.5,8.9-4.7,24.6-8.9,30.1l-.3.2c-1.3.9-31.4,20.4-42,25.3Z" fill="#cf4929"></path><path d="M464.6,782.7c-16.4-18.6-27.9-29.7-44.3-48.4-2.4-2.8-14-9-15.6-12.8-.3-.7-.9-1.3-1.2-2s-.8-3,.8-4,2.8-.1,3.8,1.1c2.5,3,5,6.1,7.4,9.2a5.6,5.6,0,0,1,1,1.5c1.2-1.1.6-2.1.9-2.8.7-2.3,3-2.7,4.7-.7s1.8,2.6,2.7,3.9a1.5,1.5,0,0,0,2,.7c1.2-.6.1-1.3-.2-1.9s-.8-3.9,1.7-4.9l.9-.5c3.9-4.1,3.9-4.1,8.3-.2.3.3.7.5,1.7.3-1.8-2.7-3.6-5.4-5.5-8s-4.5-7.8-6.4-11.8c-.8-1.7-1.1-3.7,1-4.8s3.2.7,4.1,2.3a146.4,146.4,0,0,0,25.9,32.7c5.3,4.9,11.3,8.9,17,13.3a19.2,19.2,0,0,1,4.6,4.4c.5.7,1.2,1.6.5,2.5a2.1,2.1,0,0,1-2.7.7l-5.4-1.8c-.2-.2-.4-.6-.7-.1l.3.5c.9,2.1,1.5,4.2-.4,6.2s.5,3.1-.5,3.9c-3.5,2.8-4.6,7.5-8.1,10.3-.4.3-.9.3-1.4.6,1.3,2.2,3.6,3.4,5.3,5.1s2.3,3.7-.1,5.5Z" fill="#ae3848"></path><path d="M552.7,260.8c.1,3.7,1,7.2-.7,10.9-.5,1.1,1.1,3.1,1.7,4.6s1.1,3.2,1.7,4.8.6,3.3-1.2,4a3.1,3.1,0,0,1-4.2-1.7c-2.2-4.4-4.4-8.7-6.2-13.1-9.4-22.2-18.4-44.5-26-67.4-1.1-3.2-1.8-6.5-2.6-9.8-.4-1.8-.2-3.5,2.2-3.6s1.4-1,1.9-1.7,1.3-2.4,2-3.5c2.3-3.5,4.8-6.9,9.6-6.2s9,2.8,11.5,8c8.8,18.1,17.1,36.4,28,53.4,3.2,5.1,6.6,10.2,9.9,15.3,1.1,1.7,3.2,2.1,4.3,3.7s2,2.5,2.1,4.2.2,2.3-.9,3.1-2.1-.4-2.8-1.1c-3.1-3.2-6.3-6.4-9.2-9.8s-3.9-3.7-6.9-2.2l-1,.2c-1.1.4-2.9-1-3,0s-2.5,3.6-2.3,5.9.5,4.5-2.2,5.4S554.2,263,552.7,260.8Z" fill="#ae3848"></path><path d="M550.9,156.2c1.8.2,2.3-1,3.1-1.8,2.9-2.8,5.6-5.8,8.5-8.6a34.3,34.3,0,0,1,4.9-3.6c1.5-1,3.4-1.9,4.8-.1s0,3.3-1.3,4.6c-7.5,7.1-13,15.6-18,24.7s-5.3,20.8-.9,31.4a7.7,7.7,0,0,1,.9,3.6c-.2,2.4-2.1,3.8-4.2,2.7a3.3,3.3,0,0,0-4.2.6c-3,2.5-7.1,2.8-10.2,5.2s-2.2,2.5-1,4.5a26.3,26.3,0,0,1,2.4,5.1c.6,1.6.7,3.3-1,4.2s-2.7-.5-3.7-1.6a69.6,69.6,0,0,1-7.2-10.5,83.4,83.4,0,0,0-9.4-12.7c-5.8-6.4-8.1-14.8-11.6-22.4-5.3-11.8-12.7-21.7-24-28.4-1.7-1-3.9-2-2.9-4.4s3.3-2.4,5.5-2.1c5.1.5,8.2,4.4,12,7s5.1,4.5,7.5,6.8c4,3.7,8.9,2.7,11.3-2s2.4-10.1,2.7-15.2c1.1-14.9,2.6-29.8,5.6-44.4a27.4,27.4,0,0,1,1.8-6.2c.9-1.7,1.8-3.2,4-2.8a4.2,4.2,0,0,1,3.6,4.3,66.8,66.8,0,0,1-.8,14.1q-2.1,16.6-2.7,33.6a31.3,31.3,0,0,0,.1,6.1c1.6-4.6,3.1-9.3,5-13.8,5.1-12.6,9.5-25.5,15.4-37.8a13.9,13.9,0,0,1,3-4.8c2-1.8,3.5-1.4,4.6.8a8.4,8.4,0,0,1,.5,6.6c-5.3,15.6-9.3,31.7-13.8,47.6-.2.8-1,1.8.2,2.3s1.3-1,1.8-1.7c5.9-9.8,12.4-19.3,19.2-28.5,1.4-1.9,2.7-3.9,4.7-5.3s2.8-1.8,4.3-.5,1.2,2.9.3,4.4q-4.2,7.2-8.7,14.4C558.2,139.4,554.6,147.7,550.9,156.2Z" fill="#ae3848"></path><path d="M411.5,680.3a169.2,169.2,0,0,1-5.8-19.6c-.4-2.2-.7-4.6.2-6.6s3.6-3.4,5.5-2.1,1.7,2.7,2.1,4.3c2.4,10.3,9.3,18.9,14.5,28.1a93.4,93.4,0,0,1,9.3,23.8,25.1,25.1,0,0,0,1.7,6.1,29.2,29.2,0,0,1,2.3,4.7c.8,2.8-.2,5.8-1.5,8.4-2.8,5.4-7.7,10.4-13.8,10.2-3.9-.1-3.9-5-7.5-6.4-19.3-7.7-31.4-22-42.8-32.4-7.8-7-12.5-11.1-18.9-15.9-2.1-1.5-4.7-3.8-3.9-6.3s1.5-1.3,2.9-1.3a11.7,11.7,0,0,1,4.1,1c1.5.7,17.4,9.6,18.9,10.2s-8.8-6.7-12.6-9.1a81.3,81.3,0,0,0-8.1-4.7c-2.3-1-4.8-2-6.4-3.9s-1.7-5.5.5-6.7c-1.3-1-3-1.7-4.4-2.7s-2.4-2.9-1.8-4.6a3.7,3.7,0,0,1,3.2-2.1,10.4,10.4,0,0,1,3.9.7c9,2.9,17.3,7.4,25.6,11.9,0-1.2-1-2.2-1.9-3L370,656a12.6,12.6,0,0,1-3.1-3.8,4.3,4.3,0,0,1,.7-4.6c2-1.8,5.1-.3,7.2,1.3A305.6,305.6,0,0,1,411.5,680.3Z" fill="#ae3848"></path><path d="M603.3,645a1.1,1.1,0,0,1-1.1-.8c-8.5-26.5-34.6-49.6-39.8-54a6,6,0,0,0-4.7-1.5c-5.1.5-9.9,6.8-9.9,6.9a1.1,1.1,0,0,1-1.6.2,1.2,1.2,0,0,1-.3-1.6c.2-.3,5.4-7.1,11.5-7.8a8.2,8.2,0,0,1,6.5,2c5.3,4.5,31.8,28.1,40.5,55.1a1.2,1.2,0,0,1-.8,1.5Z" fill="#8c004f"></path><path d="M622.8,946.9c8.1,8.2,21.3,8.2,32.7,9.1,22,1.7,44.2,2.6,66.3,2.9,42.1.5,85-1.3,124.7-15.2,9.3-3.3,18.6-7.4,25.9-14s12.4-16.3,11.5-26.2c-.5-5.3-2.8-10.4-5.1-15.3A558.4,558.4,0,0,0,849,832c-5-8.3-10.3-16.6-17.1-23.5-14.8-15.4-36-23.7-57.2-26s-42.7.7-63.6,5.3c-15.5,3.4-31.1,7.7-44.5,16.3-18.8,12.2-47.3,74.1-39.1,53.3C640.5,824.6,598.1,921.9,622.8,946.9Z" fill="#b6c5e5"></path><path d="M854.7,790.9c-10.4-41.4-32.4-75.6-64.4-103.6A102.2,102.2,0,0,1,769.7,663c-11.5-19.1-20.2-39.4-28.5-60l-4.5-11.5q-14.2-52.7-31.6-104.4c-7.7-22.9-15.8-45.6-26.6-67.3-12.8-25.4-25.8-50.8-38.8-76.1q-10.2-19.9-20.9-39.6c-1.3-2.6-2.7-5.1-4.1-7.6,1.8-2.6,3.5-5.4,5.2-8.1a9.3,9.3,0,0,0-.1-10.7,243.1,243.1,0,0,0-24.7-32.4,8.7,8.7,0,0,0-4.9-2.6c-7.5-1.6-14.2,1.3-20.8,3.9-10.7,4.1-17.9,12.5-25.1,20.9a13.1,13.1,0,0,0-3.1,12.3c2.6,9.2,5.2,18.4,10.4,26.6,1.5,2.3,3,4.7,4.6,7a4.1,4.1,0,0,0,3,2.1c.3.9.6,1.9,1,2.8,5.7,14.8,11.4,29.6,16,44.8,8.2,27.4,15.4,55,24.3,82.1s16.9,51,27.3,75.7a379.4,379.4,0,0,0-43.9,28.6c-10.6,8.1-21.1,16.2-29.4,26.8-3.7,4.8-7.7,9.6-8,16.2A27.6,27.6,0,0,0,545,603c.5,7,1,13.9,1.2,20.9s-1.2,15.2-2.5,22.7c-3.6,20-8.7,39.5-17.4,58-6.5,13.8-15,26.4-24.3,38.4a6.6,6.6,0,0,0-1.5-.5c-2.2-.5-4.3-1.4-6.4-2-5.6-1.7-11.2-2.6-16.5.8-3.4,2.2-5.7,5.3-8.4,8.1-8.2,8.4-13.8,18.2-15,29.9a97.8,97.8,0,0,0-.1,19.5c.6,6,2.1,12,8.5,15.2,4.2,2.1,8.1,4.7,12.3,7,2.6,1.4,5.3,2.5,8,3.7s5.6,2.7,8.3,4.2l.5.2a1.1,1.1,0,0,0,1.1-.2,36.4,36.4,0,0,0,3.6-4.3c.7-.1,1.5.1,2.2,0,3.4-.3,6.9,1,10.3-.3a202.8,202.8,0,0,0,19.2-7.8v7.4c.3,1.5.5,3.1.8,4.7,1.7,9.5,6.5,16.6,16.1,19.8,6.1,2.1,12.2.8,18.3.2s9.7-2.4,14.4.7,10.4,6,15.3,9.3c10.7,7,22.1,9,34.5,5.4a144,144,0,0,0,23.8-9.5c29.9-15.4,59.4-31.5,90.5-44.6,17.7-7.4,36-11.8,55.3-11.7,12.8.1,25.3,2.1,37.8,4.4,4.8.8,9.4,2.9,14.4,3.1,2.2.1,4.5-.5,4.7-2.9S855.7,795,854.7,790.9Z" fill="#464ac9"></path><path d="M714.3,579.2c2.1,5.4,4.3,10.2,5.2,15.4,2.9,16.8,4.8,33.6-2.2,50-3.5,8.4-6.8,16.9-13.5,23.5-1.9,1.9-3.8,2.3-6.1,1.1s-4.8-1.4-7.5-1.5c-9.2-.1-18.4,0-27.3,2.7a58.9,58.9,0,0,0-17,8c-1.4,1-3.1,2.7-4.8,1a5.4,5.4,0,0,1-1.1-6.2c3.1-7.1,3.7-14.7,4.5-22.4-1.9,3.3-3.7,6.7-5.5,10-3.7,6.4-6.9,13.2-13.8,17.1a43.5,43.5,0,0,1-5.9,2.5c-1.8.6-4.3.7-5.3-.9-2.2-3.3-4-1.6-5.9-.1s-5.5,2.3-8.3,2.4c-6.4.5-12.8.6-19.1-1.2a12,12,0,0,1-4-1.8c-1.8-1.3-2.2-3.4-.3-4.8,5.3-4,8-10,11.2-15.4a94.4,94.4,0,0,0,12.5-37.1c1-8.1-.2-16.3-1.2-24.5s-4-12.7-6.3-19c-1.7-4.3-5.7-6.9-8.4-10.4s-9.3-7.3-14.7-10.2c-13.6-7.1-25.6-16.3-33.5-29.9-3.9-6.6-4-14-2.8-21.3,3.6-21.5,8.9-41.1,18.3-60.6,2.9-6,6.3-12.8,7.6-19,3.8-17.8,13.9-31.6,28.1-42.3,7.7-5.7,17.2-7.8,26.4-9.6a43.9,43.9,0,0,1,37.8,9.8c6.4,5.3,11.8,11.7,17.5,17.8s13.5,15,18.6,23.9,7.3,20.6,5.9,32.3c-1.6,13.6-6.2,26.4-9,39.7s-2,27,5.8,39.1c6,9.5,14.5,16.1,24.4,21.2,6.1,3.1,12.8,5.1,18.4,9.1,11.4,8.2,18.9,19,21.3,33.1a7.4,7.4,0,0,1-1.5,6.3,178.6,178.6,0,0,1-14.3,17,4.3,4.3,0,0,1-1,.9c-1.2.8-2.4,2.5-3.6,1.9s-1-2.6-1.1-4c-1-14.7-5.5-28.2-14.2-40.1A8.2,8.2,0,0,0,714.3,579.2Z" fill="#ff6136"></path><path d="M622.6,520.7c-10-19.5.5-53.9,3.9-63.9,7.5-21.7-3.4-56.2-3.9-57.6a1.1,1.1,0,0,0-1.4-.8,1.3,1.3,0,0,0-.8,1.5c.2.3,11.2,35.1,4,56.1-3.6,10.3-14.3,45.4-3.9,65.8,1.1,2.2,2.7,4.9,4.6,8,11.5,19.7,33,56.4,17.4,98.4a1.2,1.2,0,0,0,.7,1.5h.4a1.2,1.2,0,0,0,1.1-.7c15.9-43.1-5.9-80.4-17.7-100.4C625.2,525.5,623.7,522.9,622.6,520.7Z" fill="#e55f49"></path><path d="M641.7,602.3a1.1,1.1,0,0,0-1.3.9c-.1.3-6.3,31.7-16,44.9a1.1,1.1,0,0,0,.2,1.6.8.8,0,0,0,.7.2,1.1,1.1,0,0,0,.9-.4c10-13.6,16.2-44.6,16.4-45.9A1,1,0,0,0,641.7,602.3Z" fill="#e55f49"></path><path d="M648.2,408.9c-1.3-1.5-2.3-2-3.2-1.9a1.1,1.1,0,0,0-.9,1.3,1.2,1.2,0,0,0,1.1,1c2.3,1.1,12.3,17.2,8.6,28.5-.7,2.2-1.5,4.5-2.4,7.1-4.2,12.2-10,29.1-8.9,41.7.5,6.4,1.4,11.9,2.2,16.9s2,11.9,1.6,16.7a1.2,1.2,0,0,0,1.1,1.2h.1a1.1,1.1,0,0,0,1.1-1c.4-5.1-.5-10.7-1.6-17.3-.8-4.9-1.7-10.4-2.3-16.7-1-12.1,4.7-28.7,8.9-40.8.9-2.5,1.7-4.9,2.4-7C659.4,428,652.6,414,648.2,408.9Z" fill="#e55f49"></path><path d="M659.7,494.8a1.1,1.1,0,0,0-2.2-.6c-.3,1.3-8.1,31,8.8,49.1a.9.9,0,0,0,.8.4,1.1,1.1,0,0,0,.8-.3,1.2,1.2,0,0,0,.1-1.7C651.9,524.6,659.6,495.1,659.7,494.8Z" fill="#e55f49"></path><path d="M679.9,544.7c-12.5-13.1-11.6-24.2-11.6-24.3a1.2,1.2,0,0,0-1.1-1.3,1.2,1.2,0,0,0-1.2,1c0,.5-1,12.2,12.2,26.2a1.2,1.2,0,0,0,1.6,0A1.1,1.1,0,0,0,679.9,544.7Z" fill="#e55f49"></path><path d="M617.2,691.2c-1.8,1.4-3.3,3.4-7.2,8.8l-3.7,5.1c-5.8,8.1-16.6,23.2-21.7,28.6-2.9,3.1-6.9,7.7-10.8,12.1s-8.4,9.6-11.4,12.8a1,1,0,0,0,0,1.6,1,1,0,0,0,1.6,0c3.1-3.2,7.4-8.1,11.5-12.9s7.9-9,10.8-12c5.2-5.6,16.1-20.7,21.9-28.9l3.7-5.1c3.7-5.2,5.1-7.1,6.7-8.3a1.1,1.1,0,1,0-1.4-1.8Z" fill="#2b34aa"></path><path d="M497.5,745.5c-.3.2-26.8,23.8-3.7,73a1.2,1.2,0,0,0,1.1.7l.5-.2a1.1,1.1,0,0,0,.5-1.5c-22.3-47.5,2.8-70.1,3.1-70.3a1.2,1.2,0,0,0,.1-1.6A1.1,1.1,0,0,0,497.5,745.5Z" fill="#2b34aa"></path><path d="M730.2,654.7a1.1,1.1,0,0,0-1.4.8c0,.1-.1.3-.2.8-4.4,19.9-27.7,120.1-52.5,138.9a1.1,1.1,0,0,0-.2,1.6,1.1,1.1,0,0,0,.9.5,1.1,1.1,0,0,0,.7-.3c25.4-19.2,48.9-120.2,53.3-140.2.1-.5.2-.7.2-.8A1.1,1.1,0,0,0,730.2,654.7Z" fill="#2b34aa"></path><path d="M692.7,743h.4a1.1,1.1,0,0,0,1.1-.7c2.6-6.9,3.6-21.2,4.2-29.8.2-3,.4-6,.5-6.8a1.1,1.1,0,0,0,.1-1.1,1.3,1.3,0,0,0-1.6-.5c-.8.4-.8.7-1.3,8.2s-1.6,22.6-4,29.2A1.1,1.1,0,0,0,692.7,743Z" fill="#2b34aa"></path><path d="M562.3,309.4c.1-.2,13.3-27.7,52.8-24.1a1.2,1.2,0,0,0,1.2-1.1,1.1,1.1,0,0,0-1-1.2c-41.2-3.7-54.9,25.2-55.1,25.5a1.2,1.2,0,0,0,.6,1.5h.5A1,1,0,0,0,562.3,309.4Z" fill="#2b34aa"></path><path d="M392.5,683a1.1,1.1,0,0,1-.7-.3c-8.3-7.3-34.4-18.9-36.5-19.5a1,1,0,0,1-.9-.6,1,1,0,0,1,.5-1.5c2-1,31.3,13.7,38.4,19.9a1.1,1.1,0,0,1,.1,1.6A1.1,1.1,0,0,1,392.5,683Z" fill="#cf4929"></path><path d="M526.1,149.6h-.4a1.1,1.1,0,0,1-.7-1.4c.7-2.1,17.3-51.7,25.2-57.9a1.1,1.1,0,1,1,1.4,1.8c-6.1,4.8-19.7,42.6-24.5,56.8A1.1,1.1,0,0,1,526.1,149.6Z" fill="#cf4929"></path><path d="M502.7,183.9a1,1,0,0,1-1-.7c-8.8-21.7-17.3-25.6-22.4-27.9l-2.9-1.4c-2.1-1.4-3.1-2.7-3-4a3,3,0,0,1,1.6-2.2,4.8,4.8,0,0,1,3.6-1.9c5.6-.6,14,4.9,25.1,16.4a6.2,6.2,0,0,0,4.5-.4c1.7-.9,2.9-2.8,3.5-5.7a6.2,6.2,0,0,1,.1-.9c1.3-17,2.8-28.8,3.8-35.8,3.7-26.7,7-30.3,9.8-30.3a4.7,4.7,0,0,1,3.7,1.6c3,3.4,1.9,11.6.7,21.2-.5,3.3-.9,6.7-1.2,10-1.3,14.6-1.5,25.5-1.5,25.6a1.1,1.1,0,0,1-1.2,1.1,1.1,1.1,0,0,1-1.1-1.1c0-.1.2-11.1,1.5-25.8.3-3.4.8-6.8,1.2-10.1,1.1-8.3,2.2-16.7-.1-19.4a2.6,2.6,0,0,0-2-.8c-2.1,0-7.3,13.4-11.4,64a6.8,6.8,0,0,1-.1,1.2c-.7,3.5-2.3,6-4.6,7.2a9.3,9.3,0,0,1-6.7.5l-.4-.3c-13.9-14.6-20.6-16.2-23.3-15.9s-2.1,1-2.1,1.1-.4.4-.6.4-.5.3-.5.5.3.8,2,1.8a19.1,19.1,0,0,0,2.5,1.3c5.4,2.5,14.5,6.6,23.6,29.2a1.1,1.1,0,0,1-.6,1.4Z" fill="#cf4929"></path><path d="M551.3,157.5h-.4a1.6,1.6,0,0,1-.9-.9c-.7-2,2.4-7.8,11.9-24.4,3.9-6.7,7.9-13.7,8.5-15.7s.2-3,.1-3a.9.9,0,0,0-.9-.1,1.2,1.2,0,0,1-1.4-.8,1.2,1.2,0,0,1,.9-1.4,3.1,3.1,0,0,1,3.1.7c1,1,1.1,2.7.4,5.2s-4.4,8.8-8.7,16.3-8.7,15-10.8,19.6c4.6-4.3,12.9-12,16-12.4a1.1,1.1,0,0,1,1.2,1.1,1,1,0,0,1-1,1.2c-2.2.3-11.4,8.6-17.2,14.4A1.1,1.1,0,0,1,551.3,157.5Z" fill="#cf4929"></path><path d="M562.4,227.2a1.1,1.1,0,0,1-1-.6c-3.8-7.2-10-19-10.8-20a1.2,1.2,0,0,1,.2-1.6,1.1,1.1,0,0,1,1.6.1c1,1.1,8.7,15.9,11,20.5a1.1,1.1,0,0,1-.5,1.5Z" fill="#cf4929"></path><path d="M551.8,207.9a1.1,1.1,0,0,1-1.1-.8c-8.9-26.5,8.5-48.2,8.6-48.5a1.2,1.2,0,0,1,1.7-.1,1.2,1.2,0,0,1,.1,1.6c-.1.2-16.7,21-8.2,46.3a1.1,1.1,0,0,1-.8,1.4Z" fill="#cf4929"></path><path d="M538.5,152.6a1.1,1.1,0,0,1-.9-.5c-.5-.6-1.4-1.8,6.7-29.5,3.3-11.2,5.8-18.3,7.5-23s2.2-6.1,2.3-7.4a1.2,1.2,0,0,1,2.3.1c-.1,1.7-.9,3.9-2.4,8.1s-4.3,11.8-7.5,22.9c-3.8,13.1-5.6,20.1-6.3,23.8,9.2-13.1,25.8-35.8,28.8-36.4a1.1,1.1,0,0,1,1.4.8,1.2,1.2,0,0,1-.9,1.4c-2.3,1-17.2,21-30.1,39.2a1.1,1.1,0,0,1-.9.5Z" fill="#cf4929"></path><path d="M514.8,136.3a1.1,1.1,0,0,1-1-.6l-3.7-7.2c-2.6-4.9-3.7-7.9-2.3-10.3s3.9-3.8,6.2-3a7.7,7.7,0,0,1,3.5,2.1,1,1,0,0,1,0,1.6,1.1,1.1,0,0,1-1.6-.1,10,10,0,0,0-2.7-1.4c-1.7-.6-3,1.4-3.4,2s-.1,3.4,2.3,8.1,3.7,7.2,3.7,7.2a1.1,1.1,0,0,1-.5,1.5Z" fill="#cf4929"></path><path d="M833.7,426.9a68,68,0,0,1-31.5-8.1c-15.3-8.3-16.7-25.2-16.7-25.9a1.1,1.1,0,0,1,1-1.2,1.2,1.2,0,0,1,1.3,1.1c0,.1,1.4,16.3,15.5,24s30.6,8.2,34.8,7.5l5.2-.9a1.3,1.3,0,0,1,1.3,1,1.1,1.1,0,0,1-.9,1.3l-5.2.9A44.5,44.5,0,0,1,833.7,426.9Z" fill="#b6c5e5"></path><path d="M370.6,356.9h-.3c-2.4-.1-4.7-1.4-6.7-4-5.2-6.8,2.9-15.4,3.2-15.8a1,1,0,0,1,1.6,0,1.1,1.1,0,0,1,.1,1.6c-.1.1-7.1,7.6-3.1,12.8,1.6,2,3.3,3.1,5,3.1a6.1,6.1,0,0,0,4.7-2.2c1.3-1.3,2.1-5.3,1.2-7.9a17.3,17.3,0,0,0-1.8-3.8,1.2,1.2,0,0,1,.2-1.6,1.1,1.1,0,0,1,1.6.2,14.4,14.4,0,0,1,2.1,4.4c1.1,3.2.3,8.2-1.6,10.3A9.2,9.2,0,0,1,370.6,356.9Z" fill="#fac2c4"></path></g></g></svg>