<svg xmlns="http://www.w3.org/2000/svg" width="18" height="18" viewBox="0 0 18 18" class="injected-svg" data-src="//a.storyblok.com/f/64062/x/7c657b9d45/about-us_crimson-in-the-news-icon.svg" xmlns:xlink="http://www.w3.org/1999/xlink"><path d="M6.663,4.76V18.692a.608.608,0,0,1-.606.606h0a.608.608,0,0,1-.606-.606V6.144H4.76A1.383,1.383,0,0,0,3.375,7.529V19.99A1.383,1.383,0,0,0,4.76,21.375H20.038a1.338,1.338,0,0,0,1.337-1.337V4.76A1.383,1.383,0,0,0,19.99,3.375L7.962,3.462A1.24,1.24,0,0,0,6.663,4.76ZM9.519,6.144h3.635a.608.608,0,0,1,.606.606h0a.608.608,0,0,1-.606.606H9.519a.608.608,0,0,1-.606-.606h0A.608.608,0,0,1,9.519,6.144Zm0,6.923h6.4a.608.608,0,0,1,.606.606h0a.608.608,0,0,1-.606.606h-6.4a.608.608,0,0,1-.606-.606h0A.608.608,0,0,1,9.519,13.067ZM18,17.74H9.519a.608.608,0,0,1-.606-.606h0a.608.608,0,0,1,.606-.606H18a.608.608,0,0,1,.606.606h0A.608.608,0,0,1,18,17.74Zm0-6.923H9.519a.608.608,0,0,1-.606-.606h0a.608.608,0,0,1,.606-.606H18a.608.608,0,0,1,.606.606h0A.608.608,0,0,1,18,10.817Z" transform="translate(-3.375 -3.375)" fill="#6d6d77"></path></svg>