<svg xmlns="http://www.w3.org/2000/svg" width="16.11" height="16" viewBox="0 0 16.11 16" class="injected-svg" data-src="//a.storyblok.com/f/64062/x/46d750202d/our-services_crimson-rise-icon.svg" xmlns:xlink="http://www.w3.org/1999/xlink"><path d="M13.215,3.6a1.6,1.6,0,1,1,1.6,1.6A1.6,1.6,0,0,1,13.215,3.6Zm3.2,13.6v-4h.889a.805.805,0,0,0,.761-1.056L16.388,7.1A1.609,1.609,0,0,0,14.866,6h-.1a1.6,1.6,0,0,0-1.522,1.1L12.558,9.16a2.788,2.788,0,0,1,1.458,2.44V18h1.6A.8.8,0,0,0,16.42,17.2ZM10.411,9.6a1.2,1.2,0,1,0-1.2-1.2A1.2,1.2,0,0,0,10.411,9.6ZM4.8,5.2A1.6,1.6,0,1,0,3.2,3.6,1.6,1.6,0,0,0,4.8,5.2Zm1.6,12V12.4h.4a.8.8,0,0,0,.8-.8v-4A1.606,1.606,0,0,0,6.005,6H3.6A1.606,1.606,0,0,0,2,7.6v4a.8.8,0,0,0,.8.8h.4v4.8A.8.8,0,0,0,4,18H5.6A.8.8,0,0,0,6.406,17.2Zm2-5.6V14a.8.8,0,0,0,.8.8h0v2.4a.8.8,0,0,0,.8.8h.8a.8.8,0,0,0,.8-.8V14.8h0a.8.8,0,0,0,.8-.8V11.6a1.21,1.21,0,0,0-1.2-1.2H9.61a1.21,1.21,0,0,0-1.2,1.2" transform="translate(-2 -2)" fill="#6d6d77"></path></svg>