<svg xmlns="http://www.w3.org/2000/svg" width="20" height="16" viewBox="0 0 20 16" class="injected-svg" data-src="//a.storyblok.com/f/64062/x/4dcba8322f/our-services_online-tutoring-icon.svg" xmlns:xlink="http://www.w3.org/1999/xlink">
  <path id="Icon_awesome-laptop-12" data-name="Icon awesome-laptop" d="M19.5,13H11.923A.985.985,0,0,1,10.9,14H9a1.061,1.061,0,0,1-1.024-1H.5a.5.5,0,0,0-.5.5V14a2.006,2.006,0,0,0,2,2H18a2.006,2.006,0,0,0,2-2v-.5A.5.5,0,0,0,19.5,13ZM18,1.5A1.5,1.5,0,0,0,16.5,0H3.5A1.5,1.5,0,0,0,2,1.5V12H18ZM16,10H4V2H16Z" fill="#6d6d77"></path>
</svg>