<svg xmlns="http://www.w3.org/2000/svg" width="20" height="20" viewBox="0 0 20 20" class="injected-svg" data-src="//a.storyblok.com/f/64062/x/2a4a1dd07c/contact_essay-review-icon.svg" xmlns:xlink="http://www.w3.org/1999/xlink"><path d="M5.336,5.421A2.5,2.5,0,0,0,3.644,7.037L0,17.969l.574.574,5.864-5.864a1.893,1.893,0,1,1,.884.884L1.457,19.426,2.031,20l10.932-3.644a2.5,2.5,0,0,0,1.615-1.692L16.25,8.75l-5-5ZM19.451,2.9,17.1.549a1.876,1.876,0,0,0-2.653,0L12.241,2.758l5,5L19.451,5.55a1.876,1.876,0,0,0,0-2.653Z" transform="translate(0 0)" fill="#6d6d77"></path></svg>