<svg xmlns="http://www.w3.org/2000/svg" width="17.999" height="18" viewBox="0 0 17.999 18" class="injected-svg" data-src="//a.storyblok.com/f/64062/x/a064412dc7/our-services_us-boarding-icon.svg" xmlns:xlink="http://www.w3.org/1999/xlink"><path d="M1.125,0A1.124,1.124,0,0,0,0,1.124V17.436A.564.564,0,0,0,.562,18H1.687a.564.564,0,0,0,.562-.562V1.124A1.124,1.124,0,0,0,1.125,0Zm9.418,10.673a9.4,9.4,0,0,0-7.168.39V13.5c6.528-3.241,7.794,1.874,13.974-.812A1.1,1.1,0,0,0,18,11.674V10.408a10.652,10.652,0,0,1-3.941.847,13.388,13.388,0,0,1-3.515-.584Zm0-3.375a9.4,9.4,0,0,0-7.168.39V9.849a10.437,10.437,0,0,1,7.456-.267A9.4,9.4,0,0,0,18,9.192V7.03a10.652,10.652,0,0,1-3.941.847,13.247,13.247,0,0,1-3.515-.58Zm.334-4.426C12.7,3.42,14.3,3.891,18,2.165V1.082A1.142,1.142,0,0,0,16.262.147c-6.022,3.069-5.526-2.334-12.888.991v5.34a10.456,10.456,0,0,1,7.456-.267A9.433,9.433,0,0,0,18,5.821V3.4a11.006,11.006,0,0,1-4.433,1.1,9.853,9.853,0,0,1-3.013-.559c-.141-.042-.285-.084-.425-.123V2.653c.253.07.5.144.749.218ZM5.625,4.5a.562.562,0,1,1,.562-.562A.562.562,0,0,1,5.625,4.5Zm0-1.962a.562.562,0,1,1,.562-.562A.562.562,0,0,1,5.625,2.541Zm2.25,1.684a.562.562,0,1,1,.562-.562A.562.562,0,0,1,7.875,4.225Zm0-1.965A.562.562,0,1,1,8.437,1.7.562.562,0,0,1,7.875,2.26Z" transform="translate(0 0.002)" fill="#6d6d77"></path></svg>