<?xml version="1.0" encoding="UTF-8"?>
<svg id="Layer_2" data-name="Layer 2" xmlns="http://www.w3.org/2000/svg" viewBox="0 0 617.44 169.61">
  <defs>
    <style>
      .cls-1 {
        fill: #fb2c36;
      }

      .cls-2 {
        fill: #4f39f6;
      }
    </style>
  </defs>
  <g id="Layer_1-2" data-name="Layer 1">
    <g>
      <g>
        <path class="cls-2" d="M345.13,65.79c-2.53-5.88-6.01-11.03-10.43-15.45-4.43-4.43-9.58-7.9-15.46-10.43-5.88-2.53-12.17-3.8-18.87-3.8s-12.99,1.27-18.86,3.8c-5.88,2.53-11.04,6-15.46,10.43-4.43,4.42-7.9,9.57-10.43,15.45-2.53,5.88-3.79,12.17-3.79,18.87v72.82c0,3.28,1.2,6.13,3.6,8.53s5.25,3.6,8.53,3.6,6.14-1.2,8.54-3.6,3.6-5.25,3.6-8.53v-30.72c7.21,4.3,15.3,6.44,24.27,6.44,6.7,0,12.99-1.26,18.87-3.79,5.88-2.53,11.03-6,15.46-10.43,4.42-4.42,7.9-9.57,10.43-15.45,2.53-5.88,3.79-12.17,3.79-18.87s-1.26-12.99-3.79-18.87ZM322.75,94.14c-1.26,2.91-3,5.47-5.21,7.68-2.22,2.21-4.78,3.95-7.68,5.22-2.91,1.26-6.07,1.89-9.49,1.89s-6.57-.63-9.48-1.89c-2.91-1.27-5.47-3.01-7.68-5.22s-3.95-4.77-5.21-7.68c-1.27-2.91-1.9-6.07-1.9-9.48s.63-6.57,1.9-9.48c1.26-2.91,3-5.47,5.21-7.68,2.21-2.21,4.77-3.95,7.68-5.22,2.91-1.26,6.07-1.89,9.48-1.89s6.58.63,9.49,1.89c2.9,1.27,5.46,3.01,7.68,5.22,2.21,2.21,3.95,4.77,5.21,7.68,1.26,2.91,1.9,6.07,1.9,9.48s-.64,6.57-1.9,9.48Z"/>
        <path class="cls-2" d="M413.58,39.72c-2.4-2.4-5.24-3.61-8.53-3.61-6.7,0-12.99,1.27-18.87,3.8-5.88,2.53-11.03,6-15.45,10.43-4.43,4.42-7.9,9.57-10.43,15.45-2.53,5.88-3.8,12.17-3.8,18.87v36.41c0,3.29,1.21,6.13,3.61,8.53,2.4,2.4,5.24,3.6,8.53,3.6s6.13-1.2,8.53-3.6c2.41-2.4,3.61-5.24,3.61-8.53v-36.41c0-3.41.63-6.57,1.89-9.48,1.27-2.91,3.01-5.47,5.22-7.68,2.21-2.21,4.77-3.95,7.68-5.22,2.91-1.26,6.07-1.89,9.48-1.89s6.13-1.2,8.53-3.61c2.4-2.4,3.61-5.24,3.61-8.53s-1.21-6.13-3.61-8.53Z"/>
        <path class="cls-2" d="M508.97,65.79c-2.53-5.88-6.01-11.03-10.43-15.45-4.43-4.43-9.58-7.9-15.46-10.43-5.87-2.53-12.16-3.8-18.86-3.8s-12.99,1.27-18.87,3.8c-5.88,2.53-11.03,6-15.46,10.43-4.42,4.42-7.9,9.57-10.43,15.45-2.53,5.88-3.79,12.17-3.79,18.87s1.26,12.99,3.79,18.87c2.53,5.88,6.01,11.03,10.43,15.45,4.43,4.43,9.58,7.9,15.46,10.43,5.88,2.53,12.16,3.79,18.87,3.79h6.07c3.28,0,6.12-1.2,8.53-3.6,2.4-2.4,3.6-5.24,3.6-8.53s-1.2-6.13-3.6-8.54c-2.41-2.4-5.25-3.6-8.53-3.6h-6.07c-4.55,0-8.66-1.1-12.33-3.32-3.67-2.21-6.57-5.15-8.72-8.81h57.46c3.28,0,6.13-1.2,8.53-3.61,2.4-2.4,3.6-5.24,3.6-8.53,0-6.7-1.26-12.99-3.79-18.87ZM443.17,72.52c2.15-3.66,5.05-6.6,8.72-8.82,3.67-2.21,7.78-3.31,12.33-3.31s8.5,1.1,12.23,3.31c3.72,2.22,6.66,5.16,8.82,8.82h-42.1Z"/>
        <path class="cls-2" d="M613.65,65.79c-2.53-5.88-6.01-11.03-10.43-15.45-4.43-4.43-9.58-7.9-15.46-10.43-5.88-2.53-12.17-3.8-18.87-3.8s-12.99,1.27-18.87,3.8c-5.87,2.53-11.03,6-15.45,10.43-4.43,4.42-7.9,9.57-10.43,15.45-2.53,5.88-3.79,12.17-3.79,18.87v72.82c0,3.28,1.2,6.13,3.6,8.53,2.4,2.4,5.24,3.6,8.53,3.6s6.13-1.2,8.54-3.6c2.4-2.4,3.6-5.25,3.6-8.53v-30.72c7.21,4.3,15.29,6.44,24.27,6.44,6.7,0,12.99-1.26,18.87-3.79,5.88-2.53,11.03-6,15.46-10.43,4.42-4.42,7.9-9.57,10.43-15.45,2.52-5.88,3.79-12.17,3.79-18.87s-1.27-12.99-3.79-18.87ZM591.27,94.14c-1.27,2.91-3.01,5.47-5.22,7.68s-4.77,3.95-7.68,5.22c-2.91,1.26-6.06,1.89-9.48,1.89s-6.57-.63-9.48-1.89c-2.91-1.27-5.47-3.01-7.68-5.22s-3.95-4.77-5.21-7.68c-1.27-2.91-1.9-6.07-1.9-9.48s.63-6.57,1.9-9.48c1.26-2.91,3-5.47,5.21-7.68,2.21-2.21,4.77-3.95,7.68-5.22,2.91-1.26,6.07-1.89,9.48-1.89s6.57.63,9.48,1.89c2.91,1.27,5.47,3.01,7.68,5.22,2.21,2.21,3.95,4.77,5.22,7.68,1.26,2.91,1.9,6.07,1.9,9.48s-.64,6.57-1.9,9.48Z"/>
      </g>
      <g>
        <path class="cls-1" d="M199.49,65.79c-2.53-5.88-6.01-11.03-10.43-15.45-4.43-4.43-9.58-7.9-15.46-10.43-5.87-2.53-12.16-3.8-18.86-3.8s-12.99,1.27-18.87,3.8c-5.88,2.53-11.03,6-15.46,10.43-4.42,4.42-7.9,9.57-10.43,15.45-2.53,5.88-3.79,12.17-3.79,18.87v36.41c0,3.29,1.2,6.13,3.6,8.53,2.4,2.4,5.25,3.6,8.54,3.6s6.13-1.2,8.53-3.6c2.4-2.4,3.6-5.24,3.6-8.53v-36.41c0-3.41.63-6.57,1.9-9.48,1.26-2.91,3-5.47,5.22-7.68,2.21-2.21,4.77-3.95,7.67-5.22,2.91-1.26,6.07-1.89,9.49-1.89s6.57.63,9.48,1.89c2.9,1.27,5.46,3.01,7.68,5.22,2.21,2.21,3.95,4.77,5.21,7.68,1.26,2.91,1.9,6.07,1.9,9.48v36.41c0,3.29,1.2,6.13,3.6,8.53,2.4,2.4,5.25,3.6,8.54,3.6s6.13-1.2,8.53-3.6c2.4-2.4,3.6-5.24,3.6-8.53v-36.41c0-6.7-1.26-12.99-3.79-18.87Z"/>
        <path class="cls-1" d="M236.09,39.72c-2.4-2.4-5.25-3.61-8.53-3.61s-6.14,1.21-8.54,3.61c-2.4,2.4-3.6,5.24-3.6,8.53v72.82c0,3.29,1.2,6.13,3.6,8.53,2.4,2.4,5.25,3.6,8.54,3.6s6.13-1.2,8.53-3.6c2.4-2.4,3.6-5.24,3.6-8.53V48.25c0-3.29-1.2-6.13-3.6-8.53Z"/>
        <path class="cls-1" d="M74.08,52.15c-.79.55-1.26,1.45-1.26,2.41v30.09c0,3.41-.64,6.57-1.9,9.48-1.27,2.91-3.01,5.47-5.21,7.68-2.22,2.21-4.78,3.95-7.69,5.22-2.9,1.26-6.06,1.89-9.48,1.89s-6.57-.63-9.48-1.89c-2.91-1.27-5.47-3.01-7.68-5.22s-3.95-4.77-5.21-7.68c-1.27-2.91-1.9-6.07-1.9-9.48v-36.41c0-3.29-1.2-6.13-3.6-8.53-2.41-2.4-5.25-3.61-8.54-3.61s-6.13,1.21-8.53,3.61c-2.4,2.4-3.6,5.24-3.6,8.53v36.41c0,6.7,1.26,12.99,3.79,18.87s6,11.03,10.43,15.45c4.42,4.43,9.58,7.9,15.45,10.43,5.88,2.53,12.17,3.79,18.87,3.79s12.99-1.26,18.87-3.79c5.88-2.53,11.03-6,15.46-10.43,4.42-4.42,7.9-9.57,10.43-15.45,2.52-5.88,3.79-12.17,3.79-18.87v-45.63c0-1.23-1.38-1.95-2.39-1.25l-20.62,14.38Z"/>
        <path class="cls-1" d="M219.55,8.71L236.77.11c.69-.34,1.49.16,1.49.92v12.91c0,.39-.22.75-.57.92l-17.22,8.6c-.69.34-1.49-.16-1.49-.92v-12.91c0-.39.22-.75.57-.92Z"/>
      </g>
    </g>
  </g>
</svg>