<?xml version="1.0" encoding="UTF-8"?>
<svg width="100px" height="100px" viewBox="0 0 100 100" version="1.1" xmlns="http://www.w3.org/2000/svg" xmlns:xlink="http://www.w3.org/1999/xlink">
    <!-- Generator: Sketch 60 (88103) - https://sketch.com -->
    <title>Object / Leadership</title>
    <desc>Created with Sketch.</desc>
    <defs>
        <path d="M17.3611731,32.1062424 C12.39425,28.0610909 9.99963462,22.8556364 10.3529038,16.5132121 C10.6236731,11.6980606 12.6988654,7.63169697 16.3563654,4.50715152 C23.7538654,-1.80557576 34.4640577,-1.03345455 40.8504038,6.23381818 C44.2180962,10.0647273 45.6523269,14.5998788 45.1044423,19.7162424 C44.5607885,24.8050303 42.1788654,28.8671515 38.16175,32.072303 C38.4515577,32.2101818 38.7054038,32.3374545 38.9655962,32.452 C41.3877115,33.5253333 43.5580962,34.9826061 45.5465577,36.7304848 C48.3071346,39.1529091 50.48175,42.0313939 52.0894423,45.3213939 C53.5025192,48.2189697 54.4523269,51.2692727 54.74425,54.4977576 C54.8373269,55.5371515 54.8754038,56.5807879 54.9113654,57.622303 C54.9705962,59.3510909 54.2471346,60.7786667 53.1175192,62.0089697 C51.2644423,64.0262424 48.8825192,65.1992727 46.35675,66.1135152 C43.1625192,67.271697 39.86675,68.0013939 36.4927115,68.3535152 C34.5634808,68.5550303 32.6279038,68.7310909 30.6923269,68.8307879 C28.9534808,68.922 27.2040577,68.9898788 25.4694423,68.9007879 C23.0832885,68.7777576 20.69925,68.5486667 18.3236731,68.2729091 C15.4425192,67.942 12.6163654,67.3013939 9.86636538,66.3638182 C7.65155769,65.6107879 5.53405769,64.6562424 3.67040385,63.1947273 C1.40059615,61.4171515 0.361942308,59.1707879 0.613673077,56.2265455 C0.835788462,53.6259394 1.23348077,51.0804848 2.08175,48.6198788 C3.26213462,45.1941212 5.01155769,42.082303 7.40405769,39.3438182 C9.84521154,36.5565455 12.6925192,34.3038182 16.0390577,32.7044242 C16.4600192,32.5029091 16.8873269,32.3226061 17.3611731,32.1062424" id="path-1"></path>
        <linearGradient x1="33.1864199%" y1="22.9570312%" x2="69.3239553%" y2="77.1875%" id="linearGradient-3">
            <stop stop-color="#ED4B54" offset="0%"></stop>
            <stop stop-color="#EE4E53" offset="6.80859375%"></stop>
            <stop stop-color="#FF764C" offset="100%"></stop>
        </linearGradient>
        <path d="M28,42.0015283 C27.9991321,42.3155707 27.9896685,42.6288895 27.9704953,42.9403024 C27.8840885,44.3293238 27.0453109,45.3389366 26.0189673,46.1813523 C24.0105374,47.831887 21.6185458,48.601422 19.1696523,49.2080471 C17.829294,49.5402976 16.459431,49.7396479 15.1022129,49.9947305 C15.0073762,50.0118789 14.9062171,49.9818692 14.8746048,49.9797257 C14.9631191,37.9201046 10.0632244,28.7114072 0,22.3686381 C5.3024236,15.9315528 6.53108535,8.77209061 3.70495258,0.879533788 C7.45626976,-0.76028315 13.256059,-0.305850221 17.2876712,3.94481251 C19.9536354,6.75715215 21.1780822,10.161112 20.8640674,14.0966727 C20.5542676,18.0022236 18.7818757,21.1017991 15.7871444,23.5347302 C16.6933614,24.0170293 17.5679663,24.4393089 18.4004215,24.9323258 C21.6248683,26.8422302 24.0990516,29.4809422 25.8166491,32.8591794 C26.9041096,34.9963003 27.5911486,37.2556036 27.8609062,39.6349459 C27.946312,40.3843625 27.9979124,41.1469259 28,41.9059653 L28,42.0015287" id="path-4"></path>
        <linearGradient x1="52.2897378%" y1="26.2192415%" x2="-5.55786062%" y2="65.9921707%" id="linearGradient-6">
            <stop stop-color="#FFFFFF" offset="0%"></stop>
            <stop stop-color="#000000" offset="100%"></stop>
        </linearGradient>
        <path d="M28,42.0015283 C27.9991321,42.3155707 27.9896685,42.6288895 27.9704953,42.9403024 C27.8840885,44.3293238 27.0453109,45.3389366 26.0189673,46.1813523 C24.0105374,47.831887 21.6185458,48.601422 19.1696523,49.2080471 C17.829294,49.5402976 16.459431,49.7396479 15.1022129,49.9947305 C15.0073762,50.0118789 14.9062171,49.9818692 14.8746048,49.9797257 C14.9631191,37.9201046 10.0632244,28.7114072 0,22.3686381 C5.3024236,15.9315528 6.53108535,8.77209061 3.70495258,0.879533788 C7.45626976,-0.76028315 13.256059,-0.305850221 17.2876712,3.94481251 C19.9536354,6.75715215 21.1780822,10.161112 20.8640674,14.0966727 C20.5542676,18.0022236 18.7818757,21.1017991 15.7871444,23.5347302 C16.6933614,24.0170293 17.5679663,24.4393089 18.4004215,24.9323258 C21.6248683,26.8422302 24.0990516,29.4809422 25.8166491,32.8591794 C26.9041096,34.9963003 27.5911486,37.2556036 27.8609062,39.6349459 C27.946312,40.3843625 27.9979124,41.1469259 28,41.9059653 L28,42.0015287" id="path-7"></path>
        <path d="M42.9415059,6.70652739 C43.4537508,5.65056463 44.7322285,5.20617149 45.7908679,5.72039784 C46.8537759,6.22615956 47.2998558,7.49162194 46.7876109,8.54546854 L46.7876109,8.54546854 L40.8263616,20.8043708 C40.4571185,21.5598392 39.6951542,22 38.9011747,22 C38.5895591,22 38.2758092,21.9343991 37.9769997,21.7905004 C36.9140916,21.2826225 36.4680117,20.0192763 36.9802566,18.9654297 L36.9802566,18.9654297 Z M1.20913214,5.50920529 C2.26563712,4.99709509 3.54624923,5.44360439 4.05849407,6.49533483 L4.05849407,6.49533483 L10.0197434,18.7542371 C10.5319883,19.8080837 10.0859084,21.0735461 9.02300032,21.5793078 C8.72632519,21.7232066 8.41044087,21.7909236 8.09882526,21.7909236 C7.30484575,21.7909236 6.54288155,21.3507628 6.17363839,20.5931783 L6.17363839,20.5931783 L0.212389052,8.33427599 C-0.299855789,7.28042939 0.146224093,6.01496701 1.20913214,5.50920529 Z M23.5001067,0 C24.6782699,0 25.6344602,0.945922549 25.6344602,2.11615783 L25.6344602,2.11615783 L25.6344602,15.1368769 C25.6344602,16.3071122 24.6782699,17.2530348 23.5001067,17.2530348 C22.3219436,17.2530348 21.3657532,16.3071122 21.3657532,15.1368769 L21.3657532,15.1368769 L21.3657532,2.11615783 C21.3657532,0.945922549 22.3219436,0 23.5001067,0 Z" id="path-9"></path>
        <linearGradient x1="33.3130218%" y1="22.9570312%" x2="69.1784509%" y2="77.1875%" id="linearGradient-11">
            <stop stop-color="#ED4B54" offset="0%"></stop>
            <stop stop-color="#EE4E53" offset="6.80859375%"></stop>
            <stop stop-color="#FF764C" offset="100%"></stop>
        </linearGradient>
        <path d="M13,8 C13,8 8.00101564,21.5 3,8 L3,8 Z M1.4988161,0 C2.32754538,0 3,0.67192429 3,1.50236593 C3,2.32807571 2.32754538,3 1.4988161,3 C0.670086819,3 0,2.32807571 0,1.50236593 C0,0.67192429 0.670086819,0 1.4988161,0 Z M13.5,0 C14.3280757,0 15,0.67192429 15,1.50236593 C15,2.32807571 14.3280757,3 13.5,3 C12.6719243,3 12,2.32807571 12,1.50236593 C12,0.67192429 12.6719243,0 13.5,0 Z" id="path-12"></path>
    </defs>
    <g id="Object-/-Leadership" stroke="none" stroke-width="1" fill="none" fill-rule="evenodd">
        <g id="Group-27" transform="translate(6.000000, 3.000000)">
            <g id="Outline" transform="translate(18.000000, 25.000000)">
                <mask id="mask-2" fill="white">
                    <use xlink:href="#path-1"></use>
                </mask>
                <use id="Mask" fill="#FFFFFF" xlink:href="#path-1"></use>
                <g id="Gradient-/-02-Sunset" mask="url(#mask-2)" fill="url(#linearGradient-3)" fill-rule="nonzero">
                    <g transform="translate(-1.057692, -6.363636)" id="Rectangle-2">
                        <rect x="0" y="0" width="68.75" height="77.4242424"></rect>
                    </g>
                </g>
            </g>
            <g id="Group-14" transform="translate(63.058140, 33.048252)">
                <mask id="mask-5" fill="white">
                    <use xlink:href="#path-4"></use>
                </mask>
                <g id="Clip-13"></g>
                <g id="Colour-/-09-Indigo" mask="url(#mask-5)" fill="#5053A3" fill-rule="nonzero">
                    <g transform="translate(-19.000000, -43.000000)" id="Rectangle-2">
                        <rect x="0" y="0" width="98" height="106"></rect>
                    </g>
                </g>
                <path d="M15.7871072,23.5347302 C16.6933222,24.0170293 17.567925,24.4393089 18.4003782,24.9323258 C21.6248174,26.8422302 24.0989949,29.4809422 25.8165884,32.8591794 C26.9040463,34.9963003 27.5910837,37.2556036 27.8608407,39.6349459 C27.9851818,40.7260136 28.0378687,41.8449475 27.9704295,42.9403024 C27.8840229,44.3293238 27.0452472,45.3389366 26.0189061,46.1813523 C24.0104809,47.831887 21.618495,48.601422 19.1696072,49.2080471 C17.8292521,49.5402976 16.4593923,49.7396479 15.1021773,49.9947305 C15.0073409,50.0118789 14.906182,49.9818692 14.8745699,49.9797257 C14.9630839,37.9201046 10.0632008,28.7114072 0,22.3686381 C5.30241113,15.9315528 6.53106999,8.77209061 3.70494387,0.879533788 C7.45625222,-0.76028315 13.2560278,-0.305850221 17.2876306,3.94481251 C19.9535885,6.75715215 21.1780324,10.161112 20.8640184,14.0966727 C20.5542193,18.0022236 18.7818315,21.1017991 15.7871072,23.5347302" id="Fill-12" fill="url(#linearGradient-6)" style="mix-blend-mode: multiply;"></path>
            </g>
            <g id="Group-14-Copy" transform="translate(14.941860, 58.048252) scale(-1, 1) translate(-14.941860, -58.048252) translate(0.941860, 33.048252)">
                <mask id="mask-8" fill="white">
                    <use xlink:href="#path-7"></use>
                </mask>
                <g id="Clip-13"></g>
                <g id="Colour-/-08-Dark-Navy" mask="url(#mask-8)" fill="#222950" fill-rule="nonzero">
                    <g transform="translate(-19.000000, -43.000000)" id="Rectangle-2">
                        <rect x="0" y="0" width="98" height="106"></rect>
                    </g>
                </g>
                <path d="M15.7871072,23.5347302 C16.6933222,24.0170293 17.567925,24.4393089 18.4003782,24.9323258 C21.6248174,26.8422302 24.0989949,29.4809422 25.8165884,32.8591794 C26.9040463,34.9963003 27.5910837,37.2556036 27.8608407,39.6349459 C27.9851818,40.7260136 28.0378687,41.8449475 27.9704295,42.9403024 C27.8840229,44.3293238 27.0452472,45.3389366 26.0189061,46.1813523 C24.0104809,47.831887 21.618495,48.601422 19.1696072,49.2080471 C17.8292521,49.5402976 16.4593923,49.7396479 15.1021773,49.9947305 C15.0073409,50.0118789 14.906182,49.9818692 14.8745699,49.9797257 C14.9630839,37.9201046 10.0632008,28.7114072 0,22.3686381 C5.30241113,15.9315528 6.53106999,8.77209061 3.70494387,0.879533788 C7.45625222,-0.76028315 13.2560278,-0.305850221 17.2876306,3.94481251 C19.9535885,6.75715215 21.1780324,10.161112 20.8640184,14.0966727 C20.5542193,18.0022236 18.7818315,21.1017991 15.7871072,23.5347302" id="Fill-12" fill="url(#linearGradient-6)" style="mix-blend-mode: multiply;"></path>
            </g>
            <g id="Center" transform="translate(21.697674, 0.000000)">
                <mask id="mask-10" fill="white">
                    <use xlink:href="#path-9"></use>
                </mask>
                <use id="Mask" fill="#FFFFFF" xlink:href="#path-9"></use>
                <g id="Gradient-/-02-Sunset" mask="url(#mask-10)" fill="url(#linearGradient-11)" fill-rule="nonzero">
                    <g transform="translate(-15.000000, -6.000000)" id="Rectangle-2">
                        <rect x="0" y="0" width="69" height="78"></rect>
                    </g>
                </g>
            </g>
            <g id="Center" transform="translate(38.000000, 38.000000)">
                <mask id="mask-13" fill="white">
                    <use xlink:href="#path-12"></use>
                </mask>
                <use id="Mask" fill="#222950" xlink:href="#path-12"></use>
                <g id="Colour-/-01-White" mask="url(#mask-13)" fill="#FFFFFF" fill-rule="nonzero">
                    <g transform="translate(-20.000000, -15.000000)" id="Rectangle-2">
                        <rect x="0" y="0" width="65" height="73"></rect>
                    </g>
                </g>
            </g>
        </g>
    </g>
</svg>