<?xml version="1.0" encoding="UTF-8"?>
<svg width="100px" height="100px" viewBox="0 0 100 100" version="1.1" xmlns="http://www.w3.org/2000/svg" xmlns:xlink="http://www.w3.org/1999/xlink">
    <!-- Generator: Sketch 60 (88103) - https://sketch.com -->
    <title>Object / build</title>
    <desc>Created with Sketch.</desc>
    <defs>
        <linearGradient x1="28.6759976%" y1="46.1175352%" x2="74.5078125%" y2="53.9032146%" id="linearGradient-1">
            <stop stop-color="#ED4B54" offset="0%"></stop>
            <stop stop-color="#EE4E53" offset="6.80859375%"></stop>
            <stop stop-color="#FF764C" offset="100%"></stop>
        </linearGradient>
        <linearGradient x1="28.6759976%" y1="46.1173714%" x2="74.5078125%" y2="53.9033793%" id="linearGradient-2">
            <stop stop-color="#ED4B54" offset="0%"></stop>
            <stop stop-color="#EE4E53" offset="6.80859375%"></stop>
            <stop stop-color="#FF764C" offset="100%"></stop>
        </linearGradient>
    </defs>
    <g id="Object-/-build" stroke="none" stroke-width="1" fill="none" fill-rule="evenodd">
        <g id="Group-34" transform="translate(8.000000, 14.000000)" fill-rule="nonzero">
            <path d="M3.87552636,10.0402749 C3.44201432,9.61405289 3.43553432,8.91858682 3.86240436,8.48685678 C4.2868444,8.05269674 4.98279646,8.04751274 5.4176045,8.47308678 C5.85111654,8.89930882 5.85468054,9.59477489 5.4307265,10.0278009 C5.00369446,10.459693 4.3077424,10.466173 3.87552636,10.0402749 Z M18.2078297,7.76773872 L15.4313114,1.70530257e-13 L0.960984089,6.5279526 L4.88397645,13.7797213 L18.2078297,7.76773872 L18.2078297,7.76773872 Z" id="Fill-3" fill="#777EA8"></path>
            <path d="M38.7781056,57.1079213 L1.75591816,57.1079213 C0.786186073,57.1079213 -4.40536496e-13,57.8939453 -4.40536496e-13,58.8635154 L-4.40536496e-13,70.7107385 C-4.40536496e-13,71.6806326 0.786186073,72.4663327 1.75591816,72.4663327 L38.7781056,72.4663327 C39.7476757,72.4663327 40.5340237,71.6806326 40.5340237,70.7107385 L40.5340237,58.8635154 C40.5340237,57.8939453 39.7476757,57.1079213 38.7781056,57.1079213" id="Fill-4" fill="url(#linearGradient-1)"></path>
            <path d="M81.6290535,57.1079213 L44.6065421,57.1079213 C43.636972,57.1079213 42.850786,57.8939453 42.850786,58.8635154 L42.850786,70.7107385 C42.850786,71.6806326 43.636972,72.4663327 44.6065421,72.4663327 L81.6290535,72.4663327 C82.5986236,72.4663327 83.3849717,71.6806326 83.3849717,70.7107385 L83.3849717,58.8635154 C83.3849717,57.8939453 82.5986236,57.1079213 81.6290535,57.1079213" id="Fill-5" fill="#FF764C"></path>
            <path d="M1.75591816,54.7271691 L17.3527936,54.7271691 C18.3222017,54.7271691 19.1083878,53.940983 19.1083878,52.9714129 L19.1083878,41.1241898 C19.1083878,40.1546197 18.3222017,39.3684336 17.3527936,39.3684336 L1.75591816,39.3684336 C0.786186073,39.3684336 -2.4158453e-13,40.1546197 -2.4158453e-13,41.1241898 L-2.4158453e-13,52.9714129 C-2.4158453e-13,53.940983 0.786186073,54.7271691 1.75591816,54.7271691" id="Fill-6" fill="#FF764C"></path>
            <path d="M23.1810681,39.3684336 C22.2114981,39.3684336 21.425312,40.1546197 21.425312,41.1241898 L21.425312,52.9714129 C21.425312,53.940983 22.2114981,54.7271691 23.1810681,54.7271691 L60.2039036,54.7271691 C61.1733116,54.7271691 61.9593357,53.940983 61.9593357,52.9714129 L61.9593357,41.1241898 C61.9593357,40.1546197 61.1733116,39.3684336 60.2039036,39.3684336 L23.1810681,39.3684336" id="Fill-7" fill="url(#linearGradient-2)"></path>
            <path d="M6.66775862,14.4160573 C7.25484667,15.9352935 8.32939277,19.0823058 8.57012479,19.7908938 L24.3170122,19.7908938 L27.6811046,25.7484444 C27.8053586,25.9823724 27.9566666,26.1924864 28.1199626,26.3778144 C28.1601386,26.4192864 28.1977226,26.4618924 28.2411386,26.5017444 C29.0189007,27.2509945 30.0829168,27.4637005 30.8893529,27.0319705 C31.978641,26.4482844 32.290491,24.9058823 31.5866009,23.5933582 L27.3867505,15.7306875 C26.9749465,14.9078894 26.1877884,14.2333213 25.7555724,13.9903213 L20.0280618,10.791793 C19.1945718,10.2719349 18.5974397,9.7562889 18.1393037,9.23934685 L6.66775862,14.4160573" id="Fill-8" fill="#FAC1C2"></path>
            <path d="M1.75591816,36.9878434 L38.7781056,36.9878434 C39.7476757,36.9878434 40.5340237,36.2016573 40.5340237,35.2320873 L40.5340237,23.3847022 C40.5340237,22.4151321 39.7476757,21.629108 38.7781056,21.629108 L32.606067,21.629108 L33.1960711,22.7336241 C33.7356931,23.7398062 33.9147031,24.8822303 33.6987571,25.9483524 C33.4607791,27.1235005 32.750895,28.1047346 31.7511929,28.6404686 C31.2164309,28.9265607 30.6060148,29.0778687 29.9853928,29.0778687 L29.9852308,29.0778687 C28.8946467,29.0778687 27.8314406,28.6344746 26.9890405,27.8290106 C26.9326645,27.7765226 26.8798525,27.7224146 26.8281745,27.6674966 L26.7505765,27.5839045 C26.4878124,27.2853385 26.2629564,26.9637685 26.0818404,26.6274565 L23.2593141,21.629108 L1.75591816,21.629108 C0.786186073,21.629108 -4.40536496e-13,22.4151321 -4.40536496e-13,23.3847022 L-4.40536496e-13,35.2320873 C-4.40536496e-13,36.2016573 0.786186073,36.9878434 1.75591816,36.9878434" id="Fill-9" fill="url(#linearGradient-2)"></path>
        </g>
    </g>
</svg>