<?xml version="1.0" encoding="UTF-8"?>
<svg width="100px" height="100px" viewBox="0 0 100 100" version="1.1" xmlns="http://www.w3.org/2000/svg" xmlns:xlink="http://www.w3.org/1999/xlink">
    <!-- Generator: Sketch 60 (88103) - https://sketch.com -->
    <title>Object / Personal statement</title>
    <desc>Created with Sketch.</desc>
    <defs>
        <polygon id="path-1" points="0 0.0450890046 1.41855843 0.0450890046 1.41855843 2.27877521 0 2.27877521"></polygon>
        <rect id="path-3" x="0" y="0" width="100" height="100"></rect>
        <rect id="path-5" x="0" y="0" width="64.32" height="81.2933333" rx="8"></rect>
        <path d="M9.70278646,23.5197917 C10.3425312,13.8466316 17.8419366,6.00670108 32.2010026,0 L56.32,0 C60.738278,-8.11624501e-16 64.32,3.581722 64.32,8 L64.32,73.2933333 C64.32,77.7116113 60.738278,81.2933333 56.32,81.2933333 L32.16,81.2933333 C28.7038472,81.2933333 25.9020818,78.4915679 25.9020818,75.0354151 C25.9020818,73.577311 26.4112449,72.1649757 27.341645,71.0422899 C29.3627705,68.6034732 30.3733333,65.7671543 30.3733333,62.5333333 C30.3733333,36.6266667 8.27467448,45.1133333 9.70278646,23.5197917 Z" id="path-7"></path>
        <linearGradient x1="34.3997781%" y1="22.9101562%" x2="68.4659763%" y2="72.8710938%" id="linearGradient-9">
            <stop stop-color="#F3F6FA" offset="0%"></stop>
            <stop stop-color="#BABCC5" offset="100%"></stop>
        </linearGradient>
        <path d="M44.8107059,33.9466667 C46.2061829,33.9466667 47.3466667,35.3528053 47.3466667,37.0733333 C47.3466667,38.7938613 46.2061829,40.2 44.8107059,40.2 L2.53596075,40.2 C1.14223026,40.2 0,38.7938613 0,37.0733333 C0,35.3528053 1.14223026,33.9466667 2.53596075,33.9466667 L44.8107059,33.9466667 Z M16.9973575,22.3333333 C18.45787,22.3333333 19.6533333,23.739472 19.6533333,25.46 C19.6533333,27.180528 18.45787,28.5866667 16.9973575,28.5866667 L16.0541479,28.5866667 C14.5936354,28.5866667 13.4,27.180528 13.4,25.46 C13.4,23.739472 14.5936354,22.3333333 16.0541479,22.3333333 L16.9973575,22.3333333 Z M9.00567249,22.3333333 C10.4396168,22.3333333 11.6133333,23.739472 11.6133333,25.46 C11.6133333,27.180528 10.4396168,28.5866667 9.00567249,28.5866667 L2.60586617,28.5866667 C1.17192191,28.5866667 0,27.180528 0,25.46 C0,23.739472 1.17192191,22.3333333 2.60586617,22.3333333 L9.00567249,22.3333333 Z M44.7403977,11.6133333 C46.1745636,11.6133333 47.3466667,13.019472 47.3466667,14.74 C47.3466667,16.460528 46.1745636,17.8666667 44.7403977,17.8666667 L38.3396023,17.8666667 C36.9054364,17.8666667 35.7333333,16.460528 35.7333333,14.74 C35.7333333,13.019472 36.9054364,11.6133333 38.3396023,11.6133333 L44.7403977,11.6133333 Z M44.8107059,0 C46.2061829,0 47.3466667,1.20526171 47.3466667,2.68 C47.3466667,4.15473829 46.2061829,5.36 44.8107059,5.36 L2.53596075,5.36 C1.14223026,5.36 0,4.15473829 0,2.68 C0,1.20526171 1.14223026,0 2.53596075,0 L44.8107059,0 Z" id="path-10"></path>
        <path d="M44.8107059,33.9466667 C46.5575846,33.9466667 47.3466667,34.5602074 47.3466667,37.072257 C47.3466667,39.5843066 46.2061829,40.2 44.8107059,40.2 L2.53596075,40.2 C1.14223026,40.2 7.46069873e-14,38.7921928 7.46069873e-14,37.072257 C7.46069873e-14,35.3544739 1.14223026,33.9466667 2.53596075,33.9466667 L44.8107059,33.9466667 Z M44.8456778,10.72 C46.2219107,10.72 47.3466667,12.1261387 47.3466667,13.8466667 C47.3466667,15.5671947 46.2219107,16.9733333 44.8456778,16.9733333 L24.8343222,16.9733333 C23.4580893,16.9733333 22.3333333,15.5671947 22.3333333,13.8466667 C22.3333333,12.1261387 23.4580893,10.72 24.8343222,10.72 L44.8456778,10.72 Z M22.5123445,0 C23.8885773,0 25.0133333,1.40613866 25.0133333,3.12666667 C25.0133333,4.84719467 23.8885773,6.25333333 22.5123445,6.25333333 L2.50098884,6.25333333 C1.124756,6.25333333 0,4.84719467 0,3.12666667 C0,1.40613866 1.124756,0 2.50098884,0 L22.5123445,0 Z M31.2925188,0 C32.7530313,0 33.9466667,1.40613866 33.9466667,3.12666667 C33.9466667,4.84719467 32.7530313,6.25333333 31.2925188,6.25333333 L30.3493092,6.25333333 C28.8887966,6.25333333 27.6933333,4.84719467 27.6933333,3.12666667 C27.6933333,1.40613866 28.8887966,0 30.3493092,0 L31.2925188,0 Z" id="path-12"></path>
        <linearGradient x1="33.1054688%" y1="19.3828125%" x2="77.125%" y2="79.15625%" id="linearGradient-14">
            <stop stop-color="#5052A3" offset="0%"></stop>
            <stop stop-color="#FF764C" offset="100%"></stop>
        </linearGradient>
        <path d="M67.8933333,12.5066667 C67.5967517,12.4897265 62.2974695,12.0335192 63.3070887,0 C59.5978286,1.96064537 57.7471784,2.94096806 57.7551382,2.94096806 C57.7065831,2.94096806 56.5371147,1.96064537 54.2467331,0 L49.9494539,2.94117271 L45.3197241,0 L40.688084,2.94117271 L35.917466,0 L30.6998264,2.94117271 L26.4211232,0 L22.1534045,2.94117271 L17.7194855,0 L13.4068735,2.94117271 L9.12721514,0 L4.37187995,2.94117271 L0.608940888,0 C0.608940888,0 -3.39416461,12.5066667 9.12721514,12.5066667 C19.7490806,12.5066667 39.3377866,12.5066667 67.8933333,12.5066667 Z" id="path-15"></path>
        <linearGradient x1="28.6759976%" y1="22.9641556%" x2="74.5078125%" y2="77.1803376%" id="linearGradient-17">
            <stop stop-color="#ED4B54" offset="0%"></stop>
            <stop stop-color="#EE4E53" offset="6.80859375%"></stop>
            <stop stop-color="#FF764C" offset="100%"></stop>
        </linearGradient>
        <linearGradient x1="28.6759976%" y1="22.9570312%" x2="74.5078125%" y2="77.1875%" id="linearGradient-18">
            <stop stop-color="#ED4B54" offset="0%"></stop>
            <stop stop-color="#EE4E53" offset="6.80859375%"></stop>
            <stop stop-color="#FF764C" offset="100%"></stop>
        </linearGradient>
    </defs>
    <g id="Object-/-Personal-statement" stroke="none" stroke-width="1" fill="none" fill-rule="evenodd">
        <g id="Group-10" transform="translate(41.000000, 31.000000)">
            <path d="M4.37103968,2.98558801 L3.83175161,2.05206709 C3.74761183,1.90638286 3.53757688,1.90570549 3.45251781,2.05080911 L2.2706902,4.06638982 C2.19153397,4.2013328 2.19153397,4.36854791 2.2706902,4.50349089 L2.86532957,5.51766793 C3.18771217,4.57650235 3.70338885,3.71376722 4.37103968,2.98558801" id="Fill-1" fill="#FEFEFE"></path>
            <path d="M1.97300763,0.110847746 L2.68580074,1.34483331 C2.76350544,1.47924406 2.76350544,1.64495927 2.68580074,1.77937002 L1.97300763,3.01335559 C1.88794856,3.1605881 1.67568795,3.16126548 1.58970958,3.01461357 L0.866900985,1.78183761 C0.787309303,1.64612048 0.787309303,1.47803446 0.866900985,1.34236573 L1.58970958,0.109589762 C1.67568795,-0.0370621448 1.88794856,-0.0363847688 1.97300763,0.110847746" id="Fill-3" fill="#FEFEFE"></path>
            <g id="Group-7" transform="translate(0.000000, 3.104366)">
                <mask id="mask-2" fill="white">
                    <use xlink:href="#path-1"></use>
                </mask>
                <g id="Clip-6"></g>
                <path d="M0.904684052,0.155907767 L1.36031619,0.944663752 C1.43797251,1.07912289 1.43797251,1.24474133 1.36031619,1.37920047 L0.904684052,2.16795645 C0.819624978,2.31514058 0.607412749,2.31586634 0.521434379,2.16921443 L0.0596574733,1.38161967 C-0.0198858244,1.24595093 -0.0198858244,1.07791329 0.0596574733,0.942244552 L0.521434379,0.154649783 C0.607412749,0.00799787537 0.819624978,0.00872363539 0.904684052,0.155907767" id="Fill-5" fill="#FEFEFE" mask="url(#mask-2)"></path>
            </g>
            <path d="M15.7382995,4.19648472 C14.2885213,1.72377197 11.4160599,0.269590815 8.40928453,0.778735658 C6.8044356,1.05050859 5.40608959,1.85653767 4.37105904,2.98557833 L5.23901963,3.20258057 C5.35049637,3.23049814 5.40429938,3.35731261 5.34681919,3.45679012 L4.06546569,5.67495464 C4.01683977,5.75909442 3.91779772,5.80007567 3.82393275,5.77491599 L2.86530054,5.51770664 C2.90429805,5.40390747 2.94634374,5.29141467 2.99090541,5.18008308 C2.56648095,6.24104746 2.39079864,7.41421433 2.53149932,8.6149117 C3.00406586,12.646557 6.72213442,15.443878 10.6960092,14.8240306 C11.3237916,14.7261013 11.918818,14.5478063 12.473589,14.3026929 C12.6749632,14.2137148 12.7585708,13.9718915 12.6583675,13.7758396 L11.8132925,12.123284 C11.724895,11.950408 11.5223595,11.8725581 11.3396132,11.9379249 C11.1250785,12.0145651 10.9032863,12.0778998 10.6755428,12.126429 C7.94087902,12.7095529 9.27468078,11.5664325 8.56406495,10.9402468 C8.16809029,10.5913981 7.21371587,10.2886594 6.47847259,10.2586614 C4.82978775,10.1914076 4.84962519,9.59154276 5.1641212,8.92171465 C5.3818492,8.45805077 5.2811621,8.20122849 5.32446578,7.99999943 C5.36772108,7.79881875 5.37086604,7.7221785 5.47039193,7.61902381 C5.62125324,7.4626951 5.50145446,7.25783724 5.37212402,7.07775199 C5.07925566,6.67002001 5.15570238,6.40811741 5.56338598,6.32349379 C5.97111795,6.23887018 6.80501621,5.80428508 6.86728642,5.46395202 C6.92960501,5.12352218 7.46390954,3.72033777 8.60001427,3.44469412 C10.4736847,2.99017481 12.3998518,3.57455677 13.4714123,5.40226241 C13.5751959,5.57920271 13.7967463,5.64742415 13.9793959,5.55399464 L15.5810031,4.73499866 C15.7781679,4.6341664 15.8502601,4.38755314 15.7382995,4.19648472" id="Fill-8" fill="#FEFEFE"></path>
        </g>
        <g id="UCAS" transform="translate(0.000000, -4.000000)">
            <g id="Group-3">
                <mask id="mask-4" fill="white">
                    <use xlink:href="#path-3"></use>
                </mask>
                <g id="Mask"></g>
                <g id="Object-/-Paper-double-side" mask="url(#mask-4)">
                    <g transform="translate(-0.000000, 10.666667)">
                        <g id="Colour-/-24.-Gradient-/-Sunset" transform="translate(14.293333, 4.466667)">
                            <mask id="mask-6" fill="white">
                                <use xlink:href="#path-5"></use>
                            </mask>
                            <use id="Mask" fill="#D8D8D8" xlink:href="#path-5"></use>
                            <g id="Colour-/-02-Mist" mask="url(#mask-6)" fill="#F3F6FA" fill-rule="nonzero">
                                <g transform="translate(-8.933333, -20.546667)" id="Rectangle-2">
                                    <rect x="0" y="0" width="117.92" height="127.746667"></rect>
                                </g>
                            </g>
                        </g>
                        <g id="Colour-/-24.-Gradient-/-Sunset-Copy" transform="translate(14.293333, 4.466667)">
                            <mask id="mask-8" fill="white">
                                <use xlink:href="#path-7"></use>
                            </mask>
                            <g id="Mask"></g>
                            <g id="Gradient-/-05--Cloudy" mask="url(#mask-8)" fill="url(#linearGradient-9)" fill-rule="nonzero">
                                <g transform="translate(-5.360000, -19.653333)" id="Rectangle-2">
                                    <rect x="0" y="0" width="117.92" height="127.746667"></rect>
                                </g>
                            </g>
                        </g>
                        <g id="Colour-/-24.-Gradient-/-Sunset" transform="translate(22.333333, 14.293333)">
                            <mask id="mask-11" fill="white">
                                <use xlink:href="#path-10"></use>
                            </mask>
                            <use id="Mask" fill="#CFD5FF" xlink:href="#path-10"></use>
                            <g id="Colour-/-21-Orange" mask="url(#mask-11)" fill="#FF764C" fill-rule="nonzero">
                                <g transform="translate(-20.546667, -11.613333)" id="Rectangle-2">
                                    <rect x="0" y="0" width="86.6533333" height="86.6533333"></rect>
                                </g>
                            </g>
                        </g>
                        <g id="Zigzag" transform="translate(22.333333, 25.906667)">
                            <mask id="mask-13" fill="white">
                                <use xlink:href="#path-12"></use>
                            </mask>
                            <use id="Mask" fill="#FFFFFF" xlink:href="#path-12"></use>
                            <g id="Gradient-/-03-Dawn" mask="url(#mask-13)" fill="url(#linearGradient-14)" fill-rule="nonzero">
                                <g transform="translate(-7.146667, -18.760000)" id="Rectangle-2">
                                    <rect x="0" y="0" width="75.9333333" height="75.9333333"></rect>
                                </g>
                            </g>
                        </g>
                        <g id="Colour-/-24.-Gradient-/-Sunset" transform="translate(5.360000, 73.253333)">
                            <mask id="mask-16" fill="white">
                                <use xlink:href="#path-15"></use>
                            </mask>
                            <use id="Mask" fill="#FF764C" xlink:href="#path-15"></use>
                            <g id="Colour-/-09-Indigo" mask="url(#mask-16)" fill="#5053A3" fill-rule="nonzero">
                                <g transform="translate(-2.680000, -32.160000)" id="Rectangle-2">
                                    <rect x="0" y="0" width="75.9333333" height="75.9333333"></rect>
                                </g>
                            </g>
                        </g>
                    </g>
                </g>
                <g id="Object-/-pencil" mask="url(#mask-4)">
                    <g transform="translate(40.000000, 20.000000)" id="Group">
                        <g transform="translate(4.200000, 3.000000)">
                            <path d="M45.8083914,1.07285399 L50.9169594,6.18142192 C52.3474313,7.6118939 52.3474313,9.85951788 50.9169594,11.2899899 L48.3629034,13.8445018 L38.1434875,3.62690995 L40.6979995,1.07285399 C42.1284715,-0.357617996 44.3779194,-0.357617996 45.8083914,1.07285399 Z" id="Fill-30-Copy" fill="url(#linearGradient-17)" fill-rule="nonzero"></path>
                            <path d="M7.6434719,34.1292056 L3.65529595,38.1173815 L2.91064796,38.8602055 L1.84543198,39.9272455 L0.400823995,49.1078934 L-1.13686838e-13,51.5479494 C-1.13686838e-13,52.0449893 -1.13686838e-13,51.9879893 0.441863994,51.9879893 L2.88191996,51.5889894 L12.0625678,50.1443814 L13.1296078,49.0791654 L13.8669598,48.3399894 C13.8687838,48.3399894 13.8687838,48.3399894 13.8687838,48.3399894 L17.8606078,44.3481654 L7.6434719,34.1292056 Z" id="Fill-31-Copy" fill="url(#linearGradient-18)" fill-rule="nonzero"></path>
                            <path d="M38.1434875,3.62690995 L36.4407835,5.33189393 L38.1434875,7.03459791 L4.13090395,41.0476375 C4.77887994,41.6231095 5.21207993,42.2888695 5.61609593,42.9678535 L39.8466475,8.73730189 L43.2538795,12.1431658 L9.02013589,46.3732614 C9.73286388,46.7955174 10.3721759,47.2943814 10.9421759,47.8589094 L44.9570394,13.8458698 L46.6597434,15.5490298 L48.3629034,13.8458698 L38.1434875,3.62690995 Z" id="Fill-32-Copy" fill="#1D1E2B" fill-rule="nonzero"></path>
                            <path d="M0.894215989,45.9797334 L0.400823995,49.1078934 L2.25597319e-13,51.5479494 C2.25597319e-13,52.0449893 2.25597319e-13,51.9879893 0.441863994,51.9879893 L2.88191996,51.5889894 L6.01007992,51.0955974 L0.894215989,45.9797334 Z" id="Fill-33-Copy" fill="#1D1E2B" fill-rule="nonzero"></path>
                            <path d="M44.9552154,13.8445018 L46.6597434,15.5472058 L12.0607438,50.1462054 C11.8737839,49.3231254 11.5067039,48.5378934 10.9439999,47.8570854 L44.9552154,13.8445018 Z" id="Fill-34-Copy" fill="#5053A3" fill-rule="nonzero"></path>
                            <path d="M39.8466475,8.73547789 L43.2525115,12.1413418 L9.02378389,46.3718934 C8.0903519,45.9551094 7.06252791,45.8105574 6.06160792,45.9318534 C6.17925592,44.9291094 6.03287992,43.8994614 5.61427193,42.9678535 L39.8466475,8.73547789 Z" id="Fill-35-Copy" fill="#5053A3" fill-rule="nonzero"></path>
                            <path d="M36.4407835,5.33006993 L38.1434875,7.03277391 L4.13090395,41.0458135 C3.45009596,40.4844775 2.66668797,40.1105575 1.84725598,39.9235975 L36.4407835,5.33006993 Z" id="Fill-36-Copy" fill="#5053A3" fill-rule="nonzero"></path>
                        </g>
                    </g>
                </g>
            </g>
        </g>
    </g>
</svg>