<?xml version="1.0" encoding="UTF-8"?>
<svg width="100px" height="100px" viewBox="0 0 100 100" version="1.1" xmlns="http://www.w3.org/2000/svg" xmlns:xlink="http://www.w3.org/1999/xlink">
    <!-- Generator: Sketch 60 (88103) - https://sketch.com -->
    <title>Object / Strategy</title>
    <desc>Created with Sketch.</desc>
    <defs>
        <path d="M75.77505,38.7519 C75.77505,59.6769 58.81155,76.6404 37.88805,76.6404 C16.96305,76.6404 -0.00045,59.6769 -0.00045,38.7519 C-0.00045,17.8284 16.96305,0.8649 37.88805,0.8649 C58.81155,0.8649 75.77505,17.8284 75.77505,38.7519" id="path-1"></path>
        <path d="M47.12155,23.7519 C47.12155,36.5844 36.71905,46.9854 23.88805,46.9854 C11.05555,46.9854 0.65305,36.5844 0.65305,23.7519 C0.65305,10.9194 11.05555,0.5184 23.88805,0.5184 C36.71905,0.5184 47.12155,10.9194 47.12155,23.7519" id="path-3"></path>
        <path d="M19.5065,9.7519 C19.5065,15.0649 15.2,19.3714 9.887,19.3714 C4.574,19.3714 0.2675,15.0649 0.2675,9.7519 C0.2675,4.4389 4.574,0.1324 9.887,0.1324 C15.2,0.1324 19.5065,4.4389 19.5065,9.7519" id="path-5"></path>
        <path d="M49.0334,8.58295 L8.3624,49.25395 C6.4919,51.12445 3.4304,51.12445 1.5614,49.25395 C-0.3106,47.38345 -0.3106,44.32345 1.5614,42.45295 L42.2324,1.78195 C44.1014,-0.08855 47.1629,-0.08855 49.0334,1.78195 C50.9039,3.65245 50.9039,6.71245 49.0334,8.58295" id="path-7"></path>
        <linearGradient x1="29.9487801%" y1="22.9570312%" x2="73.0449954%" y2="77.1875%" id="linearGradient-9">
            <stop stop-color="#ED4B54" offset="0%"></stop>
            <stop stop-color="#EE4E53" offset="6.80859375%"></stop>
            <stop stop-color="#FF764C" offset="100%"></stop>
        </linearGradient>
        <path d="M23.0113,17.2913 C24.5053,15.7973 26.5513,16.8548 28.4428,17.2913 L28.4428,17.2913 L33.2518,18.6863 C37.5583,19.8113 34.7458,22.6238 33.2518,24.1178 L33.2518,24.1178 L22.7788,34.5923 C21.2848,36.0848 20.7553,35.6483 17.3473,34.5923 L17.3473,34.5923 L12.5368,33.1943 C7.8823,31.7408 10.7323,29.5478 12.5368,27.7643 L12.5368,27.7643 Z M16.98925,3.03095 L18.38575,7.84145 C19.44325,11.24795 19.87975,11.77895 18.38575,13.27145 L7.91275,23.74595 C6.41875,25.23995 3.60625,28.05245 2.48125,23.74595 L1.08475,18.93545 C0.64825,17.04545 -0.40925,14.99795 1.08475,13.50395 L11.55775,3.03095 C13.34125,1.22645 15.53425,-1.62505 16.98925,3.03095 Z" id="path-10"></path>
        <linearGradient x1="34.3997781%" y1="22.9101562%" x2="68.4659763%" y2="72.8710938%" id="linearGradient-12">
            <stop stop-color="#F3F6FA" offset="0%"></stop>
            <stop stop-color="#BABCC5" offset="100%"></stop>
        </linearGradient>
    </defs>
    <g id="Object-/-Strategy" stroke="none" stroke-width="1" fill="none" fill-rule="evenodd">
        <g id="Group-21" transform="translate(7.000000, 4.000000)">
            <g id="Group-3" transform="translate(0.000000, 13.139500)">
                <g id="Background" transform="translate(0.000000, 0.860500)">
                    <mask id="mask-2" fill="white">
                        <use xlink:href="#path-1"></use>
                    </mask>
                    <use id="Mask" fill="#D72027" xlink:href="#path-1"></use>
                    <g id="Colour-/-06-Charcoal" mask="url(#mask-2)" fill="#1D1E2B" fill-rule="nonzero">
                        <g transform="translate(-18.000000, -22.000000)" id="Rectangle-2">
                            <rect x="0" y="0" width="132" height="143"></rect>
                        </g>
                    </g>
                </g>
            </g>
            <g id="Background" transform="translate(14.000000, 29.000000)">
                <mask id="mask-4" fill="white">
                    <use xlink:href="#path-3"></use>
                </mask>
                <use id="Mask" fill="#F4F5F7" xlink:href="#path-3"></use>
                <g id="Colour-/-02-Mist" mask="url(#mask-4)" fill="#F3F6FA" fill-rule="nonzero">
                    <g transform="translate(-37.000000, -46.000000)" id="Rectangle-2">
                        <rect x="0" y="0" width="132" height="143"></rect>
                    </g>
                </g>
            </g>
            <g id="Background" transform="translate(28.000000, 43.000000)">
                <mask id="mask-6" fill="white">
                    <use xlink:href="#path-5"></use>
                </mask>
                <use id="Mask" fill="#D72027" xlink:href="#path-5"></use>
                <g id="Colour-/-18-Salmon" mask="url(#mask-6)" fill="#ED4B54" fill-rule="nonzero">
                    <g transform="translate(-52.000000, -56.000000)" id="Rectangle-2">
                        <rect x="0" y="0" width="132" height="143"></rect>
                    </g>
                </g>
            </g>
            <path d="M43.1721,52.7519 C43.1721,55.6694 40.8051,58.0364 37.8876,58.0364 C34.9686,58.0364 32.6031,55.6694 32.6031,52.7519 C32.6031,49.8344 34.9686,47.4689 37.8876,47.4689 C40.8051,47.4689 43.1721,49.8344 43.1721,52.7519" id="Fill-8" fill="#9E302C"></path>
            <path d="M49.161,88.93355 C49.161,88.93355 57.636,85.72655 61.122,82.66955 L42.3615,53.25455 L35.5605,53.25455 L49.161,88.93355 Z" id="Fill-10" fill="#DADAE1" style="mix-blend-mode: multiply;"></path>
            <g id="Stick" transform="translate(34.000000, 4.000000)">
                <mask id="mask-8" fill="white">
                    <use xlink:href="#path-7"></use>
                </mask>
                <use id="Mask" fill="#DDA75F" xlink:href="#path-7"></use>
                <g id="Gradient-/-02-Sunset" mask="url(#mask-8)" fill="url(#linearGradient-9)" fill-rule="nonzero">
                    <g transform="translate(-14.000000, -8.000000)" id="Rectangle-2">
                        <rect x="0" y="0" width="64" height="66"></rect>
                    </g>
                </g>
            </g>
            <g id="Group-18" transform="translate(52.500000, 0.139500)"></g>
            <g id="Side" transform="translate(53.000000, 0.000000)">
                <mask id="mask-11" fill="white">
                    <use xlink:href="#path-10"></use>
                </mask>
                <use id="Mask" fill="#63BACE" xlink:href="#path-10"></use>
                <g id="Gradient-/-05--Cloudy" mask="url(#mask-11)" fill="url(#linearGradient-12)" fill-rule="nonzero">
                    <g transform="translate(-55.000000, -36.000000)" id="Rectangle-2">
                        <rect x="0" y="0" width="132" height="143"></rect>
                    </g>
                </g>
            </g>
        </g>
    </g>
</svg>