<?xml version="1.0" encoding="UTF-8"?>
<svg width="100px" height="100px" viewBox="0 0 100 100" version="1.1" xmlns="http://www.w3.org/2000/svg" xmlns:xlink="http://www.w3.org/1999/xlink">
    <!-- Generator: Sketch 60 (88103) - https://sketch.com -->
    <title>Object / Thumbs up</title>
    <desc>Created with Sketch.</desc>
    <defs>
        <path d="M28.3438174,29.9347361 C34.9153054,29.928247 41.487334,29.9871895 48.0572003,29.888231 C51.262936,29.8401037 54.0188957,30.385727 55.312002,33.7497732 C56.5715912,37.0267576 54.9514243,39.2627857 52.422515,41.0829721 C56.8348616,45.2213816 56.8721627,48.1149696 53.0387947,51.5406621 C53.9842976,53.6355527 55.5385118,55.5730833 55.5379712,57.5100731 C55.53689,59.3627048 53.9199666,61.2153366 52.9063486,63.286434 C52.6749734,63.102036 52.8814812,63.2702113 53.0923137,63.4340605 C55.2892969,65.1369027 56.3412972,67.2588312 55.3941726,70.0366974 C54.4989452,72.664774 52.5555017,73.952856 49.300031,73.9631303 C38.0480607,73.997198 31.378883,73.9820568 20.1269127,73.9863829 C15.9859454,73.9880051 11.8449781,74.017206 7.70455141,73.9847606 C3.20030344,73.9501522 0.949801248,72.1829599 0.90330997,67.7876911 C0.785459988,56.6297215 0.765998523,45.4614775 1.13792874,34.3116192 C1.33848995,28.2962439 4.94426695,24.2405702 10.4475368,21.8493449 C13.3240494,20.5996566 16.2092116,19.3337457 18.9543594,17.8277388 C21.841684,16.2449445 23.6078119,13.6898701 24.4133003,10.4518202 C24.976061,8.18713194 25.7107313,5.96570424 26.3524191,3.71994249 C26.9838355,1.51095219 28.2677516,0.0655100644 30.7069219,0.00278231041 C33.2028548,-0.0610269566 35.2803662,0.970736445 36.079908,3.30193772 C38.107144,9.20916172 38.4428543,15.0904294 34.6148922,20.545581 C33.2736729,22.4571552 31.7983857,24.2800454 30.544743,26.2456953 C29.9657644,27.1536254 29.7711498,28.3075998 29.1954148,29.9347361 C30.8431522,29.9347361 27.3020884,29.9358176 28.3438174,29.9347361 Z" id="path-1"></path>
        <path d="M28.3438174,29.9347361 C34.9153054,29.928247 41.487334,29.9871895 48.0572003,29.888231 C51.262936,29.8401037 54.0188957,30.385727 55.312002,33.7497732 C56.5715912,37.0267576 54.9514243,39.2627857 52.422515,41.0829721 C56.8348616,45.2213816 56.8721627,48.1149696 53.0387947,51.5406621 C53.9842976,53.6355527 55.5385118,55.5730833 55.5379712,57.5100731 C55.53689,59.3627048 53.9199666,61.2153366 52.9063486,63.286434 C52.6749734,63.102036 52.8814812,63.2702113 53.0923137,63.4340605 C55.2892969,65.1369027 56.3412972,67.2588312 55.3941726,70.0366974 C54.4989452,72.664774 52.5555017,73.952856 49.300031,73.9631303 C38.0480607,73.997198 31.378883,73.9820568 20.1269127,73.9863829 C15.9859454,73.9880051 11.8449781,74.017206 7.70455141,73.9847606 C3.20030344,73.9501522 17.5566406,75.4895558 24.1611328,61.5872121 C27.9101563,53.1868214 27.7226562,43.4553761 13.8027344,38.8821339 C3.54199219,35.7981496 4.94426695,24.2405702 10.4475368,21.8493449 C13.3240494,20.5996566 16.2092116,19.3337457 18.9543594,17.8277388 C21.841684,16.2449445 23.6078119,13.6898701 24.4133003,10.4518202 C24.976061,8.18713194 25.7107313,5.96570424 26.3524191,3.71994249 C26.9838355,1.51095219 28.2677516,0.0655100644 30.7069219,0.00278231041 C33.2028548,-0.0610269566 35.2803662,0.970736445 36.079908,3.30193772 C38.107144,9.20916172 38.4428543,15.0904294 34.6148922,20.545581 C33.2736729,22.4571552 31.7983857,24.2800454 30.544743,26.2456953 C29.9657644,27.1536254 29.7711498,28.3075998 29.1954148,29.9347361 C30.8431522,29.9347361 27.3020884,29.9358176 28.3438174,29.9347361 Z" id="path-3"></path>
        <linearGradient x1="33.6386526%" y1="23.078125%" x2="75.5380712%" y2="81.7460938%" id="linearGradient-5">
            <stop stop-color="#5052A3" offset="0%"></stop>
            <stop stop-color="#5052A3" stop-opacity="0" offset="100%"></stop>
        </linearGradient>
        <linearGradient x1="50%" y1="0%" x2="50%" y2="100%" id="linearGradient-6">
            <stop stop-color="#ED4B53" offset="0%"></stop>
            <stop stop-color="#FF764C" offset="100%"></stop>
        </linearGradient>
        <path d="M14.7642747,22.8418711 C14.7615787,28.4929025 14.7761373,34.1444731 14.7556475,39.7960436 C14.743785,43.2275275 13.2863143,44.7764126 9.87907901,44.8082205 C3.03495213,44.8718364 0.585344597,45.7942668 0.846319734,36.0917661 C1.11322612,26.1418104 0.902397036,16.179455 0.900779421,6.22195163 C0.900240216,2.58344648 2.4509933,0.949380823 6.06312644,0.910564351 C12.5411332,0.841018172 15.1503454,-0.038821864 14.7960878,9.38711146 C14.6273167,13.8661011 14.7669708,18.3564121 14.7642747,22.8418711" id="path-7"></path>
        <linearGradient x1="28.6759976%" y1="22.9570312%" x2="74.5078125%" y2="77.1875%" id="linearGradient-9">
            <stop stop-color="#ED4B54" offset="0%"></stop>
            <stop stop-color="#EE4E53" offset="6.80859375%"></stop>
            <stop stop-color="#FF764C" offset="100%"></stop>
        </linearGradient>
    </defs>
    <g id="Object-/-Thumbs-up" stroke="none" stroke-width="1" fill="none" fill-rule="evenodd">
        <g id="Group" transform="translate(13.000000, 10.000000)">
            <g id="Thumb" transform="translate(18.000000, 0.000000)">
                <mask id="mask-2" fill="white">
                    <use xlink:href="#path-1"></use>
                </mask>
                <use id="Mask" fill="#323342" xlink:href="#path-1"></use>
                <g id="Colour-/-06-Charcoal" mask="url(#mask-2)" fill="#1D1E2B" fill-rule="nonzero">
                    <g transform="translate(-8.000000, -3.000000)" id="Rectangle-2">
                        <rect x="0" y="0" width="68" height="78"></rect>
                    </g>
                </g>
                <mask id="mask-4" fill="white">
                    <use xlink:href="#path-3"></use>
                </mask>
                <g id="Mask"></g>
                <g id="Gradient-/-04-Night" mask="url(#mask-4)" fill="url(#linearGradient-5)" fill-rule="nonzero">
                    <g transform="translate(3.000000, -3.000000)" id="Rectangle-2">
                        <rect x="0" y="0" width="68" height="78"></rect>
                    </g>
                </g>
            </g>
            <g id="Box" transform="translate(0.000000, 29.140923)">
                <mask id="mask-8" fill="white">
                    <use xlink:href="#path-7"></use>
                </mask>
                <use id="Mask" fill="url(#linearGradient-6)" xlink:href="#path-7"></use>
                <g id="Gradient-/-02-Sunset" mask="url(#mask-8)" fill="url(#linearGradient-9)" fill-rule="nonzero">
                    <g transform="translate(-21.000000, -6.000000)" id="Rectangle-2">
                        <rect x="0" y="0" width="54" height="54"></rect>
                    </g>
                </g>
            </g>
        </g>
    </g>
</svg>